<svg xmlns:xlink="http://www.w3.org/1999/xlink" xmlns="http://www.w3.org/2000/svg" width="919.763" height="419.135" viewBox="0 0 919.763 419.135">
  <g fill="#FFFFFF">
    <path d="M532.96,233.509a7.058,7.058,0,0,0-.347,1.543c0,.288.339.581.854,1.385l5.665-3.905c-.25,2.02-.585,3.815-2.819,4.344-2.038.482-3.094,1.9-4.078,3.77a27.212,27.212,0,0,1-9.354,10.609,17.226,17.226,0,0,0-4.809,4.107,11.581,11.581,0,0,1-8.744,4.924c-.608,1.323-.975,2.917-1.914,4.023-4.145,4.88-7.145,10.588-11.327,15.426-.57.659-1.18,1.522-1.933,1.747-5.227,1.554-7.3,6.2-10.043,10.138-2.707,3.888-5.185,7.937-7.7,11.951a21.722,21.722,0,0,0-1.293,2.894c-1.476,3.37-2.962,6.737-4.421,10.115-.485,1.125-1.3,2.291-1.276,3.421.105,4.454-3.323,7.188-4.623,11.341-2.972-1.442-5.354-3.73-8.6-1.848-.535.31-2.023-1.027-2.591-1.34-2.218.665-4.5,2.141-5.821,1.533-1.463-.673-2.05-3.254-2.851-4.7-1.772-.353-4.017-.171-5.347-1.187-3.523-2.693-8.207-4.7-9.2-9.5-.632-3.041-.151-6.433.4-9.568a101.066,101.066,0,0,1,2.887-10.286c.541.8.823,1.217,1.593,2.358,1.4-5.453,1.809-10.8,4.192-15.038,1.743-3.1,3.212-7.6,8.64-9.24-3.491,9.193-11.34,15.327-10.773,25.167a263.361,263.361,0,0,1,27.028-42.539l-1.146-.927c-2.607,2.639-5.5,5.057-7.744,7.976-2.54,3.3-4.512,7.042-9.257,8.4-1.164-2.5.072-4.641,1.445-6.516,4.581-6.257,9.369-12.363,13.943-18.625.937-1.283,1.293-2.991,2.014-4.74-3.051-.489-5.476-1.283-7.866-1.189-9.854.386-18.968-2.719-27.063-7.5-11.122-6.566-14.158-7.468-23.97-16.3-10.087-9.08-10.069-8.195-20.517-16.88a60.877,60.877,0,0,1-7.606-7.321,29.31,29.31,0,0,0-13.148-9.381,35.655,35.655,0,0,1-4.586-2.359L361.9,173.1a5.818,5.818,0,0,1,2.073-.275c7.336,1.877,14.831,3.7,20.9,8.372,6.806,5.24,13.093,11.157,19.57,16.819,5.582,4.878-.134,1.239,5.908,5.446,4.23,2.945,9.5,4.623,14.523,6.161,17.025,5.214,25.487,1.32,42.887-2.936,5.422-1.326,11.034-1.877,16.452-3.214,3.808-.94,7.427-2.634,11.146-3.944,1.95-.686,4.167-.9,5.865-1.963,7.362-4.612,15.134-8.486,20.8-15.662,3.749-4.745,9.194-8.136,13.8-12.221,1.548-1.373,3.424-2.792,4.137-4.592a6.91,6.91,0,0,1,5.349-4.591c2.821-.291,3.667-2.152,5.069-4.113,5.834,2.732,11.642,5.14,17.12,8.149,2.683,1.475,5.939,2.312,7.553,5.75.613,1.306,3.52,1.535,5.512,2.305,3.521,4.808,6.9,10.217,13.5,12.5.1,1.544.2,3.012.3,4.584l5.5-1.621c.407,3.972-2.668,4.346-4.493,6.1l-2.633-2.4c-5.5,4.729-10.62,9.485-16.132,13.727-3.285,2.529-7.485,3.756-10.455,6.928-.471.5-2.115-.095-3.62-.216-.932,6.118-7.031,7.447-11.193,10.52-5.705,4.212-12.221,7.325-18.4,10.944-2.11-.144-3.673.382-4.032,3.885Zm-2.978,6.177c-3.224-1.846-3.931.027-4.3,2.467Zm-98.265,64.861,1.339.426,1.374-5.135-.938-.3Z" fill="#FFFFFF"></path>
    <path d="M250.849,311.544c-22.475-1.259-37.206-10.225-50.307-22.338a6.781,6.781,0,0,1,1.576-11.134c6.689-3.107,13.619-6.074,20.765-7.712,7.061-1.619,14.508-1.677,21.8-2.13,12.3-.765,30.4,12.558,33.542,24.45a7.832,7.832,0,0,1-4.551,9.645C265.115,306.222,256.23,309.409,250.849,311.544Z" fill="#FFFFFF"></path>
    <path d="M279.538,180.655c.1.3.111.836.357.986,13.1,8.019,26.344,15.813,39.262,24.115a42.46,42.46,0,0,1,9.853,9.552c12.4,15.711,25.823,30.7,35.72,48.244,3.91,6.932,8.016,13.908,10.679,21.348a120.4,120.4,0,0,1,5.966,25.3c.443,3.5-2.315,7.533-4.077,11.1-.412.833-3.015,1.44-4.059.958-5.09-2.35-10.64-4.336-14.834-7.869A334.863,334.863,0,0,1,329.6,287.574c-4.242-4.528-7.174-10.814-9.166-16.813a141.475,141.475,0,0,0-18.679-37.282c-7.009-9.92-15.695-18.336-27.466-22.806a44.769,44.769,0,0,1-5.456-2.918c-5.828-3.209-5.886-3.49-12.555-2.058-5.459,1.173-11.224-.979-16.517,2.067-2.626,1.511-5.9,1.864-8.628,3.236-11.023,5.537-21.917,11.33-32.942,16.864-1.961.985-4.316,1.185-7.018,1.884a58.413,58.413,0,0,1-5.559,6.3c-3.059,2.654-6.228,6.293-9.809,6.929-3.81.676-6.169,3.212-9.437,4.255-4.085,1.3-6.554,4.072-7.285,9.081l-1.329-3.909c-2.888,2.5-5.417,4.888-8.15,7.011-3.357,2.608-5.62,6.472-10.484,7.434-2.235.441-4.053,3.406-5.874,5.4a53.28,53.28,0,0,0-3.552,4.807l-2.924-1.36c-.472.479-1.058.788-1.119,1.18-.662,4.239-1.16,8.5-7.38,6.907a3.1,3.1,0,0,0-2.688,1.153c-4.638,8.54-13.375,12.559-20.593,17.974-9.217,6.916-19.578,12.33-29.584,18.154-2.235,1.3-4.862,3.338-7.747.879-1.3-1.112-2.639-2.191-4.741-3.933-2.244,2.825-4.737,5.947-7.209,9.085-.792,1-1.489,2.906-2.3,2.943a84.752,84.752,0,0,1-14.2-.217c-2.108-.259-4.006-2.232-6.4-3.67,2.077-2.39,3.177-4.3,4.812-5.437,15.615-10.883,26.861-26.38,41.1-38.724,13.044-11.31,25.5-23.3,38.648-34.485,13.751-11.694,28.116-22.663,42.039-34.16,17.846-14.738,38.193-25.464,58.834-35.3,14.363-6.847,30.182-7.627,46.144-4.036Z" fill="#FFFFFF"></path>
    <path d="M333.447,402.409q-5.025,2.673-10.05,5.346c-1.314.7-2.668,2.087-3.921,2-5.717-.395-10.64,3.285-16.436,2.049-4.465,2.95-10.549,1.066-15.29,4.079-2.925,1.859-7.309,1.961-11.038,2.851-1.588-2.481-2.854-1.236-4.767-.179-.832.459-3.019-.951-4.906-1.624-6.119,2.177-12.578,3.592-19.381.049-1.8-.938-4.261-.841-6.384-1.342-2.85-.672-6.284-.823-8.341-2.365-2.529-1.9-6.371,2.381-8.106-2.25-.806-2.154-3.906-3.93-6.368-5.317-6.358-3.585-9.874-9.344-14.483-14.217-3.851-4.071-6.755-8.835-10.049-13.308s-6.718-8.915-9.784-13.521a6.52,6.52,0,0,0-5.84-3.05c-4.338-.156-8.671-.516-13.809-.84,3.349-2.846,6.906-.329,10.029-1.824a15.954,15.954,0,0,0-8.018-1.294c-7.921.352-15.881.161-23.822.263a26.255,26.255,0,0,0-5.337.585c-7.857,1.758-15.738,3.464-23.5,5.512-3.127.825-5.957,2.478-8.922,3.753l.2-.164c-4.9.443-9.912.5-14.675,1.444-4.424.882-8.523,2.886-12.875,4.106-8.475,2.377-16.628,5.46-25.661,6.56-7.176.874-13.977,3.715-21.1,5.1-5.234,1.02-10.248,1.662-15.741-1.712C9.13,379.449,4.724,374.942,0,369.973c9.608.092,17.463-4.125,26.06-6.109,7.322-1.689,14.371-4.23,21.638-6.117,7.05-1.831,14.217-3.328,21.349-4.919.986-.22,2.246-.035,1.03-1.412,1.029-.448,2.3-1.492,3.048-1.246,4.775,1.573,8.226-1.571,12.284-2.094,4.117-.53,6.9-2.618,10.256-4.071a4.465,4.465,0,0,1,2.915-.386,6.668,6.668,0,0,0,7.96-1.584c.515-.505,1.879-.391,2.863-.46,10.355-.719,20.7-1.755,31.076-2,6.343-.148,12.745,1.282,19.122,1.381,9.651.149,17.634,4.737,26.326,7.376,11.091,3.367,17.552,10.916,21.673,20.223a12.591,12.591,0,0,1,.369,1.562c1.8,6.057,6.775,9.059,13.305,10.017,10.457,1.535,20.836,3.33,31.556,1.012a260.2,260.2,0,0,1,31.809-5.076c10.647-.948,20.254-4.773,30.525-6.572,14.838-2.6,29.378-6.376,44.507-7.837,10.316-1,20.587-2.314,30.858-3.6,4.888-.613,9.827-.446,14.752-1.62,2.472-.589,6.151,1.966,9.06,3.446s5.566,3.406,8.8,5.425l-4.061,1.7,7.366,9.239c-2.655.9-4.864,1.719-7.135,2.378a5.116,5.116,0,0,1-2.122-.217,31.715,31.715,0,0,0-15.815,1.177c-2.136.68-4.336,1.209-6.507,1.807-1.034-3.009-3.914-.14-5.45-1.388-1.6-1.3-2.942-.588-4.72-.185-9.431,2.139-19.043,3.712-28.427,5.984-6.886,1.666-13.523,4.091-20.248,6.231-.475.151-.765.738-1.78,1.776l6.4-.783-1.783,2.634,5.271,2.968a2.705,2.705,0,0,0-.6.2c-2.769.184-5.547.311-8.306.572-2.181.206-2.192,1.663-2.027,3.141Zm15.5-35.918c-3.858,2.816-6.375,5.842-9.707,6.833-6.594,1.96-8.729,2.243-13.22,5.3,8.965.2,9.96-.09,16.666-2.622a31.419,31.419,0,0,1,7.92-1.641c5.1-.5,10.3-.453,15.367-1.1,8.39-1.068,16.682-2.685,25.077-3.716,4.824-.593,4.879-.278,5.523-4.758-11.842-.155-23.376,2.183-34.786,3.468-.554-1.53-.881-2.433-1.174-3.239Zm-31.388,10.532-11.7,6.246C315.024,383.584,316.922,382.594,317.554,377.023Zm19.854-6.4-.429-.948-4.021,1.275.512,1.088Z" fill="#FFFFFF"></path>
    <path d="M900.863,174.513l-2.329,4.276c3.727.323,6.287,1.187,8.8,3.606a8.451,8.451,0,0,0,10.7.514c-.52,1.569-1.04,3.138-1.677,5.063.913.448,1.836.9,3.407,1.67-4.01,9.83-7.416,19.912-12.174,29.31a143.408,143.408,0,0,1-14.438,22.072A222.5,222.5,0,0,1,875.4,261.168c-7.685,7.847-15.744,15.341-23.856,22.753-7.308,6.678-16.347,10.68-25.107,14.968-3.234,1.584-7.261,1.461-10.705,2.722-5.617,2.058-10.916,5.03-16.591,6.872-12.8,4.156-25.518,8.764-39.2,9.463a68.431,68.431,0,0,0-10.394,1.859c-8.265,1.734-16.479,1.357-24.837.367-6.992-.829-13.415-2.5-19.081-6.739a11.327,11.327,0,0,0-2.672-1.623c-16.643-6.258-28.7-18.043-38.931-32.088-2.7-3.7-5.781-7.125-8.448-10.848-8.245-11.511-13.43-24.487-16.77-38.086-3.124-12.72-5.194-25.7-7.879-38.526-1.253-5.987-3.819-11.345-8.929-15.21l2.792-5.41c4.234,2.4,8.246,4.737,12.316,6.961a28.95,28.95,0,0,0,4.036,1.613c4.3,1.562,8.657,2.988,12.907,4.678,4.018,1.6,7.257,4.009,7.781,8.814.552,5.066,4.993,8.746,4.9,14.3-.025,1.476,2.356,3.8,3.434,5.971,2.214,4.459,2.506,9.148,3.09,13.878,1.815,14.7,4.172,29.3,10.288,42.945,2.714,6.056,5.509,12.074,10.139,17.1a10.771,10.771,0,0,0,7.548,3.8c13.128.71,26.443,1.3,39.24-1.515,11.057-2.429,21.624-7.171,32.328-11.109,26.5-9.751,45.928-28.655,63.579-49.723a60.2,60.2,0,0,0,7.367-11.434c3.923-7.744,7.493-15.672,11.05-23.6a37.16,37.16,0,0,1,7.359-11.492c2.367-2.367,4.248-4.823,8.415-3.867,1.933.444,4.35-1.042,6.5-1.78,2.939-1.008,5.784-2.325,8.764-3.176C893.411,171.846,893.7,171.929,900.863,174.513Z" fill="#FFFFFF"></path>
    <path d="M31.427,150.746a55.459,55.459,0,0,1,5.1-4.839c5.953-4.411,11.91-2.475,17.282.958a58.276,58.276,0,0,1,11.579,9.646c7.366,8.068,16.372,11.353,27.046,10.9,2.66-.113,5.373.3,7.985-.074,11.188-1.591,17.612,5.806,23.737,13,1.737,2.041,1.571,6.2,1.275,9.3-.208,2.188-2.8,2.013-4.45,1.07a19.64,19.64,0,0,1-3.83-3.352c-1.344-1.344-2.548-2.825-3.865-4.2a9.748,9.748,0,0,0-9.036-3.146c-5.254.851-10.553,1.481-15.759,2.562-12.117,2.516-22.883.064-31.994-8.438-5.561-5.19-10.769-10.76-16.363-15.911-2.624-2.415-5.787-4.243-8.706-6.337Z" fill="#FFFFFF"></path>
    <path d="M196.038,147.335c-2.574-2.354-2.29-4.909-2.1-7.335.545-6.922.947-13.872,1.918-20.738,1.038-7.339-1.071-13.291-6.419-18.253-2.3-2.134-4.552-4.322-6.859-6.45-6.711-6.188-11.588-13.538-12.474-22.739-.448-4.648.45-9.447.929-14.158.528-5.2,1.392-10.368,1.888-15.57a17.165,17.165,0,0,0-2.974-11.643c-1.349-1.954-2.871-3.789-4.293-5.693-.968-1.3-2.243-2.5-2.757-3.961-.627-1.784-1.272-4.081-.625-5.613.44-1.04,3.253-1.861,4.715-1.524,3.153.726,6.566,1.67,9.079,3.574,8.3,6.287,13.557,14.912,16.33,24.822.9,3.208.378,7.01-.238,10.405a65.979,65.979,0,0,0,0,23.527,8.531,8.531,0,0,0,2.421,4.188c2.556,2.543,5.428,4.765,8.084,7.213,7.475,6.893,9.808,15.439,8.49,25.383a66.374,66.374,0,0,1-11,29.647C199,144.1,197.528,145.574,196.038,147.335Z" fill="#FFFFFF"></path>
    <path d="M258.224.654c2.43-1.262,3.978-.639,5.51,1.364,8.021,10.49,9.535,21.964,5.109,34.2a95.288,95.288,0,0,1-5.97,12.621c-3.7,6.86-3.611,13.346.872,19.855,2.966,4.3,5.511,8.895,8.369,13.277,5.056,7.751,5.986,16.066,3.738,24.9-2.465,9.681-6.321,18.632-14.316,25.057a25.993,25.993,0,0,1-8.733,4.506c-2.152.636-6.234.573-6.812-.544-1.1-2.117-1-5.474-.137-7.856,2-5.524,5.2-10.624,7.089-16.177a118.121,118.121,0,0,0,4.087-17.382,12.511,12.511,0,0,0-3.054-10.7c-6.3-6.778-7.491-15.045-8.122-23.683-.948-12.963-2.858-9.621,5.115-23.033,4.065-6.839,7.652-13.886,8.032-22.017.167-3.589-.282-7.207-.475-10.81C258.46,3.017,258.323,1.8,258.224.654Z" fill="#FFFFFF"></path>
    <path d="M79.505,69.2c1.748-4.946,4.046-6.388,8.931-5.535,8.183,1.428,14.02,6.584,19.138,12.6a97.514,97.514,0,0,1,18.7,33.055c.7,2.149,2.966,4.249,5.047,5.386,3.893,2.128,8.188,3.516,12.3,5.25,1.925.811,3.84,1.655,5.711,2.581a14.992,14.992,0,0,1,8.821,12.449c.449,4.159.866,8.323,1.179,12.493.651,8.7-3.3,15.582-9.148,22.391-.658-1.967-1.262-3.5-1.685-5.091-1.464-5.5-2.755-11.038-4.323-16.5a16.458,16.458,0,0,0-9.03-10.483c-5.461-2.677-10.84-5.551-16.427-7.933-12.336-5.261-18.514-14.589-19.3-27.817a71.55,71.55,0,0,0-1.274-9.319C95.844,80.869,91.877,73.737,79.505,69.2Z" fill="#FFFFFF"></path>
    <path d="M287.1,146.02c4.291-5.653,8.663-11.246,12.847-16.977a161.1,161.1,0,0,0,9.987-14.556c4.546-7.924,5.051-16.524,2.046-25.09-1.4-4-.653-7.223,2.125-9.891a123.1,123.1,0,0,1,10.282-8.57c3.011-2.318,6.169-4.46,9.356-6.535A20.735,20.735,0,0,0,342.3,53.023a82.665,82.665,0,0,1,4-9.42,19.311,19.311,0,0,1,2.531-3.245c4.359,4.456,5.3,9.648,5.091,15.206-.341,8.955-5.127,15.705-10.941,21.95-2.72,2.922-5.49,5.813-8.012,8.9-3.343,4.095-4.478,8.723-2.649,13.892.6,1.7.87,3.515,1.483,5.208,3.761,10.378.711,19.336-6.066,27.232-6.654,7.753-15.108,12.273-25.538,12.785-4.831.236-9.642.851-14.462,1.294Z" fill="#FFFFFF"></path>
    <path d="M402.564,108.7a50.948,50.948,0,0,1-3.342,4.691c-4.195,4.646-6.512,10.129-8.06,16.136a72.885,72.885,0,0,1-4.5,12.564c-2.632,5.642-7.42,9.148-13.283,10.915-6.268,1.889-12.662,3.358-18.988,5.056-3.028.812-6.08,1.582-9.029,2.629a19.441,19.441,0,0,0-11.692,11.029c-.454,1.045-1.021,2.046-1.414,3.112-.937,2.537-2.646,3.539-5.331,2.846a11.433,11.433,0,0,1,1.308-10.558,61.628,61.628,0,0,1,14.785-16.087,7.786,7.786,0,0,1,6.082-1.617c7.472.93,13.783-2.2,18.737-7.3,6.074-6.262,11.414-13.233,17.143-19.835,3.362-3.874,6.842-7.648,10.314-11.426C397.092,108.9,399.345,108.139,402.564,108.7Z" fill="#FFFFFF"></path>
    <g fill="#FFFFFF">
      <path d="M477.936,393.859H462.827V356.9h15.109c12.177,0,20.589,7.972,20.589,18.375v.105C498.525,385.781,490.113,393.859,477.936,393.859Zm11.678-18.479c0-6.547-4.7-11.141-11.678-11.141H471.35v22.282h6.586c6.974,0,11.678-4.488,11.678-11.037Z" fill="#FFFFFF"></path>
      <path d="M561.122,393.859l-3.542-8.29H541.2l-3.542,8.29h-8.689l16.6-37.222h7.86l16.6,37.222ZM549.388,366.4l-5.147,11.985h10.295Z" fill="#FFFFFF"></path>
      <path d="M618.292,379.129v14.73h-8.523V379.287L594.881,356.9h9.962l9.242,14.837,9.409-14.837h9.685Z" fill="#FFFFFF"></path>
      <path d="M682.27,394.493c-11.4,0-19.868-8.395-19.868-19.009v-.1c0-10.508,8.3-19.114,20.2-19.114,7.306,0,11.678,2.324,15.275,5.7l-5.424,5.966c-2.989-2.586-6.033-4.17-9.907-4.17a11.183,11.183,0,0,0-11.235,11.511v.105c0,6.335,4.594,11.615,11.235,11.615,4.428,0,7.14-1.689,10.184-4.33l5.424,5.228C694.17,391.958,689.742,394.493,682.27,394.493Z" fill="#FFFFFF"></path>
      <path d="M733.912,393.859V356.9h8.523v29.567h19.316v7.392Z" fill="#FFFFFF"></path>
      <path d="M812.173,394.44c-10.4,0-16.77-5.544-16.77-16.421V356.9h8.523v20.908c0,6.02,3.154,9.135,8.357,9.135s8.357-3.01,8.357-8.87V356.9h8.524v20.855C829.164,388.949,822.577,394.44,812.173,394.44Z" fill="#FFFFFF"></path>
      <path d="M885.232,393.859H866.8V356.9H884.79c7.914,0,12.784,3.749,12.784,9.557v.105c0,4.172-2.324,6.494-5.091,7.973,4.483,1.636,7.25,4.118,7.25,9.082v.1C899.733,390.479,893.977,393.859,885.232,393.859Zm3.874-26.029c0-2.429-1.991-3.8-5.589-3.8H875.1v7.815h7.86c3.763,0,6.142-1.161,6.142-3.908Zm2.159,14.784c0-2.482-1.937-4.014-6.309-4.014H875.1v8.132h10.128c3.764,0,6.033-1.268,6.033-4.014Z" fill="#FFFFFF"></path>
    </g>
  </g>
</svg>