<svg version="1.1" id="Layer_1" xmlns="http://www.w3.org/2000/svg" xmlns:xlink="http://www.w3.org/1999/xlink" x="0px" y="0px" viewBox="0 0 252 126.52" style="enable-background:new 0 0 252 126.52;" xml:space="preserve" width="252"  height="126.52" >
<style type="text/css" fill="#FFFFFF">
	.st0{fill:#FFFFFF;}
</style>
<path class="st0" d="M71.39,2.05v66.44c0,0.39,0.32,0.71,0.71,0.71h4.08c0.39,0,0.7-0.32,0.7-0.71V2.05c0-0.39-0.32-0.7-0.7-0.7
	h-4.08C71.7,1.35,71.39,1.66,71.39,2.05" fill="#FFFFFF"></path>
<path class="st0" d="M117.3,1.35H85.58c-0.39,0-0.7,0.32-0.7,0.7v4.08c0,0.39,0.32,0.7,0.7,0.7h12.06c0.39,0,0.7,0.31,0.7,0.7V68.5
	c0,0.39,0.32,0.7,0.7,0.7h4.08c0.39,0,0.7-0.32,0.7-0.7V7.54c0-0.39,0.32-0.7,0.7-0.7h12.06c0.39,0,0.7-0.32,0.7-0.7V1.35z" fill="#FFFFFF"></path>
<path class="st0" d="M143.39,48.97c3.05-0.85,5.88-2.29,8.5-4.31c2.93-2.26,5.22-5.09,6.88-8.48c1.66-3.39,2.49-6.92,2.49-10.58
	c0-4.32-1.08-8.36-3.24-12.12c-2.16-3.76-5.12-6.72-8.88-8.88c-3.76-2.16-7.8-3.24-12.12-3.24h-11.28c-0.39,0-0.71,0.32-0.71,0.71
	l0.01,4.77v61.66c0,0.39,0.32,0.71,0.71,0.71h4.07c0.39,0,0.71-0.32,0.71-0.71V50.55c0-0.39,0.32-0.71,0.71-0.71h4.05
	c0.21,0,0.41,0.09,0.54,0.25l15.94,18.85c0.13,0.16,0.33,0.25,0.54,0.25h5.42c0.61,0,0.93-0.71,0.54-1.17l-15.23-17.92
	C142.71,49.72,142.89,49.11,143.39,48.97 M137.02,44.35h-6.49V7.55c0-0.39,0.32-0.71,0.71-0.71h5.78c3.19,0,6.22,0.77,9.08,2.3
	c2.86,1.53,5.19,3.73,6.98,6.59c1.8,2.86,2.69,6.15,2.69,9.88c0,5.06-1.73,9.45-5.19,13.17C147.13,42.49,142.61,44.35,137.02,44.35" fill="#FFFFFF"></path>
<path class="st0" d="M199.8,1.35c-0.38,0-0.7,0.31-0.7,0.7v49.49c0,3.59-1.23,6.52-3.69,8.78c-2.46,2.26-5.29,3.39-8.48,3.39
	c-3.53,0-6.44-1.25-8.73-3.74c-2.29-2.49-3.44-5.3-3.44-8.43V2.06c0-0.4-0.32-0.72-0.72-0.72h-4.06c-0.4,0-0.71,0.32-0.71,0.72
	v49.47c0,3.13,0.8,6.05,2.39,8.78c1.6,2.73,3.76,4.89,6.48,6.49c2.73,1.6,5.65,2.39,8.78,2.39c3.31,0,6.4-0.9,9.27-2.69
	c2.29-1.43,4.25-3.38,5.69-5.67c1.81-2.87,2.71-5.97,2.71-9.3V2.04c0-0.39-0.31-0.7-0.7-0.7H199.8z" fill="#FFFFFF"></path>
<path class="st0" d="M232.54,0.35c-4.79,0-8.86,1.68-12.22,5.04c-3.36,3.36-5.04,7.43-5.04,12.22c0,3.93,1.18,7.43,3.54,10.53
	c2.36,3.09,5.44,5.14,9.23,6.14l7.78,2c3.13,0.8,5.69,2.45,7.68,4.94c1.99,2.49,2.99,5.5,2.99,9.03c0,3.99-1.38,7.4-4.14,10.23
	c-2.76,2.83-6.2,4.24-10.33,4.24c-3.33,0-6.32-1.03-8.98-3.09c-2.47-1.92-4.14-4.41-5.01-7.47c-0.11-0.39-0.5-0.62-0.88-0.5
	l-3.81,1.1c-0.37,0.11-0.6,0.5-0.49,0.87c1.19,4.15,3.49,7.58,6.9,10.3c3.59,2.86,7.68,4.29,12.27,4.29
	c5.45,0,10.14-1.93,14.07-5.79c3.92-3.86,5.89-8.58,5.89-14.17c0-4.52-1.38-8.58-4.14-12.17c-2.76-3.59-6.3-5.95-10.63-7.08l-7.78-2
	c-2.46-0.6-4.53-1.96-6.19-4.09c-1.66-2.13-2.49-4.56-2.49-7.28c0-3.13,1.15-5.87,3.44-8.23c2.3-2.36,5.07-3.54,8.33-3.54
	c4.36,0,7.64,1.74,9.84,5.22c0.2,0.32,0.62,0.41,0.94,0.23l3.54-1.99c0.35-0.2,0.47-0.65,0.26-0.99c-1.49-2.3-3.47-4.17-5.95-5.61
	C238.48,1.13,235.6,0.35,232.54,0.35" fill="#FFFFFF"></path>
<path class="st0" d="M29.24,33.66l-17.37-7.21c-0.37-0.15-0.81,0.03-0.94,0.41c-1.66,4.73-1.92,9.96-0.51,15.04
	c0.11,0.41,0.56,0.62,0.95,0.46l17.87-7.38C29.83,34.73,29.83,33.9,29.24,33.66" fill="#FFFFFF"></path>
<path class="st0" d="M31.02,39.28l-17.86,7.38c-0.39,0.16-0.56,0.63-0.35,1c2.6,4.56,6.48,8.06,11,10.23c0.36,0.17,0.8,0,0.95-0.37
	l7.18-17.31C32.19,39.62,31.61,39.04,31.02,39.28" fill="#FFFFFF"></path>
<path class="st0" d="M36.25,41.99l-7.02,16.92c-0.17,0.41,0.07,0.87,0.5,0.96c4.55,0.96,9.53,1,14.15-0.72
	c0.37-0.14,0.55-0.56,0.4-0.93l-6.71-16.24C37.32,41.41,36.49,41.41,36.25,41.99" fill="#FFFFFF"></path>
<path class="st0" d="M14.03,22.3l17,7.06c0.58,0.24,1.17-0.34,0.93-0.93l-6.59-15.9c-0.15-0.37-0.58-0.54-0.94-0.38
	c-4.52,2.02-8.16,5.23-10.72,9.11C13.46,21.63,13.62,22.13,14.03,22.3" fill="#FFFFFF"></path>
<path class="st0" d="M52.41,59.67c-0.9,0.62-1.84,1.21-2.83,1.74c-0.09,0.05-0.17,0.1-0.26,0.14c-0.13,0.07-0.25,0.14-0.38,0.21
	c-0.23,0.12-0.46,0.23-0.7,0.34c-0.07,0.03-0.14,0.07-0.21,0.1c-0.34,0.16-0.69,0.32-1.04,0.47c-0.11,0.05-0.22,0.1-0.33,0.14
	c-0.29,0.12-0.59,0.23-0.88,0.35c-0.19,0.07-0.38,0.15-0.58,0.22c-0.19,0.07-0.38,0.13-0.57,0.19c-0.33,0.11-0.66,0.22-0.99,0.31
	l-0.07,0.02c-2.67,0.78-5.48,1.21-8.4,1.21c-16.94,0-30.58-14.1-29.84-31.2C5.99,18.56,18.46,6.08,33.83,5.4
	c4.74-0.21,9.24,0.7,13.28,2.46c1.03,0.44,2.03,0.94,3.01,1.5c0.49,0.28,0.97,0.58,1.45,0.89c0.48,0.31,0.95,0.64,1.42,0.98
	c2.39,1.75,4.38,3.67,5.98,5.78c0.23,0.3,0.66,0.38,0.97,0.16l3.24-2.28c0.32-0.23,0.4-0.68,0.16-0.99
	c-1.08-1.47-2.27-2.84-3.55-4.09c-0.48-0.47-0.98-0.93-1.49-1.37c-2.04-1.77-4.31-3.3-6.81-4.58c-4.37-2.24-9.06-3.5-14.09-3.78
	C36.68,0.02,35.96,0,35.22,0c-2.36,0-4.67,0.22-6.92,0.66c-2.25,0.44-4.45,1.1-6.6,1.98c-4.29,1.77-8.08,4.29-11.38,7.59
	c-3.29,3.29-5.84,7.1-7.63,11.42C0.9,25.98,0,30.5,0,35.22c0,6.45,1.58,12.37,4.74,17.76c2.76,4.71,6.37,8.58,10.81,11.59
	c0.64,0.43,1.29,0.84,1.96,1.24c1,0.59,2.03,1.13,3.07,1.61c4.52,2.09,9.4,3.13,14.64,3.13c4.75,0,9.24-0.87,13.45-2.6
	c0.97-0.4,1.93-0.85,2.87-1.34c0.63-0.33,1.24-0.67,1.84-1.03c3.98-2.37,7.34-5.34,10.06-8.93c0.24-0.31,0.16-0.76-0.16-0.99
	l-3.36-2.39c-0.31-0.22-0.73-0.15-0.96,0.15C57.11,55.85,54.92,57.92,52.41,59.67" fill="#FFFFFF"></path>
<path class="st0" d="M19.62,124.31l2.06-1.64c0.52,0.68,1.16,1.23,2.22,1.23c0.84,0,1.35-0.27,1.35-0.89c0-0.48-0.34-0.71-1.05-0.96
	l-1.25-0.45c-1.55-0.55-2.65-1.54-2.65-3.39c0-2.22,1.74-3.36,3.63-3.36c1.88,0,2.91,0.71,3.54,1.49l-1.63,1.81
	c-0.44-0.48-0.91-0.81-1.75-0.81c-0.69,0-1.03,0.33-1.03,0.78c0,0.43,0.23,0.65,0.75,0.83l1.41,0.5c2.13,0.75,2.85,1.82,2.85,3.41
	c0,2.07-1.22,3.56-4.04,3.56C21.64,126.39,20.28,125.23,19.62,124.31" fill="#FFFFFF"></path>
<path class="st0" d="M39.5,126.36c-0.05,0.12-0.14,0.12-0.19,0l-4.46-11.39h2.99l1.99,5.28l2.29-5.5c0.03-0.08,0.09-0.08,0.12,0
	l2.39,5.5l1.89-5.28h2.85l-4.4,11.39c-0.05,0.13-0.13,0.13-0.19,0l-2.66-6.04L39.5,126.36z" fill="#FFFFFF"></path>
<rect x="57.3" y="114.97" class="st0" width="2.85" height="11.26" fill="#FFFFFF"></rect>
<path class="st0" d="M69.29,114.85c0.02-0.12,0.08-0.1,0.14-0.02l5.1,6.06l5.02-6.06c0.06-0.08,0.13-0.1,0.14,0.02l0.63,11.38h-2.8
	l-0.25-4.8l-2.66,3.26c-0.05,0.05-0.09,0.05-0.14,0l-2.77-3.28l-0.25,4.82h-2.79L69.29,114.85z" fill="#FFFFFF"></path>
<polygon class="st0" points="99.44,114.97 99.44,126.23 107.12,126.23 107.12,123.69 102.29,123.69 102.29,122.52 106.14,122.52 
	106.14,120.11 102.29,120.11 102.29,117.5 106.9,117.5 106.9,114.97 " fill="#FFFFFF"></polygon>
<path class="st0" d="M119.91,120.4l-1.07,2.62H121L119.91,120.4z M117.54,126.23h-2.79l5.18-11.46c0.05-0.12,0.14-0.12,0.19,0
	l5.17,11.46h-2.94l-0.41-0.96h-4.01L117.54,126.23z" fill="#FFFFFF"></path>
<polygon class="st0" points="131.03,114.97 131.03,117.5 133.85,117.5 133.85,126.23 136.7,126.23 136.7,117.5 139.51,117.5 
	139.51,114.97 " fill="#FFFFFF"></polygon>
<path class="st0" d="M162.15,123.68c1.72,0,2.79-1.21,2.79-3.08c0-1.87-1.07-3.08-2.79-3.08h-0.95v6.16H162.15z M158.35,114.97h4.12
	c3.07,0,5.38,2.14,5.38,5.63c0,3.49-2.32,5.63-5.38,5.63h-4.12V114.97z" fill="#FFFFFF"></path>
<path class="st0" d="M179.9,121.24c1.28,0,1.75-0.76,1.75-1.85c0-1.09-0.47-1.87-1.75-1.87h-1.05v3.73H179.9z M184.48,126.23h-3.08
	l-1.49-2.58h-1.06v2.58H176v-11.26h4.04c2.86,0,4.48,1.92,4.48,4.42c0,1.62-0.67,2.91-1.93,3.64L184.48,126.23z" fill="#FFFFFF"></path>
<rect x="192.79" y="114.97" class="st0" width="2.85" height="11.26" fill="#FFFFFF"></rect>
<path class="st0" d="M207.11,120.61v5.61h-2.68v-11.41c0-0.1,0.05-0.18,0.22-0.03l6.68,5.83v-5.65h2.68v11.42
	c0,0.13-0.05,0.18-0.22,0.03L207.11,120.61z" fill="#FFFFFF"></path>
<path class="st0" d="M228.87,114.97h3.08l-3.54,4.88l3.96,6.38h-3.37l-2.53-4.09c0.01,0-0.6,0.78-0.89,1.16v2.93h-2.85v-11.26h2.85
	v4.67L228.87,114.97z" fill="#FFFFFF"></path>
<path class="st0" d="M89.84,116.61c0.11-0.07,0.26-0.06,0.36,0.02c1.21,0.93,1.97,2.47,1.88,4.16c0,0.06-0.01,0.11-0.01,0.17
	c-0.26,3.03-4.59,2.78-4.53-0.27c0-0.06,0-0.11,0.01-0.17C87.63,118.83,88.54,117.39,89.84,116.61" fill="#FFFFFF"></path>
<path class="st0" d="M148.97,116.61c0.12-0.07,0.26-0.06,0.36,0.02c1.21,0.93,1.96,2.47,1.88,4.16c0,0.06-0.01,0.11-0.01,0.17
	c-0.26,3.03-4.59,2.78-4.53-0.27c0-0.06,0-0.11,0.01-0.17C146.76,118.83,147.67,117.39,148.97,116.61" fill="#FFFFFF"></path>
<path class="st0" d="M79.91,98.28V86.33h1.71c4.16,0,6.06,2.48,6.06,5.98c0,3.5-1.9,5.98-6.06,5.98H79.91z M76.05,101.67h5.76
	c5.79,0,9.86-3.83,9.86-9.37c0-5.54-4.1-9.37-9.86-9.37h-5.76V101.67z" fill="#FFFFFF"></path>
<path class="st0" d="M25.8,93.66v-7.33h1.21c3.09,0,4.52,1.05,4.52,3.69c0,2.64-1.38,3.64-4.52,3.64H25.8z M31.89,95.83
	c2.31-1.05,3.61-2.89,3.61-5.81c0-4.57-3.14-7.08-8.37-7.08h-5.18v18.73h3.86v-4.66h1.32c0.36,0,0.74-0.03,1.1-0.08l3.09,4.74h4.46
	L31.89,95.83z" fill="#FFFFFF"></path>
<path class="st0" d="M9.75,101.92c6.28,0,9.53-4.08,9.23-10.28h-8.76v3.36h4.68c-0.44,1.9-2.31,3.5-5.18,3.5
	c-3.44,0-5.76-2.7-5.76-6.2c0-3.5,2.31-6.12,5.73-6.12c2.12,0,3.58,0.96,4.57,2.56l3.03-2.15c-1.76-2.73-4.33-3.88-7.6-3.88
	c-5.4,0-9.7,4.05-9.7,9.59C0,97.84,4.1,101.92,9.75,101.92" fill="#FFFFFF"></path>
<g fill="#FFFFFF">
	<polygon class="st0" points="246.74,82.93 236.48,95.06 239.32,97.96 251.72,82.93 	" fill="#FFFFFF"></polygon>
	<polygon class="st0" points="214.15,86.33 214.15,82.93 202.76,82.93 202.76,101.68 214.15,101.68 214.15,98.29 206.62,98.29 
		206.62,95.62 214.15,95.62 214.15,92.23 206.62,92.23 206.62,86.33 	" fill="#FFFFFF"></polygon>
	<rect x="236.3" y="82.93" class="st0" width="3.86" height="18.75" fill="#FFFFFF"></rect>
	<polygon class="st0" points="241.04,94.19 246.99,101.68 252,101.68 243.79,91.34 	" fill="#FFFFFF"></polygon>
	<path class="st0" d="M190.28,82.93h-5.76v18.75h5.76c5.79,0,9.87-3.83,9.87-9.37C200.15,86.77,196.04,82.93,190.28,82.93z
		 M190.08,98.29h-1.71V86.33h1.71c4.16,0,6.07,2.48,6.07,5.98C196.15,95.81,194.25,98.29,190.08,98.29z" fill="#FFFFFF"></path>
	<path class="st0" d="M226.45,98.45c-3.42,0-5.73-2.63-5.73-6.13c0-3.5,2.31-6.13,5.73-6.13c2.12,0,3.58,0.96,4.57,2.56l3.03-2.15
		c-1.76-2.73-4.33-3.88-7.6-3.88c-5.4,0-9.7,4.06-9.7,9.6s4.3,9.6,9.7,9.6c3.28,0,5.84-1.16,7.6-3.88l-3.03-2.15
		C230.04,97.49,228.58,98.45,226.45,98.45z" fill="#FFFFFF"></path>
</g>
<path class="st0" d="M50.59,101.64h4.06l-8.59-18.95h-0.33l-8.26,18.95h3.73l0.98-2.3h7.41L50.59,101.64z M43.6,95.99l2.23-5.24
	l2.29,5.24H43.6z" fill="#FFFFFF"></path>
<polygon class="st0" points="68.53,82.94 68.53,93.47 57.12,82.77 56.73,82.77 56.73,101.68 60.34,101.68 60.34,91.12 71.75,101.85 
	72.14,101.85 72.14,82.94 " fill="#FFFFFF"></polygon>
<g fill="#FFFFFF">
	<polygon class="st0" points="166.31,82.94 162.45,82.94 162.45,101.69 173.83,101.69 173.83,98.3 166.31,98.3 	" fill="#FFFFFF"></polygon>
	<path class="st0" d="M128.59,82.69c-5.4,0-9.7,4.08-9.7,9.62c0,5.54,4.3,9.62,9.7,9.62c5.4,0,9.7-4.08,9.7-9.62
		C138.29,86.77,133.99,82.69,128.59,82.69z M128.59,98.48c-3.42,0-5.73-2.67-5.73-6.18c0-3.5,2.32-6.18,5.73-6.18
		c3.42,0,5.73,2.67,5.73,6.18C134.32,95.81,132.01,98.48,128.59,98.48z" fill="#FFFFFF"></path>
	<path class="st0" d="M150.01,82.69c-5.4,0-9.7,4.08-9.7,9.62c0,5.54,4.3,9.62,9.7,9.62c5.4,0,9.7-4.08,9.7-9.62
		C159.71,86.77,155.41,82.69,150.01,82.69z M150.01,98.49c-3.42,0-5.73-2.67-5.73-6.18c0-3.5,2.32-6.18,5.73-6.18
		c3.42,0,5.73,2.67,5.73,6.18C155.74,95.82,153.43,98.49,150.01,98.49z" fill="#FFFFFF"></path>
	<path class="st0" d="M107.43,93.66v-7.33h1.21c3.09,0,4.52,1.05,4.52,3.69c0,2.64-1.38,3.64-4.52,3.64H107.43z M117.12,90.02
		c0-4.57-3.14-7.08-8.37-7.08h-5.18v18.73h3.86v-4.66C114.61,97.02,117.12,94.08,117.12,90.02z" fill="#FFFFFF"></path>
</g>
</svg>