<svg version="1.1" xmlns="http://www.w3.org/2000/svg" xmlns:xlink="http://www.w3.org/1999/xlink" x="0px" y="0px" viewBox="0 0 432 144" style="enable-background:new 0 0 432 144;" xml:space="preserve" width="432"  height="144" >
<style type="text/css" fill="#FFFFFF">
	.st0{fill:#FFFFFF;}
</style>
<g id="Layer_1" fill="#FFFFFF">
	<path class="st0" d="M386.3,46.9h-9.28c-1.43,0-2.52,0.69-3.14,2.12l-4.76,11.38l-5.04-11.45c-0.62-1.43-1.71-2.05-3.14-2.05h-5.23
		c0.16,0.33,0.27,0.69,0.35,1.05c0.01,0,0.01,0.01,0,0.02c0.04,0.16,0.08,0.32,0.1,0.5c0.06,0.32,0.09,0.66,0.09,1.01
		c0,0.21,0,0.85-0.33,2.63l-0.69,4.18c-0.09,0.52-0.21,1.01-0.38,1.46c-0.42,1.19-1.04,2.08-1.76,2.74l7.29,13.95v19.08
		c0,2.25,1.16,3.41,3.41,3.41h10.23c2.25,0,3.4-1.16,3.4-3.41V74.44l11.86-22.56c0.48-0.89,0.69-1.63,0.69-2.32
		C389.98,47.92,388.62,46.9,386.3,46.9z" fill="#FFFFFF"></path>
	<path class="st0" d="M325.23,79.48v0.28l-0.01-0.01v0.01c0,1-0.08,1.97-0.21,2.9c-0.43,2.86-1.5,5.43-3.05,7.61
		c-3.41,4.79-9.19,7.75-15.89,7.75c-3.07,0-6.06-0.61-8.65-1.97c-1.23-0.61-1.91-1.64-1.91-2.86c0-0.38,0.17-1.27,0.35-1.94
		c1.4-2.07,2.38-4.45,2.95-7.09c0.3-0.12,0.62-0.18,0.99-0.18c0.89,0,2.38,0.54,3.82,0.54c0.98,0,1.58-0.42,1.9-1.03
		c0.25-0.39,0.37-0.86,0.37-1.37c0-0.15-0.01-0.31-0.03-0.46c0,0,0,0,0-0.01c-0.03-0.3-0.11-0.6-0.24-0.87
		c-0.11-0.24-0.26-0.46-0.47-0.64c-0.04-0.04-0.09-0.09-0.13-0.13c-0.29-0.26-0.59-0.54-0.86-0.82c-0.11-0.11-0.23-0.23-0.34-0.34
		c-0.02-0.02-0.04-0.04-0.07-0.07c-0.11-0.11-0.21-0.21-0.32-0.32c-0.29-0.31-0.58-0.63-0.85-0.95c-0.03-0.04-0.06-0.08-0.09-0.12
		c-0.12-0.15-0.25-0.3-0.36-0.45c0,0,0,0-0.01-0.01c-0.12-0.13-0.22-0.26-0.33-0.39c-0.12-0.15-0.23-0.3-0.34-0.45
		c-0.1-0.13-0.2-0.26-0.3-0.4c-0.02-0.03-0.05-0.06-0.08-0.1c-0.14-0.19-0.29-0.39-0.42-0.59c-0.19-0.27-0.38-0.54-0.54-0.82
		c-0.11-0.17-0.21-0.34-0.31-0.51c-0.01-0.02-0.02-0.03-0.03-0.06c-0.12-0.19-0.23-0.39-0.34-0.58V53.3
		c3.14-5.05,8.81-7.69,15.76-7.69c2.86,0,5.19,0.34,7.03,1.03c0.34,0.12,0.67,0.28,0.93,0.45c0.09,0.06,0.18,0.12,0.25,0.19
		c0.03,0.02,0.08,0.05,0.11,0.09c0.09,0.08,0.18,0.16,0.24,0.24c0.13,0.14,0.22,0.3,0.32,0.46c0.2,0.32,0.36,0.67,0.42,1.07
		c0.02,0.17,0.03,0.32,0.03,0.49c0,0.41-0.14,1.3-0.28,2.05l-0.08,0.45c-0.02,0.06-0.05,0.1-0.08,0.16
		c-0.02,0.04-0.06,0.09-0.07,0.13c-0.73,1.34-1.31,2.8-1.74,4.37c-0.14,0.53-0.27,1.06-0.38,1.62c-0.01,0.04-0.02,0.09-0.02,0.14
		c-0.33,0.14-0.71,0.22-1.12,0.22c-0.81,0-2.04-0.48-3.14-0.48c-1.03,0-1.71,0.54-2.02,1.24c-0.03,0.08-0.07,0.14-0.09,0.22
		c-0.04,0.13-0.08,0.27-0.1,0.41c-0.02,0.12-0.03,0.24-0.03,0.38c0,0.17,0.01,0.33,0.03,0.5c0.06,0.35,0.19,0.7,0.4,1
		c0.07,0.09,0.16,0.19,0.24,0.28l-0.01,0.02l0,0l0.01,0.01c0.14,0.16,0.29,0.31,0.43,0.47c0.25,0.27,0.51,0.54,0.76,0.82
		c0,0,0,0,0,0c0.34,0.36,0.67,0.73,1.01,1.09c0.06,0.07,0.13,0.14,0.19,0.21l0.01-0.01c0.05,0.05,0.1,0.1,0.14,0.16
		c0.06,0.06,0.11,0.12,0.17,0.18c3.39,3.75,6.32,7.7,6.46,13.74C325.23,79.17,325.23,79.32,325.23,79.48z" fill="#FFFFFF"></path>
	<path class="st0" d="M318.6,65.09c-0.05-0.05-0.1-0.11-0.14-0.16l0,0C318.5,64.98,318.55,65.03,318.6,65.09z" fill="#FFFFFF"></path>
	<path class="st0" d="M346.83,64.72c0,0-0.75-0.72-1.13-1.1c0,0,0,0,0,0c-0.03-0.04-0.08-0.08-0.11-0.12
		c-0.4-0.43-1.2-1.33-1.2-1.33c-0.18-0.17-0.31-0.37-0.42-0.57c0-0.01,0-0.02-0.01-0.02c-0.1-0.22-0.18-0.45-0.21-0.69
		c-0.02-0.16-0.03-0.32-0.03-0.5c0-0.12,0.01-0.24,0.03-0.38c0.02-0.13,0.06-0.27,0.1-0.41c0.28-0.8,0.98-1.46,2.12-1.46
		c1.09,0,2.32,0.48,3.14,0.48c0.1,0,0.2,0,0.3-0.01c0.43-0.04,0.81-0.18,1.14-0.41c0,0,0,0,0,0c0.2-0.13,0.39-0.31,0.55-0.52
		c0.09-0.12,0.18-0.24,0.25-0.39c0.02-0.03,0.03-0.06,0.04-0.08c0.01-0.02,0.02-0.03,0.02-0.04c0.08-0.16,0.16-0.32,0.21-0.5
		c0.06-0.14,0.12-0.31,0.15-0.48c0.03-0.1,0.06-0.21,0.08-0.32c0.01-0.06,0.02-0.12,0.03-0.18l0.68-4.16
		c0.14-0.75,0.28-1.64,0.28-2.05c0-0.17-0.01-0.33-0.03-0.49c-0.02-0.12-0.04-0.24-0.08-0.35c-0.16-0.6-0.5-1.12-1.01-1.51
		c-0.08-0.07-0.15-0.11-0.23-0.17c-0.01-0.01-0.02-0.03-0.04-0.03c-0.01-0.01-0.02-0.02-0.03-0.03c-0.01,0-0.01,0-0.01,0h-0.01
		c-0.07-0.06-0.13-0.09-0.2-0.11c-0.2-0.12-0.42-0.22-0.66-0.31c-0.41-0.15-0.83-0.29-1.29-0.38c0,0-0.01,0-0.01,0
		c-0.55-0.16-1.14-0.28-1.77-0.37c-1.19-0.18-2.49-0.27-3.96-0.27c-7,0-12.71,2.68-15.85,7.82c-1.22,2.01-2.05,4.39-2.4,7.13
		c-0.01,0.02-0.01,0.03-0.01,0.06c-0.14,1.03-0.21,2.08-0.21,3.19c0,1.12,0.14,2.24,0.39,3.36c0.19,0.85,0.44,1.72,0.78,2.56
		c0.06,0.16,0.12,0.31,0.18,0.47c0.08,0.21,0.17,0.42,0.25,0.63c1.54,3.51,4.06,6.79,6.86,9.32c0.04,0.03,0.08,0.08,0.1,0.11
		c0,0,0,0,0,0c0.22,0.21,0.36,0.46,0.45,0.74c0.24,0.42,0.33,0.93,0.33,1.43c0,1.16-0.61,2.25-2.18,2.25
		c-1.43,0-2.93-0.54-3.81-0.54c-0.34,0-0.65,0.06-0.94,0.17c-0.54,2.62-1.57,5.02-3.01,7.14c-0.18,0.66-0.34,1.54-0.34,1.91
		c0,1.22,0.69,2.25,1.91,2.86c2.59,1.36,5.6,1.97,8.67,1.97c10.76,0,19.15-7.64,19.15-18.26v-0.28c0-0.16,0-0.31-0.01-0.47
		C353.64,72.67,350.43,68.64,346.83,64.72z" fill="#FFFFFF"></path>
	<path class="st0" d="M318.45,64.93l-0.01,0.01c-0.06-0.07-0.13-0.14-0.19-0.21l0.01-0.01C318.32,64.79,318.39,64.86,318.45,64.93z" fill="#FFFFFF"></path>
	<path class="st0" d="M296.75,78.52v-2.9v-1.64v-1.93v-0.81V67.4v-0.27v-0.41v-6.7v-0.37v-0.28v-3.97v-1.25v-1.42v-1.96v-0.47
		c0-2.25-1.15-3.41-3.4-3.41h-10.23c-2.25,0-3.4,1.16-3.4,3.41v24.47c0,5.18-1.36,7.64-5.12,7.64c-3.75,0-5.11-2.46-5.11-7.64V50.31
		c0-2.25-1.15-3.41-3.4-3.41h-10.23c-2.25,0-3.41,1.16-3.41,3.41v3.06c3.49,4.31,5.55,10.07,5.55,15.48c0,6.52-2.29,11.3-5.05,14.69
		c1.82,8.68,8.7,14.47,21.65,14.47c9.24,0,15.39-2.97,18.8-7.81c1.55-2.16,2.54-4.71,3.01-7.52
		C296.64,81.35,296.75,79.97,296.75,78.52z" fill="#FFFFFF"></path>
	<path class="st0" d="M251.81,57.59c-0.35-0.62-0.75-1.24-1.2-1.83c0,0,0,0,0-0.01c-0.36-0.52-0.77-1.03-1.2-1.51
		c-3.68-4.22-9.36-7.35-17.55-7.35h-13.71c-2.25,0-3.4,1.16-3.4,3.41v4.33c1.84,2.55,3.29,5.4,4.23,8.47
		c0.24,0.75,0.45,1.53,0.63,2.32c0.06,0.27,0.11,0.52,0.17,0.79v0.01c0.18,0.91,0.32,1.82,0.41,2.75c0.08,0.78,0.13,1.55,0.13,2.35
		c0,0,0,0,0,0.01h0.02v0.56c0,0.03,0,0.07,0,0.1v0.03c0,0.04,0,0.07,0,0.1v1.57h-0.05c0,0,0,0,0,0c-0.34,5.76-2.35,11.08-5.54,15.48
		v4.34c0,2.25,1.15,3.41,3.4,3.41h10.9c2.25,0,3.41-1.16,3.41-3.41v-2.58c5.34-0.24,12.49-2.76,17.28-8.09
		c0.37-0.4,0.71-0.82,1.04-1.25v-0.01c0-0.01,0.01-0.01,0.01-0.02c0.38-0.48,0.73-0.98,1.06-1.51c1.92-3.03,3.1-6.75,3.1-11.2
		C254.96,65.43,254,61.33,251.81,57.59z M231.85,76.82V62.78c3.2,0,6.75,2.05,6.75,7.64C238.6,74.24,234.91,76.82,231.85,76.82z" fill="#FFFFFF"></path>
	<path class="st0" d="M217.15,72.31v-0.99c0-0.04-0.01-0.08-0.01-0.12c-0.01-0.59-0.06-1.16-0.1-1.73
		c-0.01-0.04-0.01-0.09-0.01-0.14c-0.08-0.73-0.18-1.46-0.32-2.17c-0.01-0.04-0.02-0.09-0.03-0.13c-0.01-0.07-0.02-0.14-0.03-0.22
		c0-0.02,0-0.04-0.01-0.07c-0.01-0.11-0.03-0.23-0.07-0.34c-0.04-0.23-0.1-0.45-0.17-0.68c-0.03-0.12-0.06-0.23-0.09-0.34
		c-0.06-0.23-0.12-0.45-0.2-0.69c-0.01-0.04-0.02-0.09-0.03-0.13c-0.01-0.02-0.01-0.04-0.02-0.08c-0.01-0.02-0.02-0.06-0.02-0.08
		c-0.08-0.25-0.16-0.51-0.24-0.75c-0.04-0.12-0.09-0.24-0.13-0.35c-0.06-0.16-0.12-0.32-0.19-0.48c-0.03-0.1-0.07-0.2-0.1-0.29
		c-0.04-0.12-0.09-0.24-0.13-0.35c-0.03-0.08-0.07-0.14-0.1-0.21c-0.01-0.02-0.01-0.04-0.02-0.07c-0.04-0.11-0.09-0.22-0.13-0.32
		c-0.04-0.12-0.1-0.25-0.17-0.39c-0.03-0.08-0.07-0.16-0.1-0.23l-0.2-0.4c-0.03-0.07-0.07-0.14-0.11-0.21
		c-0.01,0-0.01-0.01-0.01-0.02c-0.09-0.17-0.19-0.34-0.28-0.52c-0.11-0.21-0.22-0.43-0.34-0.65c-0.19-0.32-0.37-0.62-0.56-0.93
		c-0.01-0.01-0.01-0.03-0.02-0.04c-0.08-0.12-0.16-0.23-0.23-0.35c-0.12-0.18-0.24-0.37-0.37-0.55c0-0.02-0.01-0.03-0.02-0.04
		c0-0.01,0-0.01,0-0.01c-0.16-0.22-0.33-0.42-0.49-0.64c-0.19-0.24-0.37-0.49-0.55-0.73c-0.11-0.13-0.2-0.28-0.31-0.41
		c-0.14-0.17-0.29-0.34-0.44-0.51c-0.07-0.08-0.14-0.14-0.22-0.23c-0.2-0.22-0.41-0.45-0.62-0.68c-0.11-0.11-0.22-0.24-0.33-0.37
		c-0.32-0.33-0.65-0.65-1-0.96c-0.23-0.21-0.48-0.42-0.72-0.62c-0.16-0.13-0.31-0.27-0.47-0.39c-0.07-0.06-0.14-0.11-0.21-0.17
		c-0.07-0.06-0.14-0.1-0.21-0.16c-0.16-0.12-0.31-0.23-0.48-0.35c-0.12-0.09-0.24-0.19-0.38-0.29c-0.2-0.14-0.4-0.28-0.6-0.41
		c-0.1-0.07-0.21-0.12-0.31-0.19c-0.27-0.18-0.54-0.34-0.81-0.51c-0.11-0.06-0.21-0.13-0.32-0.2c-0.15-0.09-0.31-0.18-0.47-0.28
		c-0.2-0.1-0.4-0.19-0.59-0.29c-0.17-0.09-0.34-0.18-0.51-0.27c-0.63-0.31-1.26-0.6-1.91-0.85c-0.01,0-0.01-0.01-0.02-0.01
		c-0.02-0.01-0.04-0.02-0.07-0.03c-0.35-0.13-0.7-0.27-1.05-0.38c-0.33-0.12-0.66-0.22-1-0.31c-0.06-0.02-0.12-0.04-0.18-0.07
		c-0.01,0-0.02,0-0.03-0.01c-0.35-0.11-0.73-0.2-1.1-0.29c-0.4-0.1-0.79-0.19-1.2-0.27c-0.32-0.06-0.65-0.11-0.99-0.17
		c-0.23-0.03-0.47-0.07-0.7-0.09c-0.16-0.02-0.3-0.03-0.45-0.04c-0.15-0.02-0.31-0.04-0.48-0.06c-0.03-0.01-0.06-0.01-0.08-0.01
		c-0.33-0.03-0.65-0.06-0.98-0.07c-0.42-0.02-0.84-0.03-1.26-0.03c-0.49,0-0.96,0.01-1.45,0.04c-0.33,0.01-0.66,0.04-1,0.08h-0.06
		c-0.02,0.01-0.06,0.01-0.08,0.01c-0.58,0.06-1.15,0.13-1.73,0.23c-0.11,0.02-0.21,0.04-0.32,0.07c-0.19,0.03-0.39,0.07-0.58,0.11
		c-0.11,0.02-0.21,0.03-0.32,0.06c-0.3,0.07-0.6,0.13-0.89,0.21c-0.12,0.03-0.23,0.08-0.35,0.11c-0.39,0.1-0.76,0.21-1.13,0.33
		c-0.18,0.06-0.35,0.1-0.53,0.16c-0.39,0.12-0.76,0.27-1.13,0.41c-0.65,0.25-1.3,0.54-1.93,0.86c-0.03,0.02-0.06,0.03-0.09,0.04
		c-0.1,0.06-0.2,0.11-0.3,0.16c-0.09,0.04-0.18,0.09-0.27,0.13c-0.27,0.13-0.52,0.28-0.78,0.42c-0.18,0.1-0.34,0.22-0.51,0.32
		c-0.23,0.14-0.47,0.29-0.7,0.43c-0.16,0.11-0.32,0.2-0.48,0.3c-0.22,0.14-0.43,0.3-0.64,0.45c-0.1,0.08-0.2,0.16-0.3,0.22
		c-0.12,0.1-0.23,0.19-0.35,0.28c-0.11,0.08-0.21,0.16-0.31,0.23c-0.21,0.16-0.41,0.32-0.62,0.5c-0.23,0.2-0.47,0.41-0.7,0.62
		l-0.01,0.01c-0.06,0.06-0.12,0.11-0.18,0.16l-0.1,0.1c-0.2,0.18-0.39,0.37-0.58,0.55c-0.21,0.21-0.4,0.42-0.59,0.63
		c-0.11,0.11-0.22,0.22-0.32,0.33c-0.02,0.02-0.04,0.04-0.06,0.06c-0.32,0.34-0.62,0.7-0.91,1.06c0,0.01,0,0.01-0.01,0.01
		l-0.01,0.01c-0.1,0.12-0.19,0.24-0.28,0.37c-0.09,0.11-0.18,0.21-0.25,0.32c-0.06,0.07-0.11,0.13-0.16,0.2
		c-0.31,0.43-0.62,0.88-0.91,1.32c-0.09,0.16-0.2,0.3-0.29,0.45c-0.01,0.02-0.02,0.03-0.03,0.06c-0.16,0.23-0.3,0.48-0.43,0.72
		c-0.17,0.28-0.32,0.55-0.47,0.84c-0.01,0.02-0.02,0.04-0.03,0.07c-0.02,0.03-0.04,0.07-0.07,0.11c-0.02,0.06-0.06,0.12-0.09,0.19
		c-0.03,0.06-0.06,0.12-0.09,0.19c-0.04,0.1-0.1,0.19-0.14,0.29c-0.04,0.07-0.08,0.14-0.11,0.21c-0.12,0.29-0.25,0.55-0.37,0.84
		c-0.02,0.04-0.03,0.1-0.06,0.14c-0.01,0.02-0.02,0.03-0.02,0.06c-0.11,0.27-0.22,0.53-0.32,0.8c-0.01,0.03-0.02,0.07-0.03,0.1
		c-0.1,0.25-0.2,0.51-0.27,0.75c0,0.01,0,0.01,0,0.01c-0.01,0-0.01,0.01-0.01,0.01l-0.01,0.01c-0.03,0.06-0.04,0.12-0.07,0.18
		c-0.01,0.01-0.01,0.03-0.02,0.04c-0.02,0.07-0.04,0.13-0.07,0.21c-0.04,0.14-0.09,0.29-0.14,0.44c0,0,0,0.01,0,0.02
		c-0.1,0.33-0.19,0.66-0.27,1.01c-0.02,0.07-0.04,0.13-0.06,0.21c-0.02,0.07-0.03,0.13-0.06,0.2c-0.01,0.09-0.03,0.18-0.06,0.27
		c-0.01,0.06-0.03,0.11-0.03,0.17c-0.01,0.02-0.01,0.04-0.02,0.06c-0.01,0.03-0.01,0.07-0.01,0.09c-0.02,0.09-0.04,0.18-0.07,0.27
		c0,0.02,0,0.03-0.01,0.06c-0.01,0.08-0.02,0.16-0.03,0.22c-0.14,0.7-0.24,1.41-0.32,2.12c0,0.04-0.01,0.08-0.01,0.12
		c-0.06,0.48-0.09,0.95-0.11,1.43c-0.02,0.41-0.03,0.82-0.03,1.23c0,0.27,0.02,0.53,0.03,0.79c0.01,0.31,0.01,0.62,0.03,0.92
		c0.03,0.58,0.1,1.15,0.18,1.71c0.1,0.73,0.23,1.46,0.4,2.17c1.66,0.35,3.05,1.56,3.9,3.44c0.09,0.2,0.21,0.47,0.32,0.79l2.29,6.84
		l0.5,1.48l0.01,0.06l0.01,0.04l0.07,0.21c4.71,4.7,11.21,7.6,18.36,7.6c8.91,0,16.8-4.5,21.51-11.35c0.43-0.62,0.84-1.26,1.21-1.93
		c0.44-0.78,0.85-1.58,1.21-2.42c0.96-2.17,1.63-4.5,1.95-6.94c0.08-0.57,0.13-1.13,0.17-1.71c0.02-0.28,0.03-0.55,0.06-0.83v-0.01
		c0-0.28,0.01-0.54,0.01-0.82C217.16,72.12,217.15,72.21,217.15,72.31z M199.98,73.67v0.01c-0.07,0.43-0.18,0.84-0.3,1.25
		c-0.04,0.13-0.08,0.28-0.12,0.4c-1.27,3.8-4.61,6.54-8.5,6.54c-3.87,0-7.23-2.73-8.5-6.52v-0.01c-0.09-0.24-0.17-0.5-0.23-0.75
		c0-0.02-0.01-0.04-0.02-0.08c-0.07-0.27-0.12-0.54-0.17-0.83c-0.09-0.54-0.14-1.11-0.14-1.7c0-0.33,0.01-0.68,0.04-1.01
		c0.06-0.62,0.17-1.22,0.31-1.8c0.1-0.37,0.22-0.7,0.35-1.04c0.04-0.12,0.09-0.25,0.14-0.38c0.02-0.02,0.03-0.06,0.04-0.09
		c0.11-0.27,0.24-0.52,0.38-0.78c0.07-0.11,0.13-0.23,0.2-0.34c0.02-0.03,0.04-0.07,0.07-0.11c1.64-2.65,4.41-4.41,7.52-4.41
		c3.34,0,6.26,2.02,7.85,4.98c0.06,0.1,0.1,0.2,0.16,0.3c0.06,0.1,0.1,0.21,0.14,0.31c0.06,0.12,0.11,0.25,0.17,0.39
		c0.06,0.12,0.1,0.25,0.14,0.39c0.02,0.06,0.04,0.11,0.07,0.18c0.03,0.11,0.07,0.23,0.1,0.34c0.06,0.18,0.1,0.37,0.14,0.54
		c0.03,0.17,0.08,0.33,0.11,0.49c0.04,0.25,0.08,0.51,0.11,0.78c0.01,0.09,0.02,0.17,0.03,0.25c0.03,0.32,0.04,0.66,0.04,1.01
		C200.12,72.56,200.07,73.13,199.98,73.67z" fill="#FFFFFF"></path>
	<g fill="#FFFFFF">
		<path class="st0" d="M169.98,91c0.2,0.68,0.41,1.3,0.41,1.84c0,0.06,0,0.12-0.01,0.18c-0.07,1.07-0.74,1.96-2.04,2.55
			c-3.34,1.56-7.23,2.45-11.1,2.45c-10.24,0-17.77-4.48-22.04-11.26c0.73-2.17,1.12-4.53,1.12-7c0-5.62-2.03-9.75-4.62-13.21
			c2.5-11.77,13.07-20.73,25.54-20.73c4.22,0,8.38,1.02,11.92,2.93c0.82,0.45,1.4,1.01,1.68,1.63c0.01,0.02,0.02,0.03,0.02,0.06
			c-3.77,3.51-6.62,7.99-8.14,13.03h-0.01c-1.34-0.4-2.64-1.48-5.47-1.48c-4.98,0-9.06,4.49-9.06,9.94c0,5.46,4.09,9.95,9.06,9.95
			c3.03,0,4.33-0.76,5.54-1.25c0.53-0.21,1.04-0.37,1.67-0.38h0.08c1.06,0,1.88,0.68,2.44,1.89c0.08,0.18,0.15,0.35,0.22,0.55
			l2.29,6.84L169.98,91z" fill="#FFFFFF"></path>
	</g>
	<path class="st0" d="M99.06,46.9H88.83c-2.25,0-3.4,1.16-3.4,3.41v6.12c2.7,4.19,4.26,9.12,4.26,14.39s-1.55,10.21-4.26,14.39v8.3
		c-0.01,2.25,1.15,3.41,3.4,3.41h10.23c0.73,0,1.35-0.12,1.84-0.37c0.55-0.28,0.96-0.69,1.23-1.26c0,0,0,0,0-0.01
		c0.22-0.48,0.33-1.07,0.33-1.77V89.2v-5.66V71.22V55.36v-0.01v-5.04C102.46,48.06,101.31,46.9,99.06,46.9z" fill="#FFFFFF"></path>
	<path class="st0" d="M86.47,70.82c0-3.26-0.65-6.37-1.84-9.23c-0.35-0.85-0.75-1.68-1.21-2.48c-0.37-0.68-0.77-1.33-1.21-1.96
		c-4.67-6.84-12.71-11.34-21.84-11.34H46.74c-2.25,0-3.41,1.15-3.41,3.4v43.22c0,2.25,1.09,3.4,3.34,3.4h13.71
		c9.13,0,17.19-4.51,21.84-11.34c0.44-0.63,0.84-1.29,1.21-1.95c0.45-0.81,0.86-1.64,1.21-2.49C85.82,77.19,86.47,74.08,86.47,70.82
		z M60.37,80.77v-19.9c4.98,0,9.06,4.5,9.06,9.95S65.35,80.77,60.37,80.77z" fill="#FFFFFF"></path>
	<path class="st0" d="M133.11,78.56c-0.01-0.22-0.03-0.44-0.06-0.66c0-0.07-0.02-0.12-0.02-0.19c-0.04-0.39-0.09-0.76-0.15-1.14
		c-0.01-0.03-0.01-0.07-0.02-0.11c0-0.04-0.01-0.08-0.02-0.12c-0.01-0.04-0.01-0.1-0.02-0.14c0-0.01-0.01-0.02-0.01-0.04
		c-0.11-0.6-0.27-1.19-0.45-1.75c0,0,0-0.01,0-0.02c-0.04-0.13-0.09-0.27-0.14-0.41c-0.06-0.18-0.12-0.37-0.2-0.54
		c-0.02-0.06-0.04-0.11-0.07-0.18c-0.03-0.08-0.07-0.16-0.1-0.23c-0.03-0.07-0.06-0.14-0.09-0.21c-0.12-0.29-0.25-0.57-0.39-0.83
		c0-0.01,0-0.01,0-0.01c-0.03-0.08-0.08-0.16-0.12-0.24c-0.13-0.25-0.26-0.5-0.41-0.75c-0.08-0.14-0.17-0.3-0.25-0.44
		c-0.09-0.16-0.2-0.31-0.3-0.47c-0.02-0.03-0.03-0.06-0.04-0.09c-0.04-0.07-0.09-0.12-0.13-0.19c-0.13-0.2-0.27-0.39-0.4-0.59
		c-0.12-0.19-0.27-0.38-0.41-0.57c-0.04-0.06-0.08-0.11-0.12-0.17c0-0.01-0.01-0.01-0.01-0.01c0-0.01,0-0.01,0-0.01s0,0-0.01-0.01
		c-0.06-0.07-0.11-0.13-0.17-0.2c-0.12-0.17-0.23-0.33-0.38-0.49c-0.11-0.14-0.23-0.3-0.35-0.44c-0.09-0.11-0.19-0.22-0.28-0.32
		c-0.55-0.66-1.11-1.3-1.7-1.94v-0.01h-0.01c-0.28-0.3-0.56-0.61-0.84-0.91c-0.07-0.09-0.16-0.17-0.23-0.25
		c-0.01-0.02-0.03-0.03-0.06-0.06c-0.02-0.02-0.04-0.04-0.07-0.07v-0.01c-0.37-0.4-0.73-0.79-1.1-1.19l-0.1-0.1v-0.01h-0.01
		l0.01-0.02c-0.17-0.17-0.31-0.37-0.42-0.57c0-0.01,0-0.02,0-0.02c-0.02-0.06-0.06-0.11-0.07-0.17c-0.08-0.17-0.12-0.34-0.16-0.52
		v-0.03c-0.01-0.14-0.03-0.3-0.03-0.47c0-0.12,0.02-0.24,0.03-0.38c0.02-0.08,0.03-0.14,0.06-0.22c0.01-0.07,0.03-0.12,0.06-0.19
		c0.28-0.8,0.96-1.46,2.11-1.46c0.52,0,1.06,0.11,1.58,0.21c0.06,0.02,0.11,0.03,0.17,0.04c0.52,0.11,1,0.22,1.39,0.22
		c0.11,0,0.2,0,0.3-0.01c0.08-0.01,0.16-0.02,0.22-0.04c0.08-0.01,0.17-0.03,0.24-0.06c0.08-0.02,0.15-0.06,0.23-0.08
		c0.15-0.06,0.31-0.13,0.45-0.23c0.07-0.04,0.12-0.09,0.18-0.14c0.06-0.06,0.12-0.11,0.18-0.17c0.08-0.07,0.14-0.13,0.2-0.21
		c0.04-0.06,0.08-0.11,0.11-0.17c0.01-0.01,0.02-0.03,0.03-0.06c0.04-0.06,0.08-0.11,0.11-0.17c0.02-0.03,0.02-0.06,0.04-0.08
		c0-0.02,0.02-0.03,0.02-0.04c0.03-0.08,0.07-0.16,0.11-0.24c0,0,0,0,0-0.01c0.04-0.08,0.08-0.16,0.1-0.24
		c0.02-0.07,0.06-0.16,0.08-0.23c0,0,0,0,0-0.01c0.02-0.08,0.06-0.16,0.07-0.23c0.03-0.1,0.06-0.21,0.08-0.32V56.1
		c0.01-0.06,0.02-0.11,0.03-0.17v-0.01l0.69-4.14c0.14-0.75,0.28-1.64,0.28-2.05c0-0.16-0.02-0.32-0.04-0.47c0-0.01,0-0.01,0-0.02
		c0-0.02-0.01-0.03-0.01-0.06c-0.02-0.1-0.03-0.21-0.06-0.3c-0.01-0.02-0.01-0.06-0.03-0.08c-0.04-0.14-0.09-0.27-0.14-0.39
		c-0.06-0.13-0.13-0.25-0.21-0.38c-0.09-0.14-0.2-0.27-0.31-0.39c-0.1-0.1-0.21-0.19-0.32-0.28c-0.08-0.08-0.15-0.14-0.24-0.19
		c-0.01-0.01-0.02-0.01-0.03-0.01c0,0,0-0.01-0.01-0.02c-0.01,0-0.01,0-0.01-0.01c-0.02,0-0.02,0-0.02,0
		c-0.03-0.03-0.07-0.06-0.11-0.07c-0.13-0.09-0.27-0.16-0.41-0.21c-0.11-0.07-0.23-0.11-0.35-0.16c-0.2-0.08-0.41-0.14-0.62-0.2
		c-0.21-0.07-0.43-0.13-0.66-0.18c0,0,0,0-0.01,0c-0.28-0.08-0.55-0.14-0.85-0.21c-0.3-0.06-0.6-0.11-0.92-0.16
		c-0.3-0.04-0.6-0.08-0.91-0.12c-0.94-0.1-1.95-0.16-3.05-0.16c-1.75,0-3.41,0.17-4.98,0.51c-0.79,0.14-1.55,0.35-2.28,0.62
		c-0.37,0.12-0.72,0.25-1.08,0.4c-3.16,1.27-5.72,3.38-7.47,6.25c-0.01,0.02-0.02,0.03-0.03,0.05c-0.16,0.25-0.3,0.51-0.44,0.76
		c-0.12,0.2-0.22,0.4-0.32,0.61c-0.17,0.34-0.31,0.69-0.44,1.04c-0.13,0.3-0.24,0.61-0.35,0.93c-0.09,0.28-0.18,0.57-0.24,0.85
		c-0.09,0.31-0.17,0.62-0.24,0.94c-0.06,0.2-0.1,0.4-0.14,0.6v0.11c-0.09,0.41-0.16,0.84-0.21,1.27c-0.02,0.02-0.02,0.03-0.02,0.06
		c-0.13,1.03-0.2,2.08-0.2,3.19c0,1.12,0.13,2.24,0.39,3.36c0.01,0.07,0.03,0.12,0.04,0.19c0,0.01,0,0.01,0,0.02v0.01
		c0.03,0.14,0.07,0.28,0.11,0.42c0.02,0.09,0.04,0.19,0.08,0.28c0.06,0.21,0.12,0.43,0.19,0.64c0.1,0.33,0.22,0.66,0.34,1
		c0.07,0.14,0.12,0.3,0.17,0.44c0.01,0.01,0.01,0.01,0.01,0.02c0.08,0.21,0.17,0.42,0.25,0.63c0.1,0.22,0.2,0.44,0.3,0.65
		c0.04,0.08,0.08,0.17,0.12,0.24c0.06,0.11,0.11,0.22,0.17,0.33c0.04,0.08,0.09,0.17,0.13,0.24c0.02,0.06,0.06,0.11,0.09,0.17
		c0.01,0.03,0.03,0.07,0.06,0.1c0,0,0,0,0,0.01c0.01,0.02,0.02,0.03,0.02,0.06c0.02,0.02,0.03,0.04,0.04,0.07
		c0.01,0.02,0.02,0.04,0.04,0.08c0.12,0.22,0.24,0.43,0.38,0.65c0.24,0.41,0.5,0.82,0.76,1.22c0.04,0.07,0.09,0.13,0.12,0.19
		c0.04,0.06,0.07,0.11,0.11,0.17c0.06,0.09,0.11,0.17,0.19,0.25c0.1,0.16,0.22,0.31,0.34,0.47c0.02,0.04,0.06,0.09,0.09,0.13
		c0.27,0.35,0.54,0.71,0.82,1.05c0.04,0.06,0.09,0.11,0.14,0.17c0,0.02,0.01,0.03,0.03,0.04c0.02,0.03,0.06,0.08,0.09,0.11
		c0.04,0.06,0.1,0.12,0.15,0.18c0,0.01,0.02,0.03,0.04,0.04c0.01,0.01,0.01,0.02,0.01,0.03c0.01,0,0.01,0.01,0.01,0.01
		c0.02,0.02,0.06,0.06,0.08,0.08c0.37,0.44,0.76,0.86,1.17,1.27c0.24,0.27,0.51,0.52,0.78,0.76c0.18,0.19,0.37,0.37,0.55,0.53
		c0.02,0.01,0.04,0.03,0.07,0.06c0.01,0.02,0.03,0.04,0.03,0.06c0.01,0,0.01,0,0.01,0c0.06,0.06,0.11,0.11,0.16,0.17
		c0.03,0.04,0.07,0.09,0.1,0.13c0.02,0.06,0.06,0.1,0.08,0.16c0.03,0.07,0.06,0.14,0.09,0.22c0.01,0.02,0.01,0.04,0.02,0.07
		c0.08,0.2,0.13,0.42,0.16,0.64c0.02,0.14,0.03,0.3,0.03,0.47c0,0.33-0.07,0.63-0.17,0.93c-0.06,0.16-0.11,0.31-0.2,0.44
		c-0.33,0.52-0.91,0.88-1.81,0.88c-1.43,0-2.94-0.54-3.82-0.54c-0.35,0-0.68,0.07-0.98,0.18c0,0.01-0.01,0.01-0.01,0.01
		c-0.13,0.06-0.27,0.12-0.39,0.2c-0.02,0.02-0.06,0.04-0.08,0.06c-0.1,0.07-0.19,0.14-0.28,0.22c-0.01,0.01-0.03,0.02-0.04,0.03
		c-0.02,0.03-0.06,0.07-0.08,0.1c-0.06,0.07-0.12,0.13-0.18,0.2c-0.02,0.03-0.06,0.06-0.08,0.09c-0.03,0.06-0.06,0.1-0.09,0.16
		c-0.03,0.06-0.07,0.1-0.09,0.16c-0.02,0.03-0.04,0.07-0.07,0.1c-0.02,0.04-0.03,0.09-0.06,0.13c-0.04,0.1-0.09,0.19-0.12,0.3
		c-0.01,0.02-0.03,0.06-0.04,0.08c-0.02,0.06-0.04,0.1-0.06,0.14c-0.01,0.02-0.02,0.04-0.02,0.07c-0.01,0.03-0.01,0.07-0.02,0.09
		c-0.03,0.1-0.06,0.19-0.09,0.3v3.29v3.63c0,0.76-0.1,1.47-0.3,2.11c0.01,0.01,0.02,0.01,0.03,0.02c0.19,0.14,0.41,0.29,0.64,0.41
		c1.35,0.71,2.83,1.21,4.36,1.54c1.4,0.29,2.84,0.43,4.3,0.43c0.67,0,1.31-0.03,1.95-0.09c0.14-0.01,0.29-0.03,0.43-0.06
		c0.44-0.04,0.89-0.09,1.31-0.17c0.07-0.01,0.12-0.02,0.19-0.03c0.03-0.01,0.08-0.01,0.11-0.02c0.11-0.02,0.22-0.04,0.32-0.07
		c0.25-0.04,0.5-0.1,0.75-0.17c0.14-0.02,0.28-0.08,0.41-0.11c0.18-0.04,0.35-0.09,0.52-0.13c0.12-0.04,0.24-0.07,0.37-0.11
		c0.14-0.04,0.29-0.1,0.43-0.14c0.14-0.04,0.27-0.1,0.41-0.14c0.21-0.08,0.41-0.16,0.62-0.24c0.11-0.04,0.23-0.08,0.34-0.13
		c0.22-0.09,0.44-0.19,0.67-0.3c0.08-0.03,0.14-0.07,0.22-0.1c0.11-0.06,0.22-0.12,0.34-0.18c0.11-0.06,0.23-0.11,0.34-0.18
		c0.34-0.17,0.66-0.35,0.99-0.57c0.02-0.01,0.04-0.02,0.07-0.04c0.01,0,0.02-0.01,0.03-0.02c0.18-0.1,0.35-0.21,0.53-0.34
		c0.31-0.21,0.61-0.42,0.91-0.65c0.23-0.18,0.47-0.35,0.69-0.55c0.13-0.1,0.23-0.22,0.35-0.33c0.2-0.18,0.39-0.35,0.58-0.54
		c0.12-0.11,0.25-0.22,0.37-0.34c0.2-0.2,0.41-0.42,0.6-0.65c0.2-0.23,0.4-0.47,0.6-0.72c0.17-0.2,0.32-0.41,0.47-0.63
		c0-0.01,0.01-0.02,0.02-0.04c0.02-0.02,0.03-0.04,0.04-0.07c0.31-0.44,0.6-0.9,0.86-1.36c0.04-0.08,0.08-0.14,0.11-0.21
		c0.14-0.25,0.29-0.51,0.41-0.78c0.1-0.21,0.2-0.43,0.3-0.66c0.01-0.01,0.01-0.02,0.02-0.03c0.02-0.06,0.04-0.11,0.07-0.17
		c0.14-0.33,0.28-0.68,0.4-1.03v-0.01c0,0-0.01-0.01-0.01-0.02c0.04-0.13,0.1-0.25,0.14-0.38c0.01-0.07,0.03-0.12,0.06-0.19
		c0.12-0.39,0.21-0.8,0.31-1.21c0.03-0.13,0.07-0.25,0.1-0.39c0.01-0.07,0.02-0.13,0.04-0.19c0.11-0.55,0.19-1.12,0.25-1.7
		c0.08-0.68,0.11-1.35,0.11-2.06C133.15,79.29,133.13,78.92,133.11,78.56z" fill="#FFFFFF"></path>
</g>
<g id="Layer_2" fill="#FFFFFF">
</g>
<g id="Layer_3" fill="#FFFFFF">
</g>
</svg>