<svg xmlns:xlink="http://www.w3.org/1999/xlink" xmlns="http://www.w3.org/2000/svg" width="289" height="184" viewBox="0 0 289 184">
  
<defs>
    <style>
      .cls-1 {
        fill-rule: evenodd;
      }
    </style>
  </defs>
  <path id="Downtown_LV" data-name="Downtown LV" class="cls-1" d="M270.512,82.564a4.847,4.847,0,0,0-2.5-3c-1.644-.746-3.478-0.461-5.211-0.352-0.3.019-.583,0.109-0.869,0.12-0.235.009-.508-0.087-0.752-0.093a3.223,3.223,0,0,0-.92-0.123,2.067,2.067,0,0,0-.318.607,2.1,2.1,0,0,0,.143-0.591,1.067,1.067,0,0,0-.43-0.531,2.463,2.463,0,0,1-.583-1.027,9.672,9.672,0,0,1-.214-2.728c0.014-1.246.178-2.514,0.269-3.758,0.249-3.384.526-6.767,0.743-10.154s1.033-7.075-.749-10.189c-1.813-3.167-6.107-3.9-9.362-2.926a10.073,10.073,0,0,0-1.335.5,2.85,2.85,0,0,1-.675.34,4.176,4.176,0,0,1-.513-0.287,2.745,2.745,0,0,0-2.405.394c-1.3.874-1.076,2.7-1.181,4.079-0.241,3.155-.452,6.313-0.7,9.468-0.293,3.787-.611,7.571-0.886,11.358a20.767,20.767,0,0,1-.893,6.078,5.335,5.335,0,0,1-1.813,2.325,10.5,10.5,0,0,1-1.27.551,7.476,7.476,0,0,1-1.791.191,3.463,3.463,0,0,1-2.106-.623,0.4,0.4,0,0,1,.071.15c-0.112-.281-0.382-0.534-0.508-0.794a2.948,2.948,0,0,1-.312-0.912,10.287,10.287,0,0,1-.132-1.716c0.045-1.351.2-2.706,0.3-4.055,0.33-4.327.637-8.656,0.952-12.984q0.264-3.617.527-7.234c0.11-1.491.466-3.864-1.365-4.475a2.872,2.872,0,0,0-3,.938,3.551,3.551,0,0,0-.421,1.967c-0.46,6.985-.938,13.97-1.489,20.949a45.528,45.528,0,0,1-.76,6.686c-0.272,1.169-.685,2.667-1.748,3.346a4.593,4.593,0,0,1-3.561.267c-1.254-.4-1.418-1.91-1.484-3.055a19.09,19.09,0,0,1,.162-2.658c0.11-1.314.212-2.63,0.314-3.945,0.356-4.62.626-9.25,1.035-13.865,0.1-1.143.185-2.287,0.261-3.432a25.967,25.967,0,0,0,.171-3.2,2.352,2.352,0,0,0-1.84-2.32,2.716,2.716,0,0,0-2.815,1.325,4.824,4.824,0,0,0-.247,1.673c-0.045.613-.088,1.226-0.135,1.84-0.139,1.818-.3,3.635-0.434,5.454-0.208,2.807-.377,5.618-0.558,8.427a99.611,99.611,0,0,1-1.1,11.382c-0.233,1.282-.648,3.254-1.934,3.89a5.03,5.03,0,0,1-3.307.253c-2.472-.731-1.572-4.663-1.421-6.588Q210.253,68.976,211,58.443a8.153,8.153,0,0,0-.054-3.455c-0.929-2.3-4.4-1.551-4.634.788-0.113,1.153-.17,2.316-0.263,3.471-0.1,1.222-.327,2.422-0.536,3.638a6.768,6.768,0,0,1-2.153,4.49c-1.185.942-2.983,1.057-4.446,1.27,0.385-4.711,1.272-12.311-4.958-13.5a10.047,10.047,0,0,0-8.419,2.533c-1.819,1.776-2.559,4.327-2.95,6.774-0.566,3.537-.621,7.2-0.874,10.769q-0.177,2.489-.4,4.974c-0.133,1.5-.243,2.993-0.362,4.49a11.57,11.57,0,0,1-.981,4.277,4.337,4.337,0,0,1-2.226,2.191,6.242,6.242,0,0,1-3.651.6,1.885,1.885,0,0,1-1.562-1.421,7.911,7.911,0,0,1-.256-3.146c0.585-6.2.912-12.438,1.339-18.656q0.634-9.22,1.268-18.439l0.09-1.3a2.792,2.792,0,0,1,.052-0.756c0.175-.415,1.179-0.322,1.639-0.389l4.891-.709q9.763-1.414,19.528-2.825,17.465-2.523,34.93-5.038,11.6-1.671,23.2-3.338c2.23-.321,4.48-0.583,6.7-0.965a2.681,2.681,0,0,0,2.224-1.793,2.418,2.418,0,0,0-1.83-2.929,6.856,6.856,0,0,0-2.256.2c-5.872.875-11.748,1.721-17.624,2.575q-13.953,2.026-27.907,4.044L193.349,40.5l-16.515,2.387-1.564.226c0.262-3.026.364-6.027-1-8.832a6.72,6.72,0,0,0-6.892-3.71c-1.387.138-2.82,1.183-2.594,2.74a2.379,2.379,0,0,0,.977,1.6,3,3,0,0,0,2.069.413c1.887-.077,2.492,1.669,2.661,3.288a12.081,12.081,0,0,1,.054,2.447c-0.044.47-.06,0.949-0.1,1.421a4.094,4.094,0,0,1-.134,1.205c-0.1.212-.129,0.164-0.419,0.206l-3.323.478-14.512,2.088-20.837,3-22,3.166L91.225,55.214c-2.993.431-5.991,0.841-8.981,1.292a2.862,2.862,0,0,0-2.03,1.15,2.358,2.358,0,0,0,1.173,3.5,3.3,3.3,0,0,0,1.7.031c3.278-.489,6.559-0.955,9.839-1.429l30.017-4.335q18.285-2.642,36.569-5.291L170.053,48.6q-0.784,11.276-1.53,22.555-0.381,5.639-.753,11.279c-0.088,1.319-.187,2.628-0.317,3.943a13.286,13.286,0,0,1-.925,4.692,4.813,4.813,0,0,1-2.845,2.4,5.726,5.726,0,0,1-3.766.062,2.876,2.876,0,0,1-1.225-2.45,24.993,24.993,0,0,1,.126-4.492c0.278-3.778.582-7.554,0.829-11.334,0.231-3.544,1.177-7.8-1.307-10.819A7.39,7.39,0,0,0,153.551,62a9.245,9.245,0,0,0-3.434.158,10.616,10.616,0,0,0-1.492.466c-0.221.088-.439,0.187-0.654,0.292a1.607,1.607,0,0,1-.341.174,0.477,0.477,0,0,1-.365-0.1,2.613,2.613,0,0,0-3.683,2.249c-0.162,1.945-.3,3.892-0.444,5.839-0.274,3.651-.547,7.3-0.843,10.951-0.137,1.691-.246,3.385-0.374,5.077a37.351,37.351,0,0,1-.635,5.908,5.483,5.483,0,0,1-1.6,3.112,5.759,5.759,0,0,1-4.448,1.112,2.342,2.342,0,0,1-2.169-2.114,12.32,12.32,0,0,1-.058-2.707c0.275-3.257.5-6.522,0.733-9.783,0.35-4.791.824-9.6,1.036-14.4a4.115,4.115,0,0,0-.494-2.845,2.176,2.176,0,0,0-2.317-.735,2.454,2.454,0,0,0-1.917,1.62,8.22,8.22,0,0,0-.125,1.43q-0.275,4.172-.57,8.342-0.336,4.795-.689,9.588A74.551,74.551,0,0,1,127.73,95a7.779,7.779,0,0,1-1.159,2.954,3.212,3.212,0,0,1-2.716,1.1,2.607,2.607,0,0,1-2.522-1.144,5.626,5.626,0,0,1-.427-3.034c0.286-5.235.825-10.472,1.21-15.7,0.15-2.039.319-4.078,0.465-6.117q0.109-1.535.2-3.072a4.479,4.479,0,0,0-.308-2.555,2.5,2.5,0,0,0-4.295.249,9.244,9.244,0,0,0-.35,3.059c-0.358,4.859-.73,9.715-1.041,14.578-0.2,3.2-.427,6.408-0.844,9.583a12.9,12.9,0,0,1-1.054,4.154,2.758,2.758,0,0,1-2.332,1.609,3.461,3.461,0,0,1-2.96-.6c-0.847-.833-0.874-2.312-0.773-3.427,0.177-1.952.32-3.907,0.469-5.861q0.692-9.04,1.341-18.083a18.086,18.086,0,0,0,.135-2.266c-0.132-2.3-2.583-3.038-4.2-1.547a2.749,2.749,0,0,0-.684,2.085c-0.071,1-.156,2-0.234,3a16.345,16.345,0,0,1-1.067,5.673,4.554,4.554,0,0,1-2.436,2.416,13.468,13.468,0,0,1-3.474.771c0.277-3.394.933-7.507-.85-10.612-2.1-3.658-6.9-3.56-10.3-1.9-5.672,2.76-5.4,10-5.788,15.423-0.13,1.823-.249,3.647-0.391,5.469-0.158,2.025-.358,4.047-0.516,6.072-0.144,1.852-.168,3.951-0.97,5.645a4.577,4.577,0,0,1-.917,1.451,6.423,6.423,0,0,1-.709.69,6.844,6.844,0,0,1-1.352.527c-1.227.413-2.9,0.914-4.043,0.092a2.507,2.507,0,0,1-.789-2.8,7.183,7.183,0,0,1,.593-1.418c0.5-.954.925-2,1.35-3a46.47,46.47,0,0,0,2.929-10.822,85.491,85.491,0,0,0,1.046-13.435c0.016-7.931-1.585-16.465-6.589-22.843C66.194,44.761,57.756,41.8,49.6,41.5a49.893,49.893,0,0,0-14.27,1.571,32.748,32.748,0,0,0-11.407,5.21,23.635,23.635,0,0,0-7.848,9.8A27.026,27.026,0,0,0,14.232,71.91,20.887,20.887,0,0,0,19.465,83.6a18.566,18.566,0,0,0,10.386,5.464,26.667,26.667,0,0,0,6.664.3c-0.211,2.506-.4,5.013-0.617,7.518a45.32,45.32,0,0,1-.616,4.926c-0.149.758-.311,1.517-0.49,2.268a2.942,2.942,0,0,1-.558,1.512c0.388-1.014-1.87-1.53-2.547-1.781a13.308,13.308,0,0,0-3.893-.8,10.862,10.862,0,0,0-7.06,2.33,6.941,6.941,0,0,0,2.777,12.194,11.5,11.5,0,0,0,8.159-.967,12.3,12.3,0,0,0,2.891-2.1,15.131,15.131,0,0,0,1.283-1.417q0.294-.367.568-0.751a4.226,4.226,0,0,1,.611-0.908,3.8,3.8,0,0,1,1.047.467q0.4,0.175.8,0.347c0.514,0.219,1.031.428,1.554,0.622a29.324,29.324,0,0,0,4.305,1.257,21.776,21.776,0,0,0,7.886.1,36.314,36.314,0,0,0,8.24-2.115,25.933,25.933,0,0,0,7.126-4.566,7.459,7.459,0,0,0,7.028,3.4,11.71,11.71,0,0,0,2.334-.522,12.8,12.8,0,0,0,2.22-.766,9.856,9.856,0,0,0,3.483-2.623,8.632,8.632,0,0,0,8.224,1.406,8.253,8.253,0,0,0,5.152-5.321,30.255,30.255,0,0,0,1.251-7.531c0.088-1.111.183-2.221,0.278-3.331q0.088-1.019.181-2.038,0.052-.57.106-1.139a4.248,4.248,0,0,1,.132-1.362,2.776,2.776,0,0,1,.906-0.131c0.378-.054.755-0.107,1.133-0.163a14.726,14.726,0,0,0,4.391-1.308q-0.206,3.133-.468,6.261c-0.269,3.178-1.041,6.858.642,9.789,1.544,2.688,4.793,3.655,7.72,3.365a8.24,8.24,0,0,0,4.445-1.767c0.375-.307,1.265-1.511,1.61-1.486a4.736,4.736,0,0,1,.968.634,7.26,7.26,0,0,0,1.155.5,9.494,9.494,0,0,0,5.595.042,8.894,8.894,0,0,0,4.239-3,5.863,5.863,0,0,0,1.735,1.059,14.619,14.619,0,0,0,2.878.582,4.124,4.124,0,0,0,1.366.19,11.263,11.263,0,0,0,1.4-.261,12.809,12.809,0,0,0,2.65-.91c3.126-1.5,4.709-4.373,5.388-7.671,0.725-3.516.707-7.219,1-10.789,0.242-2.912.4-5.831,0.66-8.74a18.466,18.466,0,0,1,.771-4.4,3.81,3.81,0,0,1,1.934-2.49,5.067,5.067,0,0,1,3.04-.077,2.108,2.108,0,0,1,1.018.622,4,4,0,0,1,.464,1.209,11.225,11.225,0,0,1,.006,3.631c-0.15,2.033-.288,4.067-0.434,6.1-0.253,3.54-.609,7.082-0.77,10.627a11.863,11.863,0,0,0,.634,5.31,6.686,6.686,0,0,0,4.021,3.716,10.865,10.865,0,0,0,11.307-3.171c1.775,1.673,4.466,1.946,6.783,1.634a11.278,11.278,0,0,0,1.788-.609,11.9,11.9,0,0,0,1.893-.76,9.762,9.762,0,0,0,3.047-2.4,8.635,8.635,0,0,0,8.338,1.365,8.282,8.282,0,0,0,5.06-5.348,31.988,31.988,0,0,0,1.25-7.739q0.128-1.58.265-3.159,0.089-1.028.183-2.055,0.058-.641.12-1.281a2.949,2.949,0,0,1,.117-1.1,2.959,2.959,0,0,1,.962-0.139c0.366-.053.732-0.1,1.1-0.158a14.47,14.47,0,0,0,4.482-1.368q-0.213,3.172-.48,6.338c-0.266,3.13-.985,6.744.761,9.593,1.624,2.651,4.925,3.547,7.855,3.19a8.162,8.162,0,0,0,4.389-1.884,8.712,8.712,0,0,0,.774-0.762c0.116-.127.225-0.26,0.341-0.387,0.23-.252.13-0.222,0.411-0.13a6.811,6.811,0,0,1,.883.569,7.194,7.194,0,0,0,1.254.534,9.53,9.53,0,0,0,5.5.011,8.938,8.938,0,0,0,4.24-3,6.156,6.156,0,0,0,2.26,1.249,8.221,8.221,0,0,0,1.559.332,7.953,7.953,0,0,0,7.513-1.748c3.27-2.324,4.091-6.455,4.381-10.221,0.3-3.93.612-7.859,0.9-11.79,0.118-1.586.189-3.184,0.364-4.766a13.377,13.377,0,0,1,1.212-5.108,3.136,3.136,0,0,1,1.05-1.189,4.542,4.542,0,0,1,1.573-.411,4.277,4.277,0,0,1,2.113.22,3.055,3.055,0,0,1,.628.433,1.284,1.284,0,0,1,.366.7,8.627,8.627,0,0,1,.292,3.654c-0.17,2.239-.32,4.48-0.48,6.721-0.137,1.906-.259,3.814-0.415,5.719a59.69,59.69,0,0,0-.375,6.68,8.412,8.412,0,0,0,1.524,5,6.919,6.919,0,0,0,5.119,2.634,11.828,11.828,0,0,0,2.868-.112,3.083,3.083,0,0,1,2.4.25,2.665,2.665,0,0,1,.7,2.01,2.225,2.225,0,0,1-1.042,2.226,10.517,10.517,0,0,1-4.045,1.011l-3.038.445q-7.836,1.148-15.673,2.288-9.47,1.38-18.939,2.756l-19.249,2.8L187.988,100.1l-10.969,1.59-3.02.438-3.888.562-7.59,1.1-10.634,1.537-13.021,1.883-14.749,2.133L108.3,111.626l-16.231,2.347-15.985,2.312L61,118.465,47.482,120.42l-11.3,1.634-8.42,1.217-4.883.707c-0.3.043-.609,0.078-0.91,0.131a2.737,2.737,0,0,0-1.948,1.3,2.387,2.387,0,0,0,2.456,3.429c0.691-.08,1.379-0.206,2.066-0.308l4.575-.67,7.052-1.027,9.492-1.381,11.9-1.729,14.268-2.071,16.6-2.408,18.9-2.741,21.166-3.068,23.4-3.39,25.588-3.707,27.746-4.018L235.1,98q13.416-1.942,26.837-3.86a20.414,20.414,0,0,0,4.484-.935c2.342-.9,4.416-2.635,4.781-5.247A12.316,12.316,0,0,0,270.512,82.564ZM31.285,111.106a8.176,8.176,0,0,1-1.554,1.187,6.055,6.055,0,0,1-2.037.688c-0.5.093-1.006,0.051-1.5,0.122a3.787,3.787,0,0,1-2.052-.525,2.117,2.117,0,0,1-1.122-1.532,2.376,2.376,0,0,1,.274-1.523,3.779,3.779,0,0,1,1.161-1.018c2.634-1.525,5.644-.257,8.152.913A18.7,18.7,0,0,1,31.285,111.106Zm32.457-6.171a20.841,20.841,0,0,1-9.159,4.1,24.077,24.077,0,0,1-7.361.627c-0.756-.085-1.484-0.316-2.231-0.446a24.168,24.168,0,0,1-5.067-1.868,3.054,3.054,0,0,1-.865-0.367,0.815,0.815,0,0,1,.09-0.753c0.187-.627.347-1.261,0.5-1.9,0.264-1.113.5-2.237,0.652-3.372,0.494-3.629.637-7.3,0.976-10.946a4,4,0,0,1,.125-1.341,5.321,5.321,0,0,1,1.5-.367q0.894-.234,1.775-0.516a24.166,24.166,0,0,0,5.8-2.672,17.09,17.09,0,0,0,7.3-10.258c1.14-4.541.615-9.8-2.24-13.624A14.73,14.73,0,0,0,44.08,55.661a18.582,18.582,0,0,0-12.6,4.517A19.68,19.68,0,0,0,25.631,71.74c-0.186,1.135-.49,2.415.17,3.451a2.194,2.194,0,0,0,2.43.922,2.488,2.488,0,0,0,2-1.9c0.187-1.031.229-2.084,0.454-3.111a16.386,16.386,0,0,1,1.943-4.887,11.448,11.448,0,0,1,3.67-3.732,10.431,10.431,0,0,1,2.175-1.08q-0.358,6.058-.783,12.112-0.221,3.14-.462,6.278-0.118,1.539-.241,3.077a5.545,5.545,0,0,1-.137,1.7,2.131,2.131,0,0,1-.79.071,18.886,18.886,0,0,1-9.272-1.528,13.079,13.079,0,0,1-5.177-4.655c-2.76-4-3.059-9.667-2.306-14.326a18.536,18.536,0,0,1,7.114-11.86c5.236-3.965,12.175-5.606,18.644-5.9,6.088-.281,12.1.452,17.411,3.634,5.478,3.281,8.656,9.37,9.794,15.514a64.2,64.2,0,0,1-.038,21.045C71.239,93.1,69.119,100.623,63.743,104.935ZM41.694,83.757q0.752-10.163,1.414-20.332,0.059-.908.115-1.817a3.6,3.6,0,0,1,.111-1.159,5.349,5.349,0,0,0,1.442.088,11.181,11.181,0,0,1,1.687.28,8.476,8.476,0,0,1,2.78,1.259,8.585,8.585,0,0,1,3.287,3.887,12.544,12.544,0,0,1-3.37,14.246A17.633,17.633,0,0,1,41.694,83.757ZM92.72,96.742c-0.208,2.225-.336,5.06-2.031,6.644-0.278.107-.481,0.33-0.772,0.422a4.655,4.655,0,0,1-1.346.2,3.6,3.6,0,0,1-2.165-.542,3.017,3.017,0,0,1-.875-2.242,14.752,14.752,0,0,1,.039-2.2c0.075-1.916.256-3.835,0.412-5.746q0.109-1.329.218-2.659l0.107-1.3a3.812,3.812,0,0,1,.077-0.943c0.135-.351-0.02-0.268.546-0.062a7.894,7.894,0,0,0,2.519.461,23.746,23.746,0,0,0,3.91-.38C93.139,91.18,92.979,93.967,92.72,96.742Zm1.245-16.081a13.864,13.864,0,0,1-.261,2.615c-0.1.345-.016,0.226-0.333,0.317a4.262,4.262,0,0,1-.554.08c-1.51.219-3.775,0.836-4.96-.418a3.581,3.581,0,0,1-.709-2.241,11.473,11.473,0,0,1,.113-2.951c0.362-1.713,1.214-3.3,2.964-3.783a5.293,5.293,0,0,1,2.653-.215c0.907,0.281,1.091,1.7,1.163,2.495A23.378,23.378,0,0,1,93.965,80.661Zm98.993,1.9a34.422,34.422,0,0,1-.619,4.16,4.994,4.994,0,0,1-1.427,2.49c-0.3.115-.509,0.341-0.828,0.433a4.558,4.558,0,0,1-1.324.187,3.705,3.705,0,0,1-2.107-.536,3.01,3.01,0,0,1-.883-2.245,12.463,12.463,0,0,1,.039-1.989c0.1-2.039.258-4.079,0.424-6.115q0.108-1.321.215-2.642a9.193,9.193,0,0,1,.173-2.13c0.135-.368.166-0.166,0.662,0.005a7.961,7.961,0,0,0,2.485.424,24.5,24.5,0,0,0,3.828-.383C193.377,77,193.218,79.785,192.958,82.56Zm1.35-17.459c-0.05.6-.088,1.2-0.141,1.8q-0.041.458-.086,0.915a5.283,5.283,0,0,1-.169,1.552,2.4,2.4,0,0,1-.834.119c-0.64.092-1.281,0.182-1.923,0.26a4.788,4.788,0,0,1-2.232-.137,2.136,2.136,0,0,1-1.377-1.639,9.668,9.668,0,0,1-.177-1.671c-0.031-.491.065-0.962-0.01-1.452,0.22-1.95.859-3.754,2.73-4.6a5.862,5.862,0,0,1,2.582-.434,1.636,1.636,0,0,1,1.448,1.487A10.772,10.772,0,0,1,194.308,65.1Zm39.963,17.247a0.735,0.735,0,0,1,.045.293A0.612,0.612,0,0,0,234.271,82.347Zm33.822,32.8L22.917,150.6a1.71,1.71,0,0,0,.241,3.4,1.568,1.568,0,0,0,.246-0.018L268.58,118.53A1.709,1.709,0,0,0,268.093,115.146ZM25.541,132.271a0.507,0.507,0,0,0-.474-0.17l-0.391.055a0.853,0.853,0,0,0-.5.277,0.844,0.844,0,0,0-.231.524L23.079,145.64a0.621,0.621,0,0,0,.188.489,0.589,0.589,0,0,0,.451.107l4.948-.7c0.072-.007.143-0.016,0.212-0.025a2.635,2.635,0,0,0,1.355-.535,1.744,1.744,0,0,0,.691-1.128l0.008-.083a1.08,1.08,0,0,0-.212-0.778,0.9,0.9,0,0,0-.8-0.3,1.334,1.334,0,0,0-.819.369,1.358,1.358,0,0,0-.461.8l-3.753.529,0.794-11.677A0.542,0.542,0,0,0,25.541,132.271Zm6.683,12.767,0.507-.072a0.826,0.826,0,0,0,.446-0.21,1.065,1.065,0,0,0,.244-0.315l1.4-3.045a0.851,0.851,0,0,0,.961.593,1.345,1.345,0,0,0,.819-0.369,1.442,1.442,0,0,0,.477-0.852l4.29-.6,1.156,3.038a0.518,0.518,0,0,0,.2.21,0.571,0.571,0,0,0,.414.089l0.484-.068a0.742,0.742,0,0,0,.66-0.675v-0.185l-4.707-12.39a0.488,0.488,0,0,0-.39-0.321,1.158,1.158,0,0,0-.574.13,0.782,0.782,0,0,0-.351.375q-4.346,9.253-6.519,13.9a0.872,0.872,0,0,0-.074.282l0.007,0.251,0.1,0.094A0.451,0.451,0,0,0,32.224,145.038Zm6.5-12.1,2.071,5.679-3.737.527a3.046,3.046,0,0,0-1.39.419Zm13.6,6.748a3.326,3.326,0,0,1-.984.865,3.636,3.636,0,0,1-2.75.4,5.234,5.234,0,0,1-1.059-.448,2.4,2.4,0,0,1-.339-0.237,0.845,0.845,0,0,0-.162-0.114,0.53,0.53,0,0,0-.624-0.1,1.046,1.046,0,0,0-.428.349c-0.1.129-.173,0.229-0.2,0.265a0.971,0.971,0,0,0-.2.536l-0.009.123,0.053,0.1a0.759,0.759,0,0,0,.213.25l0.218,0.17a3.9,3.9,0,0,0,.46.3,7.13,7.13,0,0,0,1.341.507,4.87,4.87,0,0,0,2.009.089,5.412,5.412,0,0,0,1.2-.312,6.229,6.229,0,0,0,1.1-.555,6.128,6.128,0,0,0,1.63-1.547,3.915,3.915,0,0,0,.75-2.023,2.673,2.673,0,0,0-1.092-2.65,8.984,8.984,0,0,0-2.991-1.126,5.907,5.907,0,0,1-2.018-.741,1.373,1.373,0,0,1-.534-1.367,2.421,2.421,0,0,1,.29-0.924,2.481,2.481,0,0,1,.808-0.866,3.506,3.506,0,0,1,.729-0.384,3.805,3.805,0,0,1,2.127-.208q0.313,0.078.552,0.153a0.977,0.977,0,0,0,.1.781,0.917,0.917,0,0,0,.649.441,1.2,1.2,0,0,0,.909-0.238,1.649,1.649,0,0,0,.594-0.822,1.3,1.3,0,0,0,.021-0.832A1.156,1.156,0,0,0,54.347,129l0.076-.313-0.442.062a0.868,0.868,0,0,0-.2-0.091,7.681,7.681,0,0,0-1.148-.347,5.155,5.155,0,0,0-1.813-.029,5.53,5.53,0,0,0-2.5.936,5.6,5.6,0,0,0-1.524,1.6,4.942,4.942,0,0,0-.422.946,4.066,4.066,0,0,0-.177.919,4.335,4.335,0,0,0,.054,1.12,2.464,2.464,0,0,0,.363.864,2.679,2.679,0,0,0,1.293,1.043,10.044,10.044,0,0,0,1.817.568,7.776,7.776,0,0,1,2.411.848,1.447,1.447,0,0,1,.646,1.462,1.721,1.721,0,0,1-.137.556A2.423,2.423,0,0,1,52.33,139.683Zm11.23-12.791-0.116-.079a0.564,0.564,0,0,0-.4-0.075l-0.5.07a0.758,0.758,0,0,0-.525.322l-0.12.144-0.013.2a0.512,0.512,0,0,0,.055.29l0.595,1.564c1.76,4.633,3.1,8.169,4.005,10.521a0.506,0.506,0,0,0,.159.3,0.576,0.576,0,0,0,.529.127,0.721,0.721,0,0,0,.416-0.2,0.834,0.834,0,0,0,.234-0.327c2.539-5.364,4.441-9.385,5.722-12.109l0.111-.154,0.007-.1a3,3,0,0,0,.255-0.957,1.786,1.786,0,0,0-.018-0.378,1.024,1.024,0,0,0-.579-0.78,1.122,1.122,0,0,0-.6-0.086,1.779,1.779,0,0,0-.3.073,1.591,1.591,0,0,0-.744.706,1.385,1.385,0,0,0-.165.865,0.812,0.812,0,0,0,.4.621q-2.892,6.206-4.542,9.745ZM83.132,125.6a0.9,0.9,0,0,0,.732-0.788l0.022-.328a0.58,0.58,0,0,0-.2-0.485,0.566,0.566,0,0,0-.439-0.11l-7.308,1.029a0.913,0.913,0,0,0-.529.3,0.882,0.882,0,0,0-.2.488l-0.863,12.684a0.563,0.563,0,0,0,.156.462,0.55,0.55,0,0,0,.479.146l6.089-.857a2.714,2.714,0,0,0,1.379-.589,1.712,1.712,0,0,0,.6-1.017l0.027-.142a1.1,1.1,0,0,0-.212-0.777,0.9,0.9,0,0,0-.8-0.3,1.478,1.478,0,0,0-.833.383,1.508,1.508,0,0,0-.453.8l-4.6.648,0.318-4.663,5.342-.752a0.866,0.866,0,0,0,.72-0.8l0.021-.316a0.619,0.619,0,0,0-.163-0.467,0.538,0.538,0,0,0-.46-0.143l-5.342.752,0.291-4.282Zm11.3,0.066a0.893,0.893,0,0,0,.458.634,1.015,1.015,0,0,0,.907.033,1.715,1.715,0,0,0,.744-0.653,1.36,1.36,0,0,0,.236-0.724,1.669,1.669,0,0,0-.035-0.46,1.731,1.731,0,0,0-.846-1.043,5.3,5.3,0,0,0-1.877-.858,6.2,6.2,0,0,0-2.36-.073,8.046,8.046,0,0,0-3.552,1.431,9.739,9.739,0,0,0-2.674,2.84,9.153,9.153,0,0,0-.9,1.9,8.015,8.015,0,0,0-.423,2.074,6.233,6.233,0,0,0,.681,3.457,5.224,5.224,0,0,0,2.239,2.222,5.714,5.714,0,0,0,1.694.536,6.514,6.514,0,0,0,1.948,0,9.327,9.327,0,0,0,2.2-.572,13.6,13.6,0,0,0,1.609-.758q0.337-.2.558-0.356c0.162-.112.281-0.2,0.338-0.248a1.222,1.222,0,0,0,.28-0.3,1.063,1.063,0,0,0,.227-0.629l0.3-4.368A0.567,0.567,0,0,0,96,129.283a0.561,0.561,0,0,0-.437-0.11l-3.751.528a0.878,0.878,0,0,0-.57.325,0.891,0.891,0,0,0-.147.449l-0.026.38a0.736,0.736,0,0,0,.069.4l0.067,0.09a0.575,0.575,0,0,0,.488.111l2.685-.378-0.192,2.833-0.011.007a2.891,2.891,0,0,1-.375.241,8.528,8.528,0,0,1-1.236.6,7.557,7.557,0,0,1-1.793.458,4.324,4.324,0,0,1-2.537-.346,3.96,3.96,0,0,1-1.739-1.628,4.438,4.438,0,0,1-.472-1.283,5.04,5.04,0,0,1-.108-1.478,6.369,6.369,0,0,1,.863-2.786,7.223,7.223,0,0,1,1.916-2.212,6.709,6.709,0,0,1,1.344-.789,5.151,5.151,0,0,1,3.3-.335,4.366,4.366,0,0,1,1.2.547A1.148,1.148,0,0,0,94.431,125.67Zm3.263,10.146,0.507-.071a0.839,0.839,0,0,0,.448-0.21,1.047,1.047,0,0,0,.241-0.315l1.407-3.048a0.847,0.847,0,0,0,.959.6,1.494,1.494,0,0,0,.822-0.373,1.444,1.444,0,0,0,.475-0.85l4.289-.6c0.5,1.321.881,2.322,1.149,3.023a0.506,0.506,0,0,0,.207.225,0.573,0.573,0,0,0,.415.089l0.484-.068a0.706,0.706,0,0,0,.576-0.389,0.7,0.7,0,0,0,.081-0.286v-0.185l-4.708-12.39a0.487,0.487,0,0,0-.39-0.321,1.151,1.151,0,0,0-.573.129,0.8,0.8,0,0,0-.352.376q-4.346,9.253-6.517,13.9a0.859,0.859,0,0,0-.076.282l0.009,0.251,0.094,0.091A0.448,0.448,0,0,0,97.694,135.816Zm6.5-12.1,2.069,5.679-3.736.527a3.1,3.1,0,0,0-1.389.419Zm13.6,6.749a3.359,3.359,0,0,1-.98.864,3.649,3.649,0,0,1-2.752.4,5.225,5.225,0,0,1-1.059-.45,2.238,2.238,0,0,1-.338-0.235l-0.164-.118a0.527,0.527,0,0,0-.619-0.095,1.041,1.041,0,0,0-.436.355c-0.095.121-.164,0.217-0.2,0.267a0.967,0.967,0,0,0-.2.529l-0.008.117,0.048,0.095a0.7,0.7,0,0,0,.217.258l0.218,0.167a3.25,3.25,0,0,0,.459.3,7.1,7.1,0,0,0,1.344.508,4.852,4.852,0,0,0,2.009.088,5.408,5.408,0,0,0,1.195-.311,6.249,6.249,0,0,0,1.105-.556,6.089,6.089,0,0,0,1.626-1.545,3.909,3.909,0,0,0,.751-2.024,2.675,2.675,0,0,0-1.091-2.652,9.021,9.021,0,0,0-2.991-1.124,5.932,5.932,0,0,1-2.02-.742,1.376,1.376,0,0,1-.533-1.367,2.434,2.434,0,0,1,1.1-1.788,3.436,3.436,0,0,1,.73-0.385,3.762,3.762,0,0,1,2.127-.207c0.209,0.051.393,0.1,0.55,0.152a0.987,0.987,0,0,0,.1.781,0.913,0.913,0,0,0,.651.44,1.19,1.19,0,0,0,.908-0.237,1.661,1.661,0,0,0,.595-0.827,1.286,1.286,0,0,0,.018-0.828,1.215,1.215,0,0,0-.366-0.54l0.009-.242-0.319.032-0.039-.022a1.039,1.039,0,0,0-.2-0.088,7.64,7.64,0,0,0-1.145-.346,5.188,5.188,0,0,0-1.815-.03,5.519,5.519,0,0,0-2.5.937,5.619,5.619,0,0,0-1.526,1.6,4.816,4.816,0,0,0-.419.946,4.037,4.037,0,0,0-.178.919,4.337,4.337,0,0,0,.054,1.12,2.569,2.569,0,0,0,.362.865,2.7,2.7,0,0,0,1.293,1.043,10.143,10.143,0,0,0,1.819.566,7.835,7.835,0,0,1,2.411.849,1.441,1.441,0,0,1,.644,1.462,1.745,1.745,0,0,1-.133.552A2.514,2.514,0,0,1,117.8,130.463Zm18.266-12.314a0.9,0.9,0,0,0,.731-0.788l0.023-.328a0.581,0.581,0,0,0-.2-0.485,0.563,0.563,0,0,0-.437-0.111l-7.309,1.03a0.909,0.909,0,0,0-.53.3,0.886,0.886,0,0,0-.2.489l-0.863,12.684a0.562,0.562,0,0,0,.156.462,0.549,0.549,0,0,0,.479.146l6.09-.858a2.709,2.709,0,0,0,1.378-.588,1.718,1.718,0,0,0,.6-1.017l0.026-.142a1.1,1.1,0,0,0-.211-0.777,0.9,0.9,0,0,0-.8-0.3,1.452,1.452,0,0,0-.833.383,1.5,1.5,0,0,0-.453.8l-4.6.648,0.318-4.663,5.341-.753a0.926,0.926,0,0,0,.525-0.305,0.937,0.937,0,0,0,.2-0.494l0.021-.315a0.621,0.621,0,0,0-.163-0.467,0.543,0.543,0,0,0-.461-0.144l-5.341.753,0.292-4.282Zm3.089-1.9-0.116-.079a0.557,0.557,0,0,0-.4-0.075l-0.5.07a0.762,0.762,0,0,0-.523.319l-0.122.147-0.014.2a0.547,0.547,0,0,0,.055.291c2.058,5.408,3.6,9.465,4.6,12.106a0.524,0.524,0,0,0,.156.283,0.577,0.577,0,0,0,.531.127,0.725,0.725,0,0,0,.414-0.2,0.835,0.835,0,0,0,.234-0.327c2.539-5.364,4.44-9.385,5.743-12.153l0.09-.11,0.007-.1a2.978,2.978,0,0,0,.254-0.957,1.8,1.8,0,0,0-.016-0.378,1.012,1.012,0,0,0-.578-0.781,1.135,1.135,0,0,0-.6-0.085,1.808,1.808,0,0,0-.3.073,1.594,1.594,0,0,0-.743.706,1.385,1.385,0,0,0-.165.865,0.807,0.807,0,0,0,.4.62l-4.543,9.745Zm19.573-1.288a0.9,0.9,0,0,0,.492-0.267,0.869,0.869,0,0,0,.239-0.521l0.022-.328a0.59,0.59,0,0,0-.2-0.49,0.576,0.576,0,0,0-.433-0.106l-7.31,1.03a0.911,0.911,0,0,0-.53.3,0.885,0.885,0,0,0-.2.489l-0.864,12.684a0.565,0.565,0,0,0,.157.462,0.559,0.559,0,0,0,.479.146l6.089-.857a2.72,2.72,0,0,0,1.38-.59,1.724,1.724,0,0,0,.6-1.016l0.026-.142a1.069,1.069,0,0,0-.212-0.777,0.9,0.9,0,0,0-.8-0.3,1.45,1.45,0,0,0-.833.383,1.51,1.51,0,0,0-.453.8l-4.6.648,0.318-4.663,5.342-.752a0.912,0.912,0,0,0,.524-0.306,0.921,0.921,0,0,0,.2-0.493l0.021-.316a0.621,0.621,0,0,0-.157-0.463,0.543,0.543,0,0,0-.466-0.147l-5.342.752,0.292-4.282Zm10.684,7.164q-4.642-6.148-7.061-9.362l-0.121-.16-0.533.075a0.956,0.956,0,0,0-.486.239,0.859,0.859,0,0,0-.272.566l-0.875,12.867a0.564,0.564,0,0,0,.156.464,0.552,0.552,0,0,0,.479.146l0.342-.048a0.835,0.835,0,0,0,.489-0.276,0.849,0.849,0,0,0,.23-0.525L162.446,116q1.323,1.791,2.335,3.152l2.347,3.126c0.333,0.443.627,0.828,0.876,1.166l0.749,0.976c0.147,0.2.278,0.371,0.391,0.51s0.189,0.233.281,0.357a4.121,4.121,0,0,0,.374.439l0.12,0.115,0.425-.059a1.055,1.055,0,0,0,.481-0.212,0.854,0.854,0,0,0,.3-0.584l0.792-11.627a2,2,0,0,0-.227-1.308,0.96,0.96,0,0,0-.869-0.474,1.444,1.444,0,0,0-.9.339,1.48,1.48,0,0,0-.5.875,1.176,1.176,0,0,0,.13.836,0.792,0.792,0,0,0,.616.363l-0.571,8.382Zm6.811,2.431a0.541,0.541,0,0,0,.471.138l0.332-.047a0.927,0.927,0,0,0,.511-0.252,0.855,0.855,0,0,0,.269-0.544l0.794-11.663,2.08-.293a0.864,0.864,0,0,0,.36.684,1.109,1.109,0,0,0,.781.129,1.4,1.4,0,0,0,.858-0.519,1.564,1.564,0,0,0,.322-0.864l0-.067a1.07,1.07,0,0,0-.526-0.951,2.019,2.019,0,0,0-1.5-.163l-7.054.994a0.891,0.891,0,0,0-.731.8l-0.019.276a0.716,0.716,0,0,0,.1.455,0.514,0.514,0,0,0,.534.193l3.041-.428-0.794,11.662A0.564,0.564,0,0,0,176.22,124.552Zm14.007-4.294a3.351,3.351,0,0,1-.984.867,3.635,3.635,0,0,1-2.75.4,5.225,5.225,0,0,1-1.058-.448,2.318,2.318,0,0,1-.34-0.237l-0.161-.114a0.532,0.532,0,0,0-.624-0.1,1.069,1.069,0,0,0-.431.349c-0.1.124-.167,0.221-0.195,0.266a0.965,0.965,0,0,0-.2.536l-0.008.128,0.056,0.1a0.78,0.78,0,0,0,.209.243l0.222,0.171a3.885,3.885,0,0,0,.457.3,7.212,7.212,0,0,0,1.341.509,4.857,4.857,0,0,0,2.01.088,5.5,5.5,0,0,0,1.2-.311,6.354,6.354,0,0,0,1.1-.556,6.015,6.015,0,0,0,1.63-1.546,3.927,3.927,0,0,0,.752-2.023,2.682,2.682,0,0,0-1.09-2.652,9.038,9.038,0,0,0-3-1.124,5.908,5.908,0,0,1-2.018-.742,1.378,1.378,0,0,1-.533-1.367,2.438,2.438,0,0,1,1.1-1.788,3.459,3.459,0,0,1,.73-0.386,3.772,3.772,0,0,1,2.127-.207c0.208,0.051.393,0.1,0.552,0.152a0.975,0.975,0,0,0,.1.782,0.918,0.918,0,0,0,.649.44,1.165,1.165,0,0,0,.907-0.236,1.642,1.642,0,0,0,.595-0.824,1.292,1.292,0,0,0,.023-0.828,1.138,1.138,0,0,0-.37-0.542l0.01-.244-0.318.032-0.033-.018a0.943,0.943,0,0,0-.2-0.092,7.724,7.724,0,0,0-1.148-.347,5.159,5.159,0,0,0-1.814-.029,5.453,5.453,0,0,0-4.028,2.539,4.688,4.688,0,0,0-.423.951,4.075,4.075,0,0,0-.177.914,4.266,4.266,0,0,0,.055,1.119,2.446,2.446,0,0,0,.363.864,2.671,2.671,0,0,0,1.294,1.044,10.106,10.106,0,0,0,1.815.567,7.851,7.851,0,0,1,2.412.848,1.443,1.443,0,0,1,.645,1.463,1.777,1.777,0,0,1-.135.555A2.367,2.367,0,0,1,190.227,120.258Zm19.453-10.779a0.908,0.908,0,0,0,.542.556,1.1,1.1,0,0,0,.907-0.073,1.648,1.648,0,0,0,.7-0.749,1.451,1.451,0,0,0,.159-0.573,2.232,2.232,0,0,0,0-.316,1.323,1.323,0,0,0-.366-0.682l-0.136-.147a5.371,5.371,0,0,0-1.994-1.077,6.173,6.173,0,0,0-2.6-.123,8.014,8.014,0,0,0-3.536,1.429,9.728,9.728,0,0,0-2.691,2.834,9.547,9.547,0,0,0-.9,1.909,8.045,8.045,0,0,0-.422,2.072,6.8,6.8,0,0,0,.144,1.977,5.861,5.861,0,0,0,.656,1.7,5.235,5.235,0,0,0,2.337,2.094,5.972,5.972,0,0,0,3.423.449,8.063,8.063,0,0,0,2.555-.831,8.876,8.876,0,0,0,2.345-1.814,0.856,0.856,0,0,0,.222-0.5,0.517,0.517,0,0,0-.163-0.454l-0.314-.3a0.46,0.46,0,0,0-.409-0.083,0.752,0.752,0,0,0-.445.242,10.575,10.575,0,0,1-1.73,1.312,5.232,5.232,0,0,1-1.941.662,4.367,4.367,0,0,1-2.561-.342,3.993,3.993,0,0,1-1.739-1.613,4.631,4.631,0,0,1-.475-1.284,5.049,5.049,0,0,1-.108-1.468,6.1,6.1,0,0,1,.316-1.557,7.2,7.2,0,0,1,.657-1.436,7.319,7.319,0,0,1,2-2.155,5.483,5.483,0,0,1,4.436-1,4.169,4.169,0,0,1,1.183.494A1.165,1.165,0,0,0,209.68,109.479Zm12.11-3.405a0.894,0.894,0,0,0,.731-0.788l0.022-.328a0.54,0.54,0,0,0-.636-0.595l-7.307,1.029a0.913,0.913,0,0,0-.525.292,0.875,0.875,0,0,0-.206.5l-0.864,12.684a0.541,0.541,0,0,0,.157.462,0.549,0.549,0,0,0,.479.146l6.087-.857a2.708,2.708,0,0,0,1.38-.59,1.606,1.606,0,0,0,.585-0.97l0.04-.187a1.116,1.116,0,0,0-.214-0.783,0.911,0.911,0,0,0-.8-0.292,1.455,1.455,0,0,0-.832.38,1.482,1.482,0,0,0-.455.8l-4.6.648,0.318-4.664,5.342-.752a0.868,0.868,0,0,0,.72-0.8l0.02-.315a0.618,0.618,0,0,0-.162-0.468,0.545,0.545,0,0,0-.461-0.143l-5.341.752,0.291-4.282Zm3.626-2.2-0.122-.16-0.536.076a0.969,0.969,0,0,0-.485.238,0.87,0.87,0,0,0-.273.567l-0.876,12.867a0.581,0.581,0,0,0,.163.468,0.563,0.563,0,0,0,.474.141l0.344-.048a0.857,0.857,0,0,0,.5-0.284,0.869,0.869,0,0,0,.224-0.517l0.687-10.107q1.326,1.789,2.337,3.149l2.344,3.127c0.334,0.442.627,0.828,0.878,1.165l0.747,0.976c0.147,0.2.279,0.371,0.391,0.511,0.106,0.125.19,0.232,0.261,0.331a4.485,4.485,0,0,0,.394.464l0.121,0.116,0.424-.06a1.051,1.051,0,0,0,.481-0.212,0.852,0.852,0,0,0,.3-0.584l0.792-11.628a2.009,2.009,0,0,0-.229-1.307,0.958,0.958,0,0,0-.868-0.474,1.429,1.429,0,0,0-.894.337,1.462,1.462,0,0,0-.5.873,1.16,1.16,0,0,0,.127.841,0.792,0.792,0,0,0,.617.362l-0.571,8.383Q227.88,107.154,225.416,103.876Zm13.873,11.793a0.531,0.531,0,0,0,.471.138l0.328-.047a0.892,0.892,0,0,0,.5-0.242,0.854,0.854,0,0,0,.28-0.554l0.794-11.662,2.081-.294a0.866,0.866,0,0,0,.359.682,1.157,1.157,0,0,0,.779.132,1.435,1.435,0,0,0,.863-0.52,1.572,1.572,0,0,0,.322-0.864l0-.067a1.07,1.07,0,0,0-.529-0.95,2.074,2.074,0,0,0-1.5-.164l-7.057.994a0.872,0.872,0,0,0-.459.236,0.862,0.862,0,0,0-.269.564l-0.019.277a0.7,0.7,0,0,0,.09.438,0.5,0.5,0,0,0,.539.21l3.045-.429-0.794,11.663A0.564,0.564,0,0,0,239.289,115.669Zm15.959-14.307a0.894,0.894,0,0,0,.73-0.788l0.023-.328a0.582,0.582,0,0,0-.2-0.486,0.568,0.568,0,0,0-.439-0.11l-7.307,1.03a0.943,0.943,0,0,0-.545.315,0.9,0.9,0,0,0-.186.473l-0.864,12.684a0.583,0.583,0,0,0,.162.466,0.563,0.563,0,0,0,.474.142l6.089-.858a2.716,2.716,0,0,0,1.378-.588,1.717,1.717,0,0,0,.6-1.021l0.025-.138a1.07,1.07,0,0,0-.209-0.775,0.9,0.9,0,0,0-.805-0.3,1.352,1.352,0,0,0-.828.379,1.5,1.5,0,0,0-.456.8l-4.6.648,0.318-4.664,5.342-.752a0.932,0.932,0,0,0,.53-0.313,0.918,0.918,0,0,0,.187-0.486l0.021-.315a0.636,0.636,0,0,0-.161-0.468,0.55,0.55,0,0,0-.46-0.143l-5.342.752,0.292-4.282Zm10.5,4.022a5.218,5.218,0,0,0,1.145-2.905,3.75,3.75,0,0,0-.443-2.169,3.211,3.211,0,0,0-1.447-1.371,3.724,3.724,0,0,0-1.074-.322,4.33,4.33,0,0,0-1.239,0l-4.512.636a0.811,0.811,0,0,0-.525.3,0.879,0.879,0,0,0-.207.5l-0.863,12.683a0.547,0.547,0,0,0,.163.469,0.552,0.552,0,0,0,.472.141l0.316-.044a0.851,0.851,0,0,0,.508-0.252,0.837,0.837,0,0,0,.275-0.557l0.262-3.744a0.854,0.854,0,0,0,.746.245,1.4,1.4,0,0,0,.851-0.369,1.422,1.422,0,0,0,.449-0.8l1.248-.176,0.076-.011,2.2,4.346a0.867,0.867,0,0,0,.226.245,0.645,0.645,0,0,0,.394.054l0.557-.079a0.757,0.757,0,0,0,.621-0.534,0.7,0.7,0,0,0-.042-0.56q-1.346-2.591-2.1-4.063A6.266,6.266,0,0,0,265.751,105.384Zm-2.1-.07a3.961,3.961,0,0,1-.713.4,3.2,3.2,0,0,1-.783.211l-1.833.258a2.759,2.759,0,0,0-1.381.594,2.345,2.345,0,0,0-.239.255l0.432-6.156,3.386-.477a2.593,2.593,0,0,1,.782,0,2.23,2.23,0,0,1,.674.2,2.036,2.036,0,0,1,.9.822,2.239,2.239,0,0,1,.262,1.3,3.277,3.277,0,0,1-.451,1.451A3.807,3.807,0,0,1,263.651,105.314ZM264.59,46.22l-2.251.311V45.716l5.48-.757v0.815l-2.262.312v6.6l-0.967.134v-6.6Zm10.29,1.924c-0.055-1.027-.121-2.262-0.11-3.188l-0.032,0c-0.253.9-.561,1.871-0.934,2.947L272.5,51.687l-0.725.1-1.2-3.368c-0.352-1-.648-1.914-0.857-2.765l-0.022,0c-0.022.928-.076,2.179-0.142,3.3l-0.2,3.208-0.911.126,0.516-7.49,1.218-.169,1.263,3.414c0.308,0.871.56,1.651,0.747,2.4l0.033,0c0.187-.774.45-1.625,0.779-2.606l1.318-3.77,1.219-.168L276,51.247l-0.933.129Z" fill="#FFFFFF"></path>
</svg>