<svg xmlns:xlink="http://www.w3.org/1999/xlink" xmlns="http://www.w3.org/2000/svg" viewBox="0 0 596.0791626 282.4217834" width="596.0791626"  height="282.4217834" ><path d="M193.776 256.693c2.546 0 4.345 1.429 4.345 3.583 0 1.3-.48 2.206-1.336 2.803 1.489.606 2.367 1.923 2.367 3.616 0 2.384-1.87 4.362-4.808 4.362h-9.659v-14.364h9.091zm-7.065 5.893h7.38c1.316 0 2.027-.936 2.027-1.973 0-1.118-.604-2.055-2.524-2.055h-6.883v4.028zm0 6.598h7.531c1.947 0 2.888-1.117 2.888-2.46 0-1.46-1.012-2.32-2.468-2.32h-7.95v4.78zM221.982 256.693v1.842h-10.65v4.238h9.558v1.845h-9.559v4.566h11.037v1.873h-13.062v-14.364h12.676zM243.333 256.693l6.1 14.364h-2.122l-1.017-2.339h-10.73l-1.014 2.34h-2.184l6.263-14.365h4.704zm-6.995 10.16h9.094l-3.424-8.318h-2.141l-3.529 8.317zM271.713 260.692c-1.192-1.585-2.93-2.472-5.404-2.472-3.526 0-5.808 2.242-5.808 5.64 0 3.326 2.359 5.714 5.808 5.714 2.52 0 4.164-.912 5.404-2.514l1.661.958c-1.497 2.156-3.785 3.404-6.977 3.404-4.597 0-7.95-2.885-7.95-7.562 0-4.65 3.427-7.506 7.95-7.506 3.062 0 5.48 1.22 6.958 3.378l-1.642.96zM285.615 256.693v5.97h10.311v-5.97h2.046v14.364h-2.046v-6.52h-10.31v6.52h-2.035v-14.364h2.034zM337.556 260.692c-1.195-1.585-2.935-2.472-5.407-2.472-3.529 0-5.814 2.242-5.814 5.64 0 3.326 2.363 5.714 5.814 5.714 2.523 0 4.164-.912 5.407-2.514l1.661.958c-1.506 2.156-3.788 3.404-6.986 3.404-4.606 0-7.954-2.885-7.954-7.562 0-4.65 3.431-7.506 7.954-7.506 3.068 0 5.48 1.22 6.96 3.378l-1.635.96zM351.455 256.693v12.491h10.75v1.873H349.42v-14.364h2.034zM373.863 256.693v7.375c0 3.294 1.605 5.506 5.224 5.506 3.557 0 5.192-2.212 5.192-5.506v-7.375h2.06v7.351c0 4.75-2.845 7.378-7.252 7.378-4.448 0-7.254-2.628-7.254-7.378v-7.35h2.03zM406.02 256.693c2.545 0 4.331 1.429 4.331 3.583 0 1.3-.462 2.206-1.325 2.803 1.475.606 2.368 1.923 2.368 3.616 0 2.384-1.873 4.362-4.806 4.362h-9.661v-14.364h9.092zm-7.073 5.893h7.379c1.325 0 2.028-.936 2.028-1.973 0-1.118-.6-2.055-2.521-2.055h-6.886v4.028zm0 6.598h7.534c1.958 0 2.89-1.117 2.89-2.46 0-1.46-1.017-2.32-2.47-2.32h-7.954v4.78z" fill="#FFFFFF"></path><g fill="#FFFFFF"><path d="M28.691 166.133c3.692 0 9.738-.298 18.107-.894 4.675-.347 8.136-.518 10.372-.518 8.723 0 15.384 1.271 19.998 3.82 4.608 2.552 8.336 6.39 11.198 11.54 2.861 5.154 4.29 11.277 4.29 18.401 0 6.492-1.52 12.552-4.582 18.169-3.045 5.617-7.914 9.876-14.596 12.77-6.687 2.894-15.123 4.346-25.314 4.346l-14.604-.369c-.381 0-1.8.071-4.238.212-3.662.206-6.856.308-9.585.308-1.357 0-2.243.021-2.663.056-.423.032-.746.047-.996.047-.945 0-1.412-.314-1.412-.934 0-.496.693-.897 2.09-1.21 3.215-.766 5.453-1.562 6.727-2.408 1.27-.83 2.197-2.106 2.758-3.823 6.518-26.975 9.785-43.325 9.785-49.047 0-2.375-.776-4.384-2.303-6.041-1.537-1.652-3.528-2.489-5.975-2.489-1.601 0-2.408-.294-2.408-.891 0-.734 1.125-1.076 3.351-1.045zm28.307.89c-3.457 0-5.865 1.006-7.252 3.008-1.38 2.006-3.634 9.892-6.788 23.664-3.13 13.76-4.699 23.547-4.699 29.34 0 5.621 3.857 8.424 11.573 8.424 5.962 0 11.317-1.46 16.05-4.366 4.727-2.915 8.539-7.593 11.442-14.04 2.893-6.433 4.343-12.495 4.343-18.179 0-7.577-2.052-14.113-6.148-19.606-4.104-5.498-10.274-8.246-18.521-8.246zM158.192 164.721l-7.024 26.813-6.875 25.823c-.896 3.016-1.355 5.635-1.355 7.846 0 3.964 2.151 6.263 6.454 6.89.971.141 1.46.425 1.46.854 0 .71-.489 1.074-1.46 1.074l-9.425-.265-8.645.102-5.102-.053-2.605.105c-1.14 0-1.71-.345-1.71-1.045 0-.614.468-.964 1.397-1.036 3.512-.385 6.007-1.695 7.478-3.956 1.474-2.255 3.794-9.043 6.964-20.356-.633-.04-5.786-.062-15.464-.062l-2.764-.051c-1.85 0-3.662 1.116-5.457 3.35l-7.099 8.998c-2.912 3.752-4.37 6.734-4.37 8.956 0 2.01 1.936 3.084 5.828 3.224 1.46.038 2.19.388 2.19 1.042 0 .423-.155.667-.473.751-.307.091-1.455.133-3.435.133l-15.526-.253-3.573.097c-.724 0-1.1-.23-1.1-.69 0-.609.525-1.024 1.562-1.235 1.292-.235 2.84-.848 4.63-1.84 1.812-.982 3.399-2.101 4.776-3.375 1.366-1.258 3.382-3.49 6.06-6.712l14.11-16.97 14.314-16.916c2.848-3.193 6.419-7.46 10.716-12.81 3.066-3.787 4.92-5.881 5.576-6.299 1.496-.481 4.806-1.194 9.947-2.134zm-19.722 40.194a875.478 875.478 0 0 1 4.293-14.853c1.693-6.128 2.866-10.072 3.502-11.84.31-1.083.478-2.046.478-2.884 0-.657-.246-.987-.738-.987-.556 0-1.433.604-2.639 1.828-1.211 1.224-4.2 4.673-8.966 10.357l-10.481 12.586c-2.23 2.705-3.341 4.24-3.341 4.634 0 .658.462 1.047 1.408 1.159l1.297-.055 15.187.055zM197.93 197.089l5.796-10.699a64.927 64.927 0 0 1 7.706-11.122c2.968-3.447 6.064-6.068 9.28-7.863 3.235-1.789 6.342-2.684 9.336-2.684 2.106 0 3.815.739 5.137 2.228 1.336 1.485 2.001 3.07 2.001 4.73 0 1.485-.45 2.88-1.374 4.175-.912 1.302-2.247 1.95-4.01 1.95-1.2 0-2.143-.322-2.807-.963-.68-.63-1.707-2.282-3.083-4.93-.76-1.486-1.74-2.228-2.942-2.228-2.485 0-5.955 2.621-10.4 7.856-4.444 5.227-9.063 13.295-13.863 24.18-4.784 10.878-7.186 18.838-7.186 23.865 0 2.108.67 3.713 2.015 4.813 1.34 1.101 3.101 1.671 5.275 1.713 2.278 0 3.58.068 3.933.201.347.14.512.405.512.776 0 .625-.659.934-2.017.934l-20.32-.518c-3.11 0-6.005.103-8.687.31-1.647.14-3.019.208-4.082.208-1.11 0-1.66-.359-1.66-1.09 0-.385.178-.62.513-.722.346-.099 1.403-.183 3.15-.256 3.7-.107 6.656-1.403 8.853-3.906 2.21-2.498 4.801-9.243 7.81-20.225 3.002-10.98 4.489-19.277 4.489-24.903 0-4.584-.756-7.98-2.292-10.182-1.536-2.214-3.375-3.312-5.515-3.312-2.062 0-4.131.662-6.203 1.993-2.067 1.328-3.648 2.847-4.726 4.565-1.088 1.732-2.128 4.194-3.134 7.402l-1.03 3.258c-.172.481-.467.725-.877.725-.585 0-.883-.309-.883-.93 0-2.073.893-5.03 2.69-8.896 1.79-3.858 4.252-6.86 7.372-9.002 3.125-2.14 6.2-3.202 9.227-3.202 3.411 0 6.426 1.628 9.016 4.882 2.618 3.26 3.918 7.838 3.918 13.736 0 4.589-.315 8.97-.937 13.133zM294.813 233.705l-11.413.316-35.464-.626-14.424.16c-.944 0-1.425-.282-1.425-.84 0-.389.195-.669.564-.848.37-.173 1.443-.4 3.237-.682 1.778-.283 3.52-1.077 5.202-2.4 1.689-1.316 2.919-2.764 3.687-4.342.766-1.578 2.373-6.664 4.815-15.25 2.433-8.58 4.24-15.49 5.419-20.72 1.177-5.231 1.758-9.215 1.758-11.962 0-3.155-1.031-5.467-3.1-6.95-2.074-1.464-4.268-2.31-6.574-2.526-2.174-.206-3.27-.615-3.27-1.215 0-.734.533-1.099 1.583-1.099.345 0 .888.034 1.628.108.732.066 4.894.106 12.475.106l10.417.052 8.209-.158c1.545 0 2.31.307 2.31.925 0 .548-.796.923-2.417 1.123-2.943.395-5.09 1.077-6.446 2.067-1.35.99-2.356 2.187-2.998 3.582-.65 1.395-2.077 6.278-4.284 14.659-2.219 8.365-4.058 15.897-5.56 22.584-1.48 6.688-2.238 11.16-2.238 13.41 0 5.686 4.223 8.532 12.633 8.532 5.648 0 10.048-.526 13.212-1.582 3.153-1.051 5.792-2.565 7.891-4.55 2.105-1.979 5.317-5.603 9.63-10.865.528-.632.942-.944 1.258-.944.562 0 .847.343.847 1.049 0 .594-.87 3.217-2.603 7.867-1.743 4.647-3.253 8.322-4.559 11.02zM348.54 165.256c.574.247.86.559.86.96 0 .607-.405.944-1.18 1.008-2.957.294-5.034.847-6.237 1.692-1.212.83-2.218 2.114-2.998 3.832-.778 1.731-2.399 7.002-4.824 15.812-2.448 8.807-4.562 16.98-6.362 24.53-1.8 7.547-2.697 12.034-2.697 13.462 0 3.198 1.883 4.968 5.65 5.281 1.65.145 2.476.55 2.476 1.227 0 .634-.678.961-2.036.961l-18.577-.327-7.16.165c-1.105 0-1.656-.314-1.656-.964 0-.607.86-1.028 2.56-1.27 3.168-.426 5.399-1.32 6.675-2.672 1.284-1.347 2.386-4.006 3.31-7.949l5.396-20.754 4.802-18.726c1.286-5.052 1.924-7.966 1.924-8.75 0-3.618-2.551-5.614-7.692-5.975-1.07-.105-1.6-.477-1.6-1.123 0-.42.168-.687.47-.792.325-.109 1.224-.163 2.687-.163l26.21.535zM401.327 229.492c-9.117 3.017-16.785 4.53-22.997 4.53-8.393 0-15.44-2.601-21.143-7.802-5.683-5.192-8.541-12.368-8.541-21.525 0-6.447 1.645-12.715 4.943-18.806 3.281-6.088 8.042-11.137 14.244-15.149 6.212-4.009 13.295-6.019 21.245-6.019 6.525 0 13.506 1.97 20.945 5.906.825.457 1.476.672 1.955.672.655 0 1.393-.46 2.21-1.384.691-.825 1.232-1.242 1.648-1.242.587 0 .88.312.88.932 0 .204-.697 3.057-2.087 8.54l-2.141 9.21c-.128.79-.406 1.187-.817 1.187-.484 0-.823-.218-1.036-.643-.198-.438-.412-1.574-.612-3.419-.52-4.468-2.546-8.502-6.102-12.12-3.553-3.619-8.142-5.432-13.769-5.432-5.366 0-10.464 2.018-15.304 6.043-4.837 4.033-8.535 9.4-11.09 16.108-2.563 6.708-3.843 12.624-3.843 17.77 0 6.76 1.936 12.632 5.81 17.632 3.873 4.99 8.444 7.476 13.692 7.476 2.911 0 5.647-.662 8.205-2 2.547-1.34 4.473-3.685 5.782-7.061 1.31-3.35 1.952-7.09 1.952-11.206 0-2.67-.64-4.507-1.927-5.507-1.279-.993-3.449-1.696-6.508-2.104-.786-.103-1.177-.435-1.177-.984 0-.58.391-.875 1.177-.875.826 0 2.105.073 3.868.203 1.43.14 3.66.209 6.687.209l13.834.157c2.236 0 3.714.074 4.474.232.76.15 1.134.488 1.134 1 0 .55-.778.873-2.32.976-3.54.283-5.805 1.446-6.865 3.506-1.039 2.055-3.181 9.049-6.406 20.989zM443.706 196.95c3.3.35 8.752.526 16.332.526 10.69 0 17.772-.057 21.277-.158 3.192-11.742 4.792-19.577 4.792-23.502 0-1.85-.626-3.447-1.864-4.787-1.248-1.338-3.32-2.003-6.192-2.003-1.832 0-2.736-.393-2.736-1.181 0-.677.505-1.007 1.496-1.007.464 0 1.019.011 1.668.048 4.987.325 11.798.472 20.45.472l8.656-.147c1.068 0 1.61.336 1.61 1.015 0 .673-.503 1.042-1.499 1.115-2.886.254-4.975.648-6.274 1.175-1.303.542-2.461 1.579-3.48 3.127-1.004 1.55-1.755 3.166-2.242 4.835-.475 1.671-2.128 8.365-4.94 20.061-2.81 11.7-4.478 18.982-4.993 21.83-.525 2.85-.777 5.163-.777 6.947 0 1.568.624 2.977 1.864 4.248 1.25 1.252 2.716 1.947 4.385 2.046 1.85.148 2.778.521 2.778 1.133 0 .82-.661 1.223-1.978 1.223l-10.361-.322-16.937.377c-1.067 0-1.606-.345-1.606-1.04 0-.559.454-.863 1.334-.942 3.607-.317 6.158-1.277 7.68-2.876 1.5-1.61 3.223-6.536 5.153-14.806l3.17-14.04c-4.839-.23-11.219-.331-19.145-.331l-18.356.052c-.46 2.566-1.328 6.32-2.582 11.262-1.5 5.86-2.243 9.92-2.243 12.157 0 5.228 2.925 8.016 8.804 8.375 1.393.072 2.09.424 2.09 1.043 0 .621-.356.929-1.067.929l-14.38-.16-16.453.221c-1.107 0-1.663-.389-1.663-1.122 0-.537.94-.985 2.835-1.34 2.384-.462 4.127-1.125 5.252-1.972 1.087-.871 2.19-2.442 3.278-4.747 1.086-2.308 2.495-6.93 4.213-13.891 1.73-6.95 3.414-14.184 5.08-21.695 1.651-7.508 2.483-12.281 2.483-14.312 0-2.892-.61-4.894-1.834-6.022-1.24-1.12-3.314-1.81-6.237-2.059-.923-.07-1.384-.387-1.384-.94 0-.693.5-1.044 1.491-1.044l17.69.223 10.469-.163c1.603 0 2.409.411 2.409 1.23 0 .674-.512 1.015-1.513 1.015-2.054 0-3.93.359-5.593 1.067-1.675.72-2.939 1.724-3.778 3.048-.831 1.316-1.856 4.574-3.065 9.772l-3.567 16.036zM555.775 167.754c-2.77 7.167-6.216 18.416-10.35 33.74-4.135 15.336-6.192 23.951-6.192 25.87 0 1.213.84 2.165 2.5 2.853 1.667.697 4.967 1.213 9.896 1.573.814.067 1.223.315 1.223.736 0 .996-.904 1.492-2.72 1.492l-11.955-.262-19.57.1c-1.494 0-2.243-.316-2.243-.951 0-.786.98-1.167 2.936-1.167 3.506 0 5.924-.552 7.255-1.644 1.333-1.108 2.42-3.401 3.268-6.875l4.952-18.262 5.054-19.424 4.36-17.299a34.691 34.691 0 0 0-6.699-.638c-4.969 0-9.433 1.3-13.384 3.883-3.959 2.589-7.576 5.881-10.872 9.887-.748.886-1.306 1.337-1.7 1.337-.568 0-.856-.269-.856-.8 0-.599.806-2.824 2.415-6.656 1.622-3.818 3.36-7.294 5.243-10.413l32.966.524 25.69-.637c.64 0 1.74.038 3.297.113l.749 11.217c.248 2.596.376 4.845.376 6.757 0 .844-.354 1.273-1.07 1.273-.383 0-.643-.251-.744-.738-2.157-10.672-8.461-16.017-18.877-16.017-1.599 0-3.235.143-4.948.428z" fill="#FFFFFF"></path></g><g fill="#FFFFFF"><path d="M356.719 36.753c-4.818-1.28-9.597-2.883-14.538-1.343-3.887 1.212-6.554 4.927-9.592 7.401-4.793 3.882-10.413 5.147-15.99 7.326-1.922.755-3.866 1.837-4.955 3.457-.306-2.614 1.143-4.8 3.663-6.757 1.686-1.31 2.699-2.784 3.477-4.756 1.492-3.852.224-8.526-2.582-11.4-.318-.334-1.018-.116-.971.392.59 7.451-5.419 10.368-10.775 13.719-2.116 1.329-3.489 3.347-3.102 5.427-.068-.009-.127-.02-.196-.024-1.832-4.653-1.265-8.799 1.933-13.176 2.15-2.919 3.82-5.653 4.218-9.297.706-6.492-3.904-12.753-8.664-16.588-.408-.317-1.139-.046-.964.548.852 2.936 1.657 5.313.865 8.463-1.223 4.791-6.746 8.207-9.34 12.323-3.127 4.94-2.056 11.962.65 17.253-2.503-2.192-4.935-4.222-6.274-7.678-1.59-4.127-2.201-8.508-4.467-12.366-1.392-2.357-3.664-3.778-5.838-5.29-4.583-3.201-7.823-7.252-9.253-12.727-.172-.661-1.062-.502-1.133.121-.567 5.37-.353 10.717 2.325 15.525 1.568 2.788 4.348 4.458 6.051 7.057 2.532 3.811 2.56 9.717 4.12 13.983 1.4 3.78 3.686 6.894 7.166 8.621-.104.112-.209.23-.322.35-4.969.282-6.672-4.49-10.34-7.283-3.285-2.5-6.624-3.098-10.381-1.294-.543.258-.271 1.052.274 1.075 3.28.122 4.596 3.076 5.825 5.647 1.061 2.217 2.274 4.164 3.692 6.181 1.45 2.05 2.89 3.59 5.012 3.834-6.678 2.522-12.173-2.467-18.532-5.04-6.306-2.537-13.168-.811-18.155 3.515-.535.47.127 1.133.683.912 9.002-3.653 12.025 6.357 17.833 10.797 5.26 4.011 12.662 5.564 18.355 2.16-2.133 3.415-5.345 5.44-9.634 6.696-3.479 1.03-7.057 1.532-10.315 3.181-3.273 1.632-5.773 5.08-8.452 7.513-3.488 3.194-7.096 4.927-11.884 4.766-.588-.022-.767.759-.302 1.064 7.452 4.761 14.442 1.599 20.738-3.424 4.715-3.766 9.69-4.416 15.416-5.671 3.822-.846 7.448-2.823 9.457-6.115.818 3.996.628 8.36-2.225 11.557-1.494 1.653-3.271 3.033-4.785 4.694-2.777 3.065-2.84 6.561-1.078 10.167.255.548 1.024.263 1.073-.272.45-5.64 7.624-7.768 11.915-9.77 3.904-1.802 5.1-5.416 5.468-9.312 5.374 6.938-2.914 15.062-4.824 21.683-1.869 6.475.395 14.05 5.01 18.787.473.48 1.157-.115.897-.683-2.203-5.032-.243-9.356 3.218-13.168 2.367-2.58 5.768-4.403 7.766-7.252 3.853-5.502 2.904-12.395.383-18.278 4.027 3.164 6.368 7.541 8.067 12.546.98 2.895 1.635 5.712 3.545 8.175 1.768 2.26 4.551 3.611 6.932 5.094 4.29 2.674 6.25 6.433 6.775 11.423.062.613.946.846 1.119.165 1.135-4.411 1.599-8.752-.187-13.05-1.46-3.552-4.71-6.1-6.95-9.133-2.946-4.002-2.77-8.862-3.425-13.555-.53-3.876-2.43-6.832-5.31-9.233 4.987.13 7.58 5.565 11.739 7.952 3.426 1.952 7.469 1.585 11.026.324.624-.22.534-1.068-.127-1.136-6.63-.598-8.316-5.122-10.874-10.46-1.636-3.39-4.212-5.76-7.803-6.486.024-.072.024-.138.03-.219 4.674-1.4 8.962-3.396 13.73-.92 3.434 1.768 5.903 4.29 9.852 5.023 6.537 1.228 12.769-3.504 17.693-7.124.413-.291.353-1.1-.28-1.068-5.619.319-11.08.42-15.309-3.891-2.582-2.638-4.463-5.964-8.164-7.207-6.322-2.13-13.162-.21-19.049 2.469a2.22 2.22 0 0 1-.133-.268c5.043-6.84 13.487-6.18 19.88-10.882 7.012-5.15 9.043-15.407 19.433-14.651.656.052.797-.962.17-1.119zm-53.353 21.43c2.015.793 2.987 1.591 2.988 1.573 0 0 .41.28.853.647.455.36.945.808 1.204 1.015 1.367 1.058 2.432 1.97 3.075 1.87a.495.495 0 0 0 .295-.216l.057.039a.588.588 0 0 0-.194.467c0 .223.072.507.256.836.24.438 1.17 1.998 1.627 4.673a15.98 15.98 0 0 1 .006 4.67 15.181 15.181 0 0 1-1.955 5.45 14.886 14.886 0 0 1-4.588 4.82c-1.95 1.308-4.318 2.215-6.823 2.45a15.055 15.055 0 0 1-7.547-1.213 14.563 14.563 0 0 1-6.01-4.89c-1.54-2.126-2.48-4.641-2.71-7.158a14.628 14.628 0 0 1 1.145-7.26 14.423 14.423 0 0 1 4.09-5.426 14.66 14.66 0 0 1 5.38-2.778c1.805-.5 3.54-.58 5.055-.438 1.514.13 2.79.488 3.796.87z" fill="#FFFFFF"></path><path d="M248.162 81.095c1.726-.955.211-3.618-1.49-2.659-1.708.976-.222 3.63 1.49 2.659zM284.766 23.93c1.717-.976.22-3.637-1.5-2.666-1.711.964-.215 3.623 1.5 2.666zM351.368 59.377c1.724-.964.228-3.628-1.489-2.655-1.72.957-.226 3.617 1.49 2.655zM335.548 107.931c-1.719.969-.22 3.632 1.492 2.663 1.726-.966.223-3.63-1.492-2.663zM297.659 65.402h-.845c-3.763 0-6.913 3.141-6.913 6.913 0 3.768 3.15 6.914 6.913 6.914h.845c3.767 0 6.92-3.146 6.92-6.914 0-3.772-3.153-6.913-6.92-6.913z" fill="#FFFFFF"></path></g></svg>