<svg xmlns:xlink="http://www.w3.org/1999/xlink" xmlns:dc="http://purl.org/dc/elements/1.1/" xmlns:cc="http://creativecommons.org/ns#" xmlns:rdf="http://www.w3.org/1999/02/22-rdf-syntax-ns#" xmlns:svg="http://www.w3.org/2000/svg" xmlns="http://www.w3.org/2000/svg" xmlns:sodipodi="http://sodipodi.sourceforge.net/DTD/sodipodi-0.dtd" xmlns:inkscape="http://www.inkscape.org/namespaces/inkscape" version="1.1" id="svg2" xml:space="preserve" width="556.38666" height="300.56" viewBox="0 0 556.38666 300.56" sodipodi:docname="Hakkasan_Logo_Lockup_2_White.eps"><metadata id="metadata8" fill="#FFFFFF"><rdf:rdf fill="#FFFFFF"><cc:work rdf:about="" fill="#FFFFFF"><dc:format fill="#FFFFFF">image/svg+xml</dc:format><dc:type rdf:resource="http://purl.org/dc/dcmitype/StillImage" fill="#FFFFFF"></dc:type></cc:work></rdf:rdf></metadata><defs id="defs6"><clipPath clipPathUnits="userSpaceOnUse" id="clipPath20"><path d="M 0,0 H 4173 V 2254 H 0 Z" id="path18"></path></clipPath><clipPath clipPathUnits="userSpaceOnUse" id="clipPath26"><path d="M 2.60547,2254.18 -0.00390625,4.82031 4170.28,0 l 2.61,2249.36 z" id="path24"></path></clipPath></defs><sodipodi:namedview pagecolor="#ffffff" bordercolor="#666666" borderopacity="1" objecttolerance="10" gridtolerance="10" guidetolerance="10" inkscape:pageopacity="0" inkscape:pageshadow="2" inkscape:window-width="640" inkscape:window-height="480" id="namedview4" fill="#FFFFFF"></sodipodi:namedview><g id="g10" inkscape:groupmode="layer" inkscape:label="ink_ext_XXXXXX" transform="matrix(1.3333333,0,0,-1.3333333,0,300.56)" fill="#FFFFFF"><g id="g12" transform="scale(0.1)" fill="#FFFFFF"><g id="g14" fill="#FFFFFF"><g id="g16" clip-path="url(#clipPath20)" fill="#FFFFFF"><g id="g22" clip-path="url(#clipPath26)" fill="#FFFFFF"><path d="m 2021.31,948.328 0.44,385.132 -134.94,124.94 -334.71,-509.521 -160.92,0.18 405.54,594.541 -344.67,317.67 176.57,-0.21 393.3,-381.49 0.9,772.27 130.22,-0.14 -1.15,-772.28 394.38,380.58 176.39,-0.21 -345.32,-316.86 403.96,-595.481 -161.11,0.192 -333.24,510.289 -135.22,-124.62 -0.19,-385.13 -130.23,0.148 v 0" style="fill-opacity: 1; fill-rule: nonzero; stroke: none;" id="path28" fill="#FFFFFF"></path><path d="m 3815.11,11.2383 31.79,-0.0391 0.46,397.1528 289.12,-397.4809 33.81,-0.043 0.53,451.2739 -31.79,0.027 -0.47,-402.5587 -289.09,402.8987 -33.84,0.043 -0.52,-451.2737 z m -499.76,176.4917 94.31,233.981 93.77,-234.191 -188.08,0.21 z m -105.76,-175.7886 35.18,-0.043 58.37,145.3906 212.42,-0.238 58.71,-145.5393 37.21,-0.0429 L 3427.29,462.961 3394.83,463 3209.59,11.9414 Z M 2721.2,72.0508 c 6.28,-9.0508 14.52,-17.7305 24.67,-26.082 10.11,-8.3672 21.82,-15.7969 35.13,-22.3672 13.3,-6.543 28.06,-11.8828 44.31,-15.95316 16.23,-4.09766 33.81,-6.13672 52.76,-6.16016 21.63,-0.02734 41.95,2.89063 60.89,8.73052 18.96,5.8515 35.32,14.1601 49.08,24.9804 13.76,10.8203 24.73,24 32.88,39.5391 8.11,15.5625 12.21,33.0317 12.23,52.4097 0.03,22.571 -3.9,41.5 -11.78,56.84 -7.89,15.364 -18,28.102 -30.41,38.274 -12.39,10.16 -26.46,18.308 -42.25,24.398 -15.79,6.121 -31.55,11.199 -47.33,15.27 -15.33,4.09 -30.57,8.398 -45.66,12.91 -15.12,4.539 -28.74,10.281 -40.91,17.32 -12.17,6.981 -21.97,15.801 -29.39,26.43 -7.44,10.582 -11.14,24.039 -11.13,40.269 0.02,10.813 2.06,21.289 6.13,31.43 4.06,10.152 10.39,19.281 18.98,27.383 8.58,8.109 19.5,14.637 32.82,19.598 13.32,4.929 29.22,7.378 47.72,7.359 16.23,-0.02 30.56,-1.707 42.95,-5.109 12.39,-3.391 23.09,-7.711 32.13,-12.899 9.01,-5.191 16.66,-10.832 22.97,-16.91 6.3,-6.141 11.49,-11.871 15.55,-17.313 l 23.01,19.614 c -4.96,6.769 -11.12,13.769 -18.56,21.019 -7.46,7.18 -16.68,13.879 -27.72,19.981 -11.06,6.109 -23.92,11.187 -38.54,15.25 -14.66,4.09 -31.48,6.136 -50.4,6.16 -22.12,0.019 -41.86,-2.981 -59.22,-9.07 -17.38,-6.051 -32.05,-14.313 -44.01,-24.661 -11.97,-10.339 -21.1,-22.511 -27.43,-36.492 -6.34,-13.988 -9.51,-28.648 -9.53,-43.969 -0.03,-22.539 4.12,-40.929 12.45,-55.14 8.33,-14.211 19.27,-25.981 32.78,-35.231 13.52,-9.269 28.83,-16.711 45.97,-22.379 17.14,-5.671 34.26,-10.761 51.41,-15.269 13.98,-4.082 27.84,-8.621 41.58,-13.602 13.77,-4.988 26.03,-11.418 36.86,-19.328 10.82,-7.902 19.49,-17.742 26.01,-29.453 6.52,-11.726 9.79,-25.93 9.77,-42.629 -0.02,-15.777 -2.98,-29.6599 -8.85,-41.5896 -5.88,-11.961 -14.11,-21.8906 -24.74,-29.7696 -10.59,-7.8515 -23.24,-13.8203 -37.91,-17.8515 -14.64,-4.0391 -30.78,-6.0469 -48.36,-6.0274 -30.68,0.0391 -56.72,5.8907 -78.12,17.668 -21.43,11.75 -39.79,26.8711 -55.11,45.3828 L 2721.2,72.0508 Z m -459.93,116.8982 94.28,233.981 93.8,-234.192 -188.08,0.211 z m -105.74,-175.7888 35.18,-0.0508 58.34,145.4106 212.45,-0.25 58.68,-145.5395 37.21,-0.0391 -184.17,451.4886 -32.48,0.039 -185.21,-451.0588 z m -476.31,0.5507 32.48,-0.039 0.2,172.5271 67.74,72.321 178.32,-245.1294 38.57,-0.0508 -193.18,269.5002 170.69,181.801 -39.91,0.05 -222.18,-235.179 0.27,235.429 -32.48,0.039 -0.52,-451.2691 z m -520.95,0.6094 32.46,-0.039 0.2,172.5197 67.76,72.32 178.31,-245.1327 38.56,-0.0469 -193.18,269.5076 170.73,181.789 -39.92,0.051 -222.21,-235.18 0.27,235.442 -32.45,0.039 -0.53,-451.2697 z M 658.512,190.809 752.816,424.781 846.578,190.59 658.512,190.809 Z M 552.746,15.0195 587.938,14.9688 646.301,160.371 858.723,160.129 917.434,14.5898 954.645,14.5508 770.445,466.031 737.98,466.07 552.746,15.0195 Z M 0.015625,15.6484 32.4922,15.6094 32.75,235.512 316.887,235.18 316.633,15.2891 l 32.48,-0.0391 0.524,451.27 -32.481,0.031 -0.234,-200.942 -284.1368,0.332 0.2304,200.938 L 0.539063,466.922 0.015625,15.6484 v 0" style="fill-opacity: 1; fill-rule: nonzero; stroke: none;" id="path30" fill="#FFFFFF"></path></g></g></g></g></g></svg>