<svg xmlns:xlink="http://www.w3.org/1999/xlink" xmlns="http://www.w3.org/2000/svg" viewBox="0 0 1005.2133179 423.0161743" width="1005.2133179"  height="423.0161743" ><path d="M132.718 365.775h6.496c3.478 0 5.876-3.786 5.876-7.502 0-4.561-1.237-8.425-6.496-8.425h-5.876v15.927zm-11.673-24.509h21.03c10.668 0 14.844 6.496 14.844 16.7 0 6.339-1.856 16.39-15.541 16.39h-8.66v22.73h-11.673v-55.82zM212.889 369.176c0-14.305-.854-20.489-7.424-20.489-6.573 0-7.423 6.184-7.423 20.489s.85 20.489 7.423 20.489c6.57 0 7.424-6.184 7.424-20.489m-26.676 0c0-14.765 0-28.836 19.252-28.836 19.253 0 19.253 14.07 19.253 28.836 0 14.613 0 28.84-19.253 28.84-19.252 0-19.252-14.227-19.252-28.84M281.836 369.176c0-14.305-.85-20.489-7.424-20.489-6.573 0-7.423 6.184-7.423 20.489s.85 20.489 7.423 20.489c6.574 0 7.424-6.184 7.424-20.489m-26.676 0c0-14.765 0-28.836 19.252-28.836 19.253 0 19.253 14.07 19.253 28.836 0 14.613 0 28.84-19.253 28.84-19.252 0-19.252-14.227-19.252-28.84M324.906 397.088v-55.82h11.673v46.54h17.475v9.28zM432.525 383.092c-7.81 0-13.919-6.261-13.919-13.915 0-7.653 6.11-13.919 13.92-13.919 7.808 0 13.914 6.266 13.914 13.92 0 7.653-6.106 13.914-13.915 13.914M515.711 397.088v-55.82h11.678v46.54h17.47v9.28zM599.249 369.176c0-14.305-.85-20.489-7.42-20.489-6.574 0-7.424 6.184-7.424 20.489s.85 20.489 7.424 20.489c6.57 0 7.42-6.184 7.42-20.489m-26.673 0c0-14.765 0-28.836 19.253-28.836 19.249 0 19.249 14.07 19.249 28.836 0 14.613 0 28.84-19.25 28.84-19.252 0-19.252-14.227-19.252-28.84M679.958 341.266v39.586c0 8.351-4.718 17.163-18.941 17.163-12.835 0-19.02-6.648-19.02-17.163v-39.586h11.674v38.814c0 6.881 2.936 9.583 7.19 9.583 5.104 0 7.423-3.4 7.423-9.583v-38.814h11.674zM711.647 397.088v-55.82h15.771l14.847 38.657h.156v-38.658h10.901v55.82h-15.389l-15.229-40.82h-.156v40.82zM810.531 358.43c.078-5.178-.772-9.743-6.956-9.743-7.267 0-7.267 9.82-7.267 20.644 0 17.475 1.7 20.567 8.348 20.567 1.933 0 4.02-.464 5.797-1.084v-12.367h-6.34v-8.586h18.017v28.299c-3.17.62-11.135 1.856-15.774 1.856-19.64 0-21.881-8.118-21.881-29.305 0-14.07.698-28.372 19.795-28.372 11.443 0 18.554 6.418 17.86 18.09h-11.599zM853.926 397.088v-55.82h30.462v8.58h-18.785v13.76h17.319v8.582h-17.319v16.316h19.405v8.582z" fill="#FFFFFF"></path><path d="M132.718 365.775h6.496c3.478 0 5.876-3.786 5.876-7.502 0-4.561-1.237-8.425-6.496-8.425h-5.876v15.927zm-11.673-24.509h21.03c10.668 0 14.844 6.496 14.844 16.7 0 6.339-1.856 16.39-15.541 16.39h-8.66v22.73h-11.673v-55.82zM212.889 369.176c0-14.305-.854-20.489-7.424-20.489-6.573 0-7.423 6.184-7.423 20.489s.85 20.489 7.423 20.489c6.57 0 7.424-6.184 7.424-20.489m-26.676 0c0-14.765 0-28.836 19.252-28.836 19.253 0 19.253 14.07 19.253 28.836 0 14.613 0 28.84-19.253 28.84-19.252 0-19.252-14.227-19.252-28.84M281.836 369.176c0-14.305-.85-20.489-7.424-20.489-6.573 0-7.423 6.184-7.423 20.489s.85 20.489 7.423 20.489c6.574 0 7.424-6.184 7.424-20.489m-26.676 0c0-14.765 0-28.836 19.252-28.836 19.253 0 19.253 14.07 19.253 28.836 0 14.613 0 28.84-19.253 28.84-19.252 0-19.252-14.227-19.252-28.84M432.525 383.092c-7.81 0-13.919-6.261-13.919-13.915 0-7.653 6.11-13.919 13.92-13.919 7.808 0 13.914 6.266 13.914 13.92 0 7.653-6.106 13.914-13.915 13.914M515.711 397.088v-55.82h11.678v46.54h17.47v9.28zM599.249 369.176c0-14.305-.85-20.489-7.42-20.489-6.574 0-7.424 6.184-7.424 20.489s.85 20.489 7.424 20.489c6.57 0 7.42-6.184 7.42-20.489m-26.673 0c0-14.765 0-28.836 19.253-28.836 19.249 0 19.249 14.07 19.249 28.836 0 14.613 0 28.84-19.25 28.84-19.252 0-19.252-14.227-19.252-28.84M679.958 341.266v39.586c0 8.351-4.718 17.163-18.941 17.163-12.835 0-19.02-6.648-19.02-17.163v-39.586h11.674v38.814c0 6.881 2.936 9.583 7.19 9.583 5.104 0 7.423-3.4 7.423-9.583v-38.814h11.674zM711.647 397.088v-55.82h15.771l14.847 38.657h.156v-38.658h10.901v55.82h-15.389l-15.229-40.82h-.156v40.82zM810.531 358.43c.078-5.178-.772-9.743-6.956-9.743-7.267 0-7.267 9.82-7.267 20.644 0 17.475 1.7 20.567 8.348 20.567 1.933 0 4.02-.464 5.797-1.084v-12.367h-6.34v-8.586h18.017v28.299c-3.17.62-11.135 1.856-15.774 1.856-19.64 0-21.881-8.118-21.881-29.305 0-14.07.698-28.372 19.795-28.372 11.443 0 18.554 6.418 17.86 18.09h-11.599zM853.926 397.088v-55.82h30.462v8.58h-18.785v13.76h17.319v8.582h-17.319v16.316h19.405v8.582zM324.906 397.088v-55.82h11.673v46.54h17.475v9.28z" fill="#FFFFFF"></path><g fill="#FFFFFF"><path d="M871.499 262.202h-50.932V51.209h52.402c61.833 0 83.662 53.085 83.662 102.58 0 60.754-22.203 108.413-85.132 108.413m3.638-235.02h-80.73v259.035h78.562C935.894 286.217 985 238.194 985 158.51c0-60.39-31.294-131.328-109.863-131.328M154.842 25v261.217h26.212V25h-26.212zM645.971 25l.004 169.9c0 47.644-34.568 69.492-70.961 69.492-36.368 0-70.935-21.848-70.935-69.491V41.744L504.075 25h-26.19v173.163c0 59.648 46.939 90.244 97.129 90.244 50.197 0 97.147-30.596 97.147-90.244V25h-26.19zM46.444 262.202V41.744L46.426 25H20.213v261.217h108.45v-24.034l-82.219.019zM399.328 218.91l-28.554-30.361-9.624 9.576-7.168 7.134 32.98 34.37c-12.369 16.035-31.295 26.933-57.492 26.933-60.742 0-81.484-58.95-81.484-109.856 0-50.933 20.742-109.901 81.484-109.901 60.769 0 81.498 58.968 81.498 109.9 0 21.45-3.292 43.662-11.64 62.205m55.554 58.453l-36.995-38.446c14.539-23.644 21.454-52.388 21.454-82.211 0-65.861-36.776-131.7-109.87-131.7-73.103 0-109.887 65.839-109.887 131.7 0 65.853 36.784 131.7 109.886 131.7 31.646 0 56.385-12.016 74.216-31.294l34.671 36.694 16.525-16.443zM719.847 25h26.212v261.217h-26.212z" fill="#FFFFFF"></path><path d="M871.499 262.202h-50.932V51.209h52.402c61.833 0 83.662 53.085 83.662 102.58 0 60.754-22.203 108.413-85.132 108.413m3.638-235.02h-80.73v259.035h78.562C935.894 286.217 985 238.194 985 158.51c0-60.39-31.294-131.328-109.863-131.328M154.842 25v261.217h26.212V25h-26.212zM645.971 25l.004 169.9c0 47.644-34.568 69.492-70.961 69.492-36.368 0-70.935-21.848-70.935-69.491V41.744L504.075 25h-26.19v173.163c0 59.648 46.939 90.244 97.129 90.244 50.197 0 97.147-30.596 97.147-90.244V25h-26.19zM46.444 262.202V41.744L46.426 25H20.213v261.217h108.45v-24.034l-82.219.019zM399.328 218.91l-28.554-30.361-9.624 9.576-7.168 7.134 32.98 34.37c-12.369 16.035-31.295 26.933-57.492 26.933-60.742 0-81.484-58.95-81.484-109.856 0-50.933 20.742-109.901 81.484-109.901 60.769 0 81.498 58.968 81.498 109.9 0 21.45-3.292 43.662-11.64 62.205m55.554 58.453l-36.995-38.446c14.539-23.644 21.454-52.388 21.454-82.211 0-65.861-36.776-131.7-109.87-131.7-73.103 0-109.887 65.839-109.887 131.7 0 65.853 36.784 131.7 109.886 131.7 31.646 0 56.385-12.016 74.216-31.294l34.671 36.694 16.525-16.443zM719.847 25h26.212v261.217h-26.212z" fill="#FFFFFF"></path></g></svg>