<svg width="484" height="136" viewBox="0 0 484 136" version="1.1" xmlns="http://www.w3.org/2000/svg" xmlns:xlink="http://www.w3.org/1999/xlink">
    <!-- Generator: Sketch 52.2 (67145) - http://www.bohemiancoding.com/sketch -->
    <title>g14</title>
    <desc fill="#FFFFFF">Created with Sketch.</desc>
    <g id="Page-1" stroke="none" stroke-width="1" fill="#FFFFFF" fill-rule="evenodd">
        <g id="TerraceLVLogoWHITE" transform="translate(-166.000000, -459.000000)" fill="#FFFFFF">
            <g id="g10" transform="translate(408.000000, 528.000000) scale(-1, 1) rotate(-180.000000) translate(-408.000000, -528.000000) " fill="#FFFFFF">
                <g id="g12" fill="#FFFFFF">
                    <g id="g14-Clipped" fill="#FFFFFF">
                        <g id="g14" transform="translate(163.999996, 459.999989)" fill="#FFFFFF">
                            <g id="g20" transform="translate(1.285200, 37.345066)" fill-rule="nonzero" fill="#FFFFFF">
                                <path d="M398.666657,13.333333 C376.805324,7.30399982 354.553324,18.8413329 348.965325,39.1013324 C344.530658,55.177332 351.926658,71.9066649 366.086658,81.147998 C366.079991,81.1453313 366.073324,81.143998 366.065324,81.1413313 C343.410658,74.8933315 329.738658,52.805332 335.529325,31.8066659 C341.321325,10.8093331 364.382658,-1.14666664 387.038657,5.10133321 C394.814657,7.24799982 401.53199,11.2573331 406.76799,16.4506663 C404.229323,15.177333 401.525323,14.121333 398.666657,13.333333 Z M32.7679992,22.9093328 C30.5253326,23.8813327 28.574666,25.1973327 26.9173327,26.8573327 C25.258666,28.514666 23.9679994,30.4639992 23.0426661,32.7066658 C22.1146661,34.9493325 21.6533328,37.3373324 21.6533328,39.8733323 L21.6533328,58.1546652 L49.6253321,58.1546652 C51.9546654,63.4999984 55.1266653,68.2919983 59.0959985,72.3746649 C61.3999985,74.7439981 63.9719984,76.8146647 66.7413317,78.6306647 L21.6533328,78.6306647 L21.6533328,99.1066642 L1.1773333,99.1066642 L1.1773333,39.8733323 C1.1773333,34.5093325 2.17599995,29.4639993 4.1759999,24.7359994 C6.17333318,20.0066662 8.92933311,15.8879996 12.4399997,12.377333 C15.9493329,8.86666644 20.0679995,6.08933318 24.7973327,4.04133323 C29.5253326,1.99333328 34.5719991,0.970666642 39.9346657,0.970666642 L52.0186654,0.970666642 L52.0186654,21.4453328 L39.9346657,21.4453328 C37.3986657,21.4453328 35.0093325,21.9319995 32.7679992,22.9093328 Z M119.535997,67.3693316 C116.026664,70.8799982 111.879997,73.6333315 107.103997,75.6333314 C102.326664,77.6293314 97.2079976,78.6306647 91.7479977,78.6306647 C86.3853312,78.6306647 81.363998,77.6079981 76.6839981,75.5586648 C72.0039982,73.5119982 67.930665,70.7079982 64.4719984,67.150665 C61.0093318,63.5893317 58.2786652,59.4453318 56.2813319,54.7186653 C54.2826653,49.9879988 53.2826653,44.9426655 53.2826653,39.5813323 C53.2826653,34.2186658 54.3066653,29.1973326 56.3546653,24.5173327 C58.4013319,19.8373328 61.2039985,15.7426663 64.7639984,12.2319997 C68.3213316,8.72133312 72.4653315,5.96666652 77.1959981,3.96933323 C81.923998,1.96933328 86.9693312,0.970666642 92.3319977,0.970666642 L121.875997,0.970666642 L121.875997,21.4453328 L92.3319977,21.4453328 C89.7959978,21.4453328 87.3826645,21.9066661 85.0933312,22.8346661 C82.8013313,23.7599994 80.8266646,25.0519994 79.1706647,26.710666 C77.5106647,28.366666 76.1946648,30.2946659 75.2213315,32.4879992 C74.2453315,34.6813325 73.7586648,37.0439991 73.7586648,39.5813323 C73.7586648,42.1146656 74.2199981,44.5039989 75.1479981,46.7479988 C76.0733314,48.9893321 77.3653314,50.9626654 79.023998,52.6706653 C80.679998,54.3746653 82.6079979,55.7173319 84.8013312,56.6933319 C86.9946645,57.6666652 89.3573311,58.1546652 91.893331,58.1546652 C94.5279976,58.1546652 96.9626642,57.6919986 99.2066642,56.7666652 C101.447997,55.8386653 103.397331,54.5466653 105.055997,52.889332 C106.713331,51.2306654 108.030664,49.2813321 109.005331,47.0399988 C109.062664,46.9093322 109.101331,46.7706655 109.155997,46.6386655 L95.4653309,46.6386655 L95.4653309,28.7613326 L106.814664,28.7613326 C106.813331,28.7599993 106.813331,28.7586659 106.811997,28.7573326 L129.334663,28.7573326 C130.406663,32.4626659 130.943997,36.1186658 130.943997,39.7266657 C130.943997,45.0879989 129.919997,50.1599987 127.87333,54.937332 C125.82533,59.7133318 123.046664,63.8599984 119.535997,67.3693316 Z M482.238655,28.7573326 C483.309321,32.4626659 483.846655,36.1186658 483.846655,39.7266657 C483.846655,45.0879989 482.822655,50.1599987 480.774655,54.937332 C478.726655,59.7133318 475.949321,63.8599984 472.437322,67.3693316 C468.927988,70.8799982 464.782655,73.6333315 460.006655,75.6333314 C455.229322,77.6293314 450.110655,78.6306647 444.649322,78.6306647 C439.287989,78.6306647 434.266656,77.6079981 429.585323,75.5586648 C424.906656,73.5119982 420.833323,70.7079982 417.373323,67.150665 C413.913323,63.5893317 411.181323,59.4453318 409.185323,54.7186653 C407.185323,49.9879988 406.186657,44.9426655 406.186657,39.5813323 C406.186657,34.2186658 407.209323,29.1973326 409.25599,24.5173327 C411.305323,19.8373328 414.106656,15.7426663 417.666656,12.2319997 C421.223989,8.72133312 425.366656,5.96666652 430.098656,3.96933323 C434.826656,1.96933328 439.871989,0.970666642 445.234656,0.970666642 L474.778655,0.970666642 L474.778655,21.4453328 L445.234656,21.4453328 C442.697322,21.4453328 440.285322,21.9066661 437.994656,22.8346661 C435.703989,23.7599994 433.729322,25.0519994 432.073323,26.710666 C430.413323,28.366666 429.097323,30.2946659 428.123989,32.4879992 C427.146656,34.6813325 426.661323,37.0439991 426.661323,39.5813323 C426.661323,42.1146656 427.122656,44.5039989 428.050656,46.7479988 C428.974656,48.9893321 430.267989,50.9626654 431.926656,52.6706653 C433.582656,54.3746653 435.510656,55.7173319 437.702656,56.6933319 C439.897322,57.6666652 442.259989,58.1546652 444.797322,58.1546652 C447.429322,58.1546652 449.863989,57.6919986 452.109322,56.7666652 C454.350655,55.8386653 456.301322,54.5466653 457.959989,52.889332 C459.615989,51.2306654 460.931988,49.2813321 461.907988,47.0399988 C461.965322,46.9093322 462.003988,46.7706655 462.057322,46.6386655 L448.366655,46.6386655 L448.366655,28.7613326 L459.717322,28.7613326 C459.715989,28.7599993 459.715989,28.7586659 459.715989,28.7586659 L482.238655,28.7573326 Z M248.901327,78.6306647 L232.017328,78.6306647 C226.653328,78.6306647 221.607994,77.6079981 216.879995,75.5586648 C212.149328,73.5119982 208.030661,70.7333316 204.521328,67.222665 C201.010662,63.7133317 198.254662,59.5919985 196.257328,54.8639986 C194.257328,50.1346654 193.259995,45.0879989 193.259995,39.7266657 L193.259995,0.970666642 L214.027995,0.970666642 L214.027995,39.7266657 C213.929328,42.2613323 214.342661,44.6493322 215.270661,46.8933322 C216.195995,49.1346654 217.487995,51.0839987 219.146661,52.7439987 C220.802661,54.401332 222.751994,55.7173319 224.997328,56.6933319 C227.238661,57.6666652 229.626661,58.1546652 232.162661,58.1546652 L248.901327,58.1546652 L248.901327,78.6306647 Z M159.827996,75.5586648 C155.097329,73.5119982 150.978663,70.7333316 147.46933,67.222665 C143.958663,63.7133317 141.202663,59.5919985 139.20533,54.8639986 C137.206663,50.1346654 136.207997,45.0879989 136.207997,39.7266657 L136.207997,0.970666642 L156.974663,0.970666642 L156.974663,39.7266657 C156.877329,42.2613323 157.290663,44.6493322 158.218663,46.8933322 C159.143996,49.1346654 160.435996,51.0839987 162.094663,52.7439987 C163.750663,54.401332 165.699996,55.7173319 167.943996,56.6933319 C170.186662,57.6666652 172.574662,58.1546652 175.110662,58.1546652 L191.849329,58.1546652 L191.849329,78.6306647 L174.965329,78.6306647 C169.601329,78.6306647 164.555996,77.6079981 159.827996,75.5586648 Z M315.299992,67.1493317 C311.790659,70.7093316 307.694659,73.5119982 303.014659,75.5586648 C298.334659,77.6066647 293.313326,78.6306647 287.951993,78.6306647 C282.589326,78.6306647 277.543993,77.6319981 272.813327,75.6319981 C268.085327,73.6346648 263.94266,70.9039982 260.381327,67.442665 C256.823994,63.9813317 254.021327,59.9106652 251.971994,55.2306653 C249.923994,50.5506654 248.901327,45.5293322 248.901327,40.1653323 C248.901327,34.7066658 249.90266,29.5879993 251.899994,24.8079994 C253.89866,20.0333328 256.651994,15.8879996 260.16266,12.377333 C263.673327,8.86666644 267.817327,6.08933318 272.59466,4.04133323 C277.371993,1.99333328 282.443993,0.970666642 287.805326,0.970666642 C291.413326,0.970666642 295.069326,1.50799996 298.773326,2.57999994 L298.773326,25.1013327 C295.751993,22.6653328 292.095993,21.4453328 287.805326,21.4453328 C285.171993,21.4453328 282.737326,21.9346661 280.491993,22.9079994 C278.249326,23.8839994 276.301326,25.198666 274.641326,26.8573327 C272.985327,28.5159993 271.69466,30.4653326 270.765327,32.7066658 C269.839993,34.9506658 269.377327,37.3879991 269.377327,40.019999 C269.377327,42.5559989 269.865327,44.9186655 270.839993,47.1133322 C271.81466,49.3066654 273.157327,51.2333321 274.861326,52.889332 C276.569326,54.549332 278.541326,55.8399986 280.785326,56.7653319 C283.027993,57.6933319 285.415993,58.1546652 287.951993,58.1546652 C290.487993,58.1546652 292.850659,57.6679986 295.043993,56.6933319 C297.238659,55.7199986 299.163993,54.4026653 300.821326,52.7439987 C302.479992,51.0866654 303.770659,49.1119988 304.697326,46.8199988 C305.625326,44.5306656 306.085326,42.1173323 306.085326,39.5813323 L306.085326,0.970666642 L326.562659,0.970666642 L326.562659,39.5813323 C326.562659,44.9439989 325.562659,49.9893321 323.563992,54.7186653 C321.566659,59.4479985 318.810659,63.5906651 315.299992,67.1493317 Z" id="path22" fill="#FFFFFF"></path>
                            </g>
                            <g id="g24" transform="translate(11.894533, 3.348933)" fill="#FFFFFF">
                                <polygon id="path26" points="19.9999995 0 12.2719997 12.0719997 4.41599989 0 1.26399997 0 11.2279997 14.9879996 13.293333 14.9879996 23.1933328 0" fill="#FFFFFF"></polygon>
                            </g>
                            <g id="g28" transform="translate(39.071599, 2.856800)" fill="#FFFFFF">
                                <polygon id="path30" points="3.9999999 6.6666665 3.9999999 0.491999988 1.16799997 0.491999988 1.16799997 15.4799996 16.5826663 15.4799996 16.5826663 13.265333 3.9999999 13.265333 3.9999999 8.87999978 15.7306663 8.87999978 15.7306663 6.6666665" fill="#FFFFFF"></polygon>
                            </g>
                            <g id="g32" transform="translate(60.662132, 3.348933)" fill="#FFFFFF">
                                <polygon id="path34" points="7.9999998 0 7.9999998 12.773333 0.143999996 12.773333 0.143999996 14.9879996 18.4746662 14.9879996 18.4746662 12.773333 10.8319997 12.773333 10.8319997 0" fill="#FFFFFF"></polygon>
                            </g>
                            <g id="g36" transform="translate(84.800131, 3.348933)" fill="#FFFFFF">
                                <polygon id="path38" points="0 0 0 14.9879996 15.4146663 14.9879996 15.4146663 12.773333 2.83199993 12.773333 2.83199993 9.02799977 14.7759996 9.02799977 14.7759996 6.81199983 2.83199993 6.81199983 2.83199993 2.21333328 15.4146663 2.21333328 15.4146663 0" fill="#FFFFFF"></polygon>
                            </g>
                            <g id="g40" transform="translate(106.326131, 2.738267)" fill-rule="nonzero" fill="#FFFFFF">
                                <path d="M14.6666663,11.9999997 C14.6666663,12.9226663 14.041333,13.3839997 12.793333,13.3839997 L2.89333326,13.3839997 L2.89333326,9.5093331 L12.793333,9.5093331 C14.041333,9.5093331 14.6666663,9.97199975 14.6666663,10.8933331 L14.6666663,11.9999997 Z M14.305333,0.610666651 L10.7919997,7.29599982 L2.89333326,7.29599982 L2.89333326,0.610666651 L0.0613333318,0.610666651 L0.0613333318,15.5986663 L12.793333,15.5986663 C13.6439997,15.5986663 14.3679996,15.5106663 14.965333,15.3319996 C15.5599996,15.1546663 16.0466663,14.9066663 16.4226663,14.5866663 C16.7986662,14.2679996 17.0719996,13.8879997 17.2426662,13.4479997 C17.4133329,13.0079997 17.4986662,12.5186664 17.4986662,11.9786664 L17.4986662,10.9159997 C17.4986662,9.94933308 17.2146662,9.14399977 16.6466663,8.49866645 C16.0786663,7.85333314 15.1279996,7.46666648 13.793333,7.33866648 L17.3279996,0.610666651 L14.305333,0.610666651 Z" id="path42" fill="#FFFFFF"></path>
                            </g>
                            <g id="g44" transform="translate(128.965463, 3.348933)" fill="#FFFFFF">
                                <polygon id="path46" points="15.9999996 0 15.9999996 6.81199983 3.73733324 6.81199983 3.73733324 0 0.905333311 0 0.905333311 14.9879996 3.73733324 14.9879996 3.73733324 9.02799977 15.9999996 9.02799977 15.9999996 14.9879996 18.8319995 14.9879996 18.8319995 0" fill="#FFFFFF"></polygon>
                            </g>
                            <g id="g48" transform="translate(153.371063, 2.738267)" fill-rule="nonzero" fill="#FFFFFF">
                                <path d="M17.3333329,11.9999997 C17.3333329,12.9226663 16.7093329,13.3839997 15.4599996,13.3839997 L5.55999986,13.3839997 C4.31066656,13.3839997 3.68666657,12.9226663 3.68666657,11.9999997 L3.68666657,4.20799989 C3.68666657,3.28533325 4.31066656,2.82399993 5.55999986,2.82399993 L15.4599996,2.82399993 C16.7093329,2.82399993 17.3333329,3.28533325 17.3333329,4.20799989 L17.3333329,11.9999997 Z M5.55999986,0.610666651 C4.70799988,0.610666651 3.9839999,0.698666649 3.38933325,0.875999978 C2.79199993,1.05333331 2.30533328,1.30266663 1.93066662,1.62133329 C1.55466663,1.94133328 1.27999997,2.31999994 1.11066664,2.75999993 C0.939999977,3.19999992 0.854666645,3.69066657 0.854666645,4.22933323 L0.854666645,11.9786664 C0.854666645,12.5186664 0.939999977,13.0079997 1.11066664,13.4479997 C1.27999997,13.8879997 1.55466663,14.2679996 1.93066662,14.5866663 C2.30533328,14.9066663 2.79199993,15.1546663 3.38933325,15.3319996 C3.9839999,15.5106663 4.70799988,15.5986663 5.55999986,15.5986663 L15.4599996,15.5986663 C16.3119996,15.5986663 17.0346662,15.5106663 17.6319996,15.3319996 C18.2279995,15.1546663 18.7133329,14.9066663 19.0893329,14.5866663 C19.4666662,14.2679996 19.7399995,13.8879997 19.9093328,13.4479997 C20.0799995,13.0079997 20.1653328,12.5186664 20.1653328,11.9786664 L20.1653328,4.22933323 C20.1653328,3.69066657 20.0799995,3.19999992 19.9093328,2.75999993 C19.7399995,2.31999994 19.4666662,1.94133328 19.0893329,1.62133329 C18.7133329,1.30266663 18.2279995,1.05333331 17.6319996,0.875999978 C17.0346662,0.698666649 16.3119996,0.610666651 15.4599996,0.610666651 L5.55999986,0.610666651 Z" id="path50" fill="#FFFFFF"></path>
                            </g>
                            <g id="g52" transform="translate(179.274129, 3.348933)" fill="#FFFFFF">
                                <path d="M5.3333332,0 C4.48133322,0 3.75733324,0.0879999978 3.16133325,0.265333327 C2.56533327,0.442666656 2.07866661,0.691999983 1.70266662,1.01066664 C1.32666663,1.33066663 1.05466664,1.70933329 0.883999978,2.14933328 C0.713333316,2.58933327 0.627999984,3.07999992 0.627999984,3.61866658 L0.627999984,14.9879996 L3.45999991,14.9879996 L3.45999991,3.59733324 C3.45999991,2.6746666 4.0839999,2.21333328 5.3333332,2.21333328 L14.637333,2.21333328 C15.8853329,2.21333328 16.5106663,2.6746666 16.5106663,3.59733324 L16.5106663,14.9879996 L19.3413328,14.9879996 L19.3413328,3.61866658 C19.3413328,3.07999992 19.2893329,2.58933327 19.1826662,2.14933328 C19.0759995,1.70933329 18.8693329,1.33066663 18.5653329,1.01066664 C18.2599995,0.691999983 17.8413329,0.442666656 17.3079996,0.265333327 C16.7773329,0.0879999978 16.0839996,0 15.233333,0 L5.3333332,0 Z" id="path54" fill="#FFFFFF"></path>
                            </g>
                            <g id="g56" transform="translate(205.026662, 2.738267)" fill-rule="nonzero" fill="#FFFFFF">
                                <path d="M14.6666663,11.9999997 C14.6666663,12.9226663 14.041333,13.3839997 12.793333,13.3839997 L2.89333326,13.3839997 L2.89333326,9.5093331 L12.793333,9.5093331 C14.041333,9.5093331 14.6666663,9.97199975 14.6666663,10.8933331 L14.6666663,11.9999997 Z M14.305333,0.610666651 L10.7919997,7.29599982 L2.89333326,7.29599982 L2.89333326,0.610666651 L0.0613333318,0.610666651 L0.0613333318,15.5986663 L12.793333,15.5986663 C13.6439997,15.5986663 14.3679996,15.5106663 14.965333,15.3319996 C15.5599996,15.1546663 16.0466663,14.9066663 16.4226663,14.5866663 C16.7986662,14.2679996 17.0719996,13.8879997 17.2426662,13.4479997 C17.4133329,13.0079997 17.4986662,12.5186664 17.4986662,11.9786664 L17.4986662,10.9159997 C17.4986662,9.94933308 17.2146662,9.14399977 16.6466663,8.49866645 C16.0786663,7.85333314 15.1279996,7.46666648 13.793333,7.33866648 L17.3279996,0.610666651 L14.305333,0.610666651 Z" id="path58" fill="#FFFFFF"></path>
                            </g>
                            <g id="g60" transform="translate(227.429061, 3.348933)" fill="#FFFFFF">
                                <path d="M1.3333333,0 L1.3333333,2.21333328 L14.3626663,2.21333328 C15.6119996,2.21333328 16.2359996,2.6746666 16.2359996,3.59733324 L16.2359996,5.49199986 C16.2359996,6.41599984 15.6119996,6.87599983 14.3626663,6.87599983 L5.54933319,6.87599983 C4.69733322,6.87599983 3.97333323,6.96533316 3.37733325,7.14133315 C2.78133326,7.31999982 2.29466661,7.56799981 1.91866662,7.8879998 C1.54266663,8.20666646 1.2693333,8.58666645 1.09866664,9.02799977 C0.92933331,9.46666643 0.843999979,9.95599975 0.843999979,10.4959997 L0.843999979,11.3679997 C0.843999979,11.9079997 0.92933331,12.397333 1.09866664,12.837333 C1.2693333,13.277333 1.54266663,13.657333 1.91866662,13.9759997 C2.29466661,14.2959996 2.78133326,14.5439996 3.37733325,14.721333 C3.97333323,14.8999996 4.69733322,14.9879996 5.54933319,14.9879996 L18.2373329,14.9879996 L18.2373329,12.773333 L5.54933319,12.773333 C4.29999989,12.773333 3.67466657,12.3119997 3.67466657,11.389333 L3.67466657,10.4733331 C3.67466657,9.55199976 4.29999989,9.09066644 5.54933319,9.09066644 L14.3626663,9.09066644 C15.2146663,9.09066644 15.9386663,9.00133311 16.5346663,8.82399978 C17.1306662,8.64666645 17.6159996,8.39866646 17.9933329,8.0799998 C18.3693329,7.75999981 18.6426662,7.37999982 18.8133329,6.93999983 C18.9839995,6.49999984 19.0679995,6.01066652 19.0679995,5.47199986 L19.0679995,3.61866658 C19.0679995,3.07999992 18.9839995,2.58933327 18.8133329,2.14933328 C18.6426662,1.70933329 18.3693329,1.33066663 17.9933329,1.01066664 C17.6159996,0.691999983 17.1306662,0.442666656 16.5346663,0.265333327 C15.9386663,0.0879999978 15.2146663,0 14.3626663,0 L1.3333333,0 Z" id="path62" fill="#FFFFFF"></path>
                            </g>
                            <polygon id="path64" points="263.805327 20.6786661 265.785327 20.6786661 265.785327 1.00666664 263.805327 1.00666664" fill="#FFFFFF"></polygon>
                            <g id="g66" transform="translate(283.542926, 3.348933)" fill="#FFFFFF">
                                <polygon id="path68" points="0 0 0 14.9879996 2.85333326 14.9879996 2.85333326 2.21333328 15.009333 2.21333328 15.009333 0" fill="#FFFFFF"></polygon>
                            </g>
                            <g id="g70" transform="translate(301.652392, 3.348933)" fill="#FFFFFF">
                                <polygon id="path72" points="19.9999995 0 12.2706664 12.0719997 4.41599989 0 1.26399997 0 11.2279997 14.9879996 13.293333 14.9879996 23.1933328 0" fill="#FFFFFF"></polygon>
                            </g>
                            <g id="g74" transform="translate(327.940125, 3.348933)" fill="#FFFFFF">
                                <path d="M1.3333333,0 L1.3333333,2.21333328 L14.361333,2.21333328 C15.6119996,2.21333328 16.2359996,2.6746666 16.2359996,3.59733324 L16.2359996,5.49199986 C16.2359996,6.41599984 15.6119996,6.87599983 14.361333,6.87599983 L5.54799986,6.87599983 C4.69599988,6.87599983 3.9719999,6.96533316 3.37599992,7.14133315 C2.78133326,7.31999982 2.29466661,7.56799981 1.91733329,7.8879998 C1.54133329,8.20666646 1.2693333,8.58666645 1.09866664,9.02799977 C0.927999977,9.46666643 0.843999979,9.95599975 0.843999979,10.4959997 L0.843999979,11.3679997 C0.843999979,11.9079997 0.927999977,12.397333 1.09866664,12.837333 C1.2693333,13.277333 1.54133329,13.657333 1.91733329,13.9759997 C2.29466661,14.2959996 2.78133326,14.5439996 3.37599992,14.721333 C3.9719999,14.8999996 4.69599988,14.9879996 5.54799986,14.9879996 L18.2373329,14.9879996 L18.2373329,12.773333 L5.54799986,12.773333 C4.29999989,12.773333 3.67466657,12.3119997 3.67466657,11.389333 L3.67466657,10.4733331 C3.67466657,9.55199976 4.29999989,9.09066644 5.54799986,9.09066644 L14.361333,9.09066644 C15.213333,9.09066644 15.9373329,9.00133311 16.5333329,8.82399978 C17.1306662,8.64666645 17.6159996,8.39866646 17.9919996,8.0799998 C18.3679995,7.75999981 18.6413329,7.37999982 18.8119995,6.93999983 C18.9826662,6.49999984 19.0679995,6.01066652 19.0679995,5.47199986 L19.0679995,3.61866658 C19.0679995,3.07999992 18.9826662,2.58933327 18.8119995,2.14933328 C18.6413329,1.70933329 18.3679995,1.33066663 17.9919996,1.01066664 C17.6159996,0.691999983 17.1306662,0.442666656 16.5333329,0.265333327 C15.9373329,0.0879999978 15.213333,0 14.361333,0 L1.3333333,0 Z" id="path76" fill="#FFFFFF"></path>
                            </g>
                            <g id="g78" transform="translate(361.165324, 3.348933)" fill="#FFFFFF">
                                <polygon id="path80" points="10.6666664 0 0.702666649 14.9879996 3.91733324 14.9879996 11.7519997 2.91733326 19.5026662 14.9879996 22.6319994 14.9879996 12.7319997 0" fill="#FFFFFF"></polygon>
                            </g>
                            <g id="g82" transform="translate(388.949190, 3.348933)" fill="#FFFFFF">
                                <polygon id="path84" points="0 0 0 14.9879996 15.4146663 14.9879996 15.4146663 12.773333 2.83199993 12.773333 2.83199993 9.02799977 14.7759996 9.02799977 14.7759996 6.81199983 2.83199993 6.81199983 2.83199993 2.21333328 15.4146663 2.21333328 15.4146663 0" fill="#FFFFFF"></polygon>
                            </g>
                            <g id="g86" transform="translate(409.108123, 3.348933)" fill="#FFFFFF">
                                <path d="M6.6666665,0 C3.10399992,0 1.32266663,1.07866664 1.32266663,3.23599992 L1.32266663,11.7506664 C1.32266663,13.909333 3.10399992,14.9879996 6.6666665,14.9879996 L18.3973329,14.9879996 L18.3973329,12.773333 L6.6666665,12.773333 C4.99199988,12.773333 4.15333323,12.433333 4.15333323,11.7506664 L4.15333323,3.23599992 C4.15333323,2.5546666 4.99199988,2.21333328 6.6666665,2.21333328 L13.2879997,2.21333328 C14.9626663,2.21333328 15.7999996,2.53999994 15.7999996,3.19333325 L15.7999996,8.17466646 L18.6319995,8.17466646 L18.6319995,3.19333325 C18.6319995,1.06399997 16.8506662,0 13.2879997,0 L6.6666665,0 Z" id="path88" fill="#FFFFFF"></path>
                            </g>
                            <g id="g90" transform="translate(430.734389, 3.348933)" fill="#FFFFFF">
                                <polygon id="path92" points="19.9999995 0 12.2706664 12.0719997 4.41599989 0 1.26399997 0 11.2279997 14.9879996 13.293333 14.9879996 23.1933328 0" fill="#FFFFFF"></polygon>
                            </g>
                            <g id="g94" transform="translate(457.022122, 3.348933)" fill="#FFFFFF">
                                <path d="M1.3333333,0 L1.3333333,2.21333328 L14.361333,2.21333328 C15.6119996,2.21333328 16.2359996,2.6746666 16.2359996,3.59733324 L16.2359996,5.49199986 C16.2359996,6.41599984 15.6119996,6.87599983 14.361333,6.87599983 L5.54799986,6.87599983 C4.69599988,6.87599983 3.9719999,6.96533316 3.37599992,7.14133315 C2.78133326,7.31999982 2.29466661,7.56799981 1.91733329,7.8879998 C1.54133329,8.20666646 1.2693333,8.58666645 1.09866664,9.02799977 C0.927999977,9.46666643 0.843999979,9.95599975 0.843999979,10.4959997 L0.843999979,11.3679997 C0.843999979,11.9079997 0.927999977,12.397333 1.09866664,12.837333 C1.2693333,13.277333 1.54133329,13.657333 1.91733329,13.9759997 C2.29466661,14.2959996 2.78133326,14.5439996 3.37599992,14.721333 C3.9719999,14.8999996 4.69599988,14.9879996 5.54799986,14.9879996 L18.2373329,14.9879996 L18.2373329,12.773333 L5.54799986,12.773333 C4.29999989,12.773333 3.67466657,12.3119997 3.67466657,11.389333 L3.67466657,10.4733331 C3.67466657,9.55199976 4.29999989,9.09066644 5.54799986,9.09066644 L14.361333,9.09066644 C15.213333,9.09066644 15.9373329,9.00133311 16.5333329,8.82399978 C17.1306662,8.64666645 17.6159996,8.39866646 17.9919996,8.0799998 C18.3679995,7.75999981 18.6413329,7.37999982 18.8119995,6.93999983 C18.9826662,6.49999984 19.0679995,6.01066652 19.0679995,5.47199986 L19.0679995,3.61866658 C19.0679995,3.07999992 18.9826662,2.58933327 18.8119995,2.14933328 C18.6413329,1.70933329 18.3679995,1.33066663 17.9919996,1.01066664 C17.6159996,0.691999983 17.1306662,0.442666656 16.5333329,0.265333327 C15.9373329,0.0879999978 15.213333,0 14.361333,0 L1.3333333,0 Z" id="path96" fill="#FFFFFF"></path>
                            </g>
                        </g>
                    </g>
                </g>
            </g>
        </g>
    </g>
</svg>