<svg xmlns:xlink="http://www.w3.org/1999/xlink" xmlns="http://www.w3.org/2000/svg" viewBox="0 0 973.3760986 234.5948486" width="973.3760986"  height="234.5948486" ><path d="M318.7 15.348s8.565 25.743-29.584 70.034c-38.14 44.299 3.915 78.125 29.247 79.209 0 0-59.805-7.98-23.86-73.53 35.944-65.54 24.197-75.713 24.197-75.713z" fill="#FFFFFF"></path><path d="M317.87 15.328s1.81-8.446 36.214 60.37c34.411 68.82-4.83 88.746-30.18 88.746 0 0 73.343-25.523-6.034-149.116zM82.922 132.713L65.727 79.082h-.21l-17.398 53.63h-10.44L18.376 68.89h10.231l14.77 53.096h.205L60.459 68.89h10.866l16.659 53.096h.21l15.293-53.096h10.023l-20.15 63.823H82.923zM185.54 68.89v7.151h-41.97v20.29h39.125v7.15H143.57v22.085h42.29v7.147h-52.313V68.89h51.993zM200.52 76.041V68.89h60.22v7.151h-25.103v56.672h-10.018V76.04h-25.1z" fill="#FFFFFF"></path><g fill="#FFFFFF"><path d="M432.524 68.89c7.171 0 12.784 1.493 16.83 4.467 4.035 2.983 6.06 7.067 6.06 12.248 0 3.874-1.04 7.27-3.114 10.187-2.076 2.923-5.392 4.92-9.968 5.988v.185c2.182.359 3.96.952 5.336 1.783 1.366.836 2.458 1.835 3.265 2.994a12.506 12.506 0 0 1 1.793 3.886c.388 1.433.679 2.922.894 4.47.143 1.555.245 3.134.323 4.743.063 1.612.233 3.188.522 4.74.283 1.549.685 3.022 1.208 4.424a10.69 10.69 0 0 0 2.379 3.708h-11.18c-.708-.656-1.178-1.545-1.426-2.682-.247-1.13-.403-2.4-.472-3.792-.075-1.4-.144-2.91-.215-4.52a26.26 26.26 0 0 0-.631-4.745 41.081 41.081 0 0 0-1.047-4.418c-.428-1.404-1.1-2.624-2.016-3.67-.908-1.038-2.107-1.876-3.58-2.5-1.48-.625-3.446-.937-5.91-.937h-24.463v27.264h-10.02V68.89h35.432zm2.112 28.962c2.112-.299 3.957-.878 5.537-1.743 1.579-.865 2.85-2.029 3.799-3.487.95-1.46 1.422-3.352 1.422-5.675 0-3.22-1.054-5.841-3.165-7.865-2.11-2.024-5.515-3.04-10.23-3.04h-24.887v22.254h20.882c2.325 0 4.53-.15 6.642-.444zM529.764 68.89v7.151H487.79v20.29h39.132v7.15H487.79v22.085h42.293v7.147h-52.307V68.89h51.988zM583.658 68.89c7.593 0 13.34 1.654 17.252 4.962 3.897 3.308 5.847 7.94 5.847 13.9 0 5.954-1.95 10.606-5.847 13.939-3.912 3.341-9.66 4.977-17.252 4.917H560.67v26.105h-10.023V68.89h33.011zm-3.364 30.571c5.682.058 9.85-.92 12.488-2.951 2.637-2.029 3.95-4.945 3.95-8.759s-1.313-6.72-3.95-8.712c-2.637-1.999-6.806-2.998-12.488-2.998H560.67v23.42h19.624zM677.74 128.022c-5.138 4.08-12.446 6.122-21.933 6.122-9.708 0-17.29-1.953-22.734-5.852-5.453-3.903-8.174-10.127-8.174-18.64V68.89h10.013v40.761c0 5.718 1.8 10.052 5.386 13.008 3.587 2.95 8.75 4.423 15.509 4.423 6.391 0 11.264-1.474 14.601-4.423 3.34-2.956 5.014-7.29 5.014-13.008V68.89h10.016v40.761c0 8.166-2.568 14.288-7.698 18.371zM737.219 68.89c1.62 0 3.361.015 5.22.044 1.862.036 3.708.12 5.54.272 1.821.148 3.54.368 5.116.67 1.583.293 2.934.744 4.055 1.337a18.698 18.698 0 0 1 6.275 5.185c1.721 2.207 2.584 4.915 2.584 8.13 0 3.397-.963 6.338-2.896 8.805-1.94 2.477-4.7 4.31-8.281 5.504v.174c4.634.838 8.188 2.624 10.646 5.364 2.464 2.742 3.694 6.077 3.694 10.009 0 2.325-.492 4.594-1.473 6.795-.99 2.211-2.446 4.16-4.376 5.856-1.94 1.708-4.334 3.07-7.17 4.115-2.848 1.041-6.137 1.563-9.864 1.563h-36.385V68.89h27.315zm2.744 27.442c5.698 0 9.795-.852 12.292-2.55 2.492-1.695 3.734-4.245 3.734-7.642 0-2.26-.422-4.049-1.258-5.364-.847-1.309-2.004-2.32-3.484-3.036-1.476-.713-3.179-1.177-5.11-1.387a57.481 57.481 0 0 0-6.174-.312h-20.037v20.29h20.037zm5.069 29.234c4.427 0 7.89-1.015 10.382-3.043 2.49-2.022 3.736-4.829 3.736-8.407 0-2.088-.455-3.816-1.362-5.185-.917-1.364-2.132-2.456-3.638-3.257-1.516-.804-3.257-1.375-5.226-1.698a36.932 36.932 0 0 0-6.112-.495h-22.886v22.085h25.106zM800.594 68.89v56.676h39.872v7.147h-49.878V68.89h10.006zM865.982 68.89v63.823h-10.018V68.89h10.018zM936.81 77.916c-3.835-2.26-8.392-3.39-13.666-3.39-4.494 0-8.346.713-11.547 2.144-3.206 1.426-5.836 3.353-7.914 5.765-2.073 2.412-3.598 5.167-4.588 8.268-.985 3.096-1.471 6.31-1.471 9.65 0 3.636.486 7.074 1.471 10.321.99 3.246 2.515 6.077 4.588 8.496 2.078 2.414 4.726 4.334 7.967 5.767 3.233 1.431 7.103 2.145 11.601 2.145 3.308 0 6.242-.46 8.806-1.382 2.572-.926 4.784-2.207 6.652-3.846a17.793 17.793 0 0 0 4.378-5.865c1.052-2.26 1.68-4.7 1.89-7.323H955c-.985 8.043-4.258 14.305-9.813 18.775-5.551 4.471-13.148 6.703-22.774 6.703-5.836 0-10.941-.847-15.301-2.55-4.357-1.695-7.977-4.03-10.861-7.014-2.88-2.978-5.043-6.5-6.487-10.553-1.44-4.05-2.158-8.402-2.158-13.054 0-4.641.767-9.006 2.318-13.09 1.543-4.08 3.812-7.642 6.804-10.678 2.983-3.043 6.714-5.44 11.177-7.196 4.467-1.761 9.577-2.642 15.346-2.642 3.937 0 7.664.453 11.187 1.344 3.504.894 6.638 2.207 9.38 3.933a24.095 24.095 0 0 1 6.862 6.478c1.819 2.595 3.018 5.589 3.575 8.988h-10.013c-1.128-4.53-3.603-7.922-7.433-10.194z" fill="#FFFFFF"></path></g><g fill="#FFFFFF"><path d="M22.432 194.237h4.114v13.503c0 2.09.054 3.46.15 4.093.184 1.1.618 1.957 1.306 2.554.685.602 1.591.894 2.717.894.953 0 1.735-.207 2.341-.63.602-.429 1.01-1.017 1.234-1.77.222-.754.33-2.37.33-4.847v-13.797h4.116v13.092c0 3.344-.18 5.765-.537 7.252-.358 1.5-1.163 2.702-2.416 3.625-1.252.927-2.903 1.389-4.956 1.389-2.128 0-3.797-.384-4.994-1.153-1.192-.76-2.06-1.839-2.6-3.23-.543-1.39-.805-3.95-.805-7.673v-13.302zM66.668 219.16v-24.711h4.116v20.5h10.27v4.211H66.668zM109.99 219.16v-20.707h-6.072v-4.216h16.248v4.216h-6.056v20.707h-4.12zM146.322 219.16v-24.923h8.696c2.22 0 3.803.23 4.758.678.954.453 1.735 1.222 2.345 2.323.616 1.112.92 2.436.92 3.97 0 1.948-.47 3.522-1.404 4.713-.936 1.19-2.268 1.935-3.986 2.238.884.637 1.618 1.335 2.19 2.086.583.754 1.373 2.105 2.366 4.058l2.486 4.857h-4.923l-2.988-5.42c-1.079-1.961-1.806-3.187-2.192-3.682-.385-.495-.79-.829-1.225-1.014-.43-.194-1.123-.288-2.08-.288h-.846v10.404h-4.117zm4.117-14.38h3.063c1.865 0 3.06-.08 3.568-.246.515-.165.924-.493 1.244-.994.314-.497.48-1.16.48-1.989 0-.784-.166-1.429-.48-1.91a2.47 2.47 0 0 0-1.292-.997c-.387-.12-1.5-.191-3.35-.191h-3.233v6.326zM208.848 219.16h-4.478l-1.787-5.642h-8.181l-1.694 5.642h-4.387l7.962-24.923h4.367l8.198 24.923zm-7.597-9.858l-2.821-9.244-2.772 9.244h5.593zM264.863 219.16v-24.923h6.633c2.472 0 4.087.127 4.844.36 1.214.387 2.216 1.212 3.004 2.47.787 1.256 1.184 2.88 1.184 4.859 0 1.801-.343 3.317-1.019 4.525-.686 1.224-1.536 2.078-2.555 2.57-1.023.493-2.778.74-5.271.74h-2.702v9.399h-4.118zm4.118-20.707v7.093h2.282c1.532 0 2.572-.102 3.13-.325.55-.214 1.001-.607 1.35-1.164.357-.566.532-1.253.532-2.073 0-.827-.185-1.53-.547-2.096-.362-.561-.81-.945-1.344-1.14-.54-.195-1.664-.295-3.4-.295h-2.003zM306.55 206.855c0-2.965.445-5.415 1.324-7.337.874-1.915 2.02-3.35 3.44-4.289 1.419-.943 3.135-1.413 5.154-1.413 2.927 0 5.306 1.119 7.151 3.35 1.843 2.232 2.763 5.409 2.763 9.535 0 4.17-.976 7.428-2.928 9.777-1.71 2.078-4.032 3.117-6.97 3.117-2.958 0-5.296-1.03-7.007-3.08-1.95-2.344-2.927-5.57-2.927-9.66zm4.252-.172c0 2.862.544 5.027 1.639 6.46 1.092 1.427 2.436 2.138 4.05 2.138 1.623 0 2.974-.704 4.038-2.129 1.065-1.418 1.602-3.607 1.602-6.55 0-2.888-.518-5.024-1.561-6.41-1.038-1.38-2.396-2.074-4.079-2.074-1.679 0-3.047.698-4.097 2.091-1.059 1.39-1.592 3.547-1.592 6.474zM352.255 206.855c0-2.965.434-5.415 1.32-7.337.878-1.915 2.028-3.35 3.445-4.289 1.414-.943 3.13-1.413 5.148-1.413 2.926 0 5.308 1.119 7.151 3.35 1.843 2.232 2.768 5.409 2.768 9.535 0 4.17-.98 7.428-2.928 9.777-1.71 2.078-4.04 3.117-6.97 3.117-2.96 0-5.296-1.03-7.01-3.08-1.95-2.344-2.924-5.57-2.924-9.66zm4.252-.172c0 2.862.546 5.027 1.635 6.46 1.091 1.427 2.44 2.138 4.053 2.138 1.623 0 2.974-.704 4.04-2.129 1.058-1.418 1.598-3.607 1.598-6.55 0-2.888-.518-5.024-1.565-6.41-1.034-1.38-2.391-2.074-4.073-2.074-1.676 0-3.045.698-4.102 2.091-1.058 1.39-1.586 3.547-1.586 6.474zM398.911 219.16v-24.711h4.115v20.5h10.276v4.211h-14.39zM488.06 219.16h-4.481l-1.788-5.642h-8.184l-1.69 5.642h-4.386l7.96-24.923h4.372l8.196 24.923zm-7.6-9.858l-2.822-9.244-2.771 9.244h5.593zM516.203 219.16v-20.707h-6.076v-4.216h16.246v4.216h-6.059v20.707h-4.11zM583.887 219.16v-24.923h6.171l3.723 17.025 3.683-17.025h6.206v24.923h-3.848v-19.628l-4.082 19.628h-3.97l-4.035-19.628v19.628h-3.848zM640.733 210.018V205.8h8.895v9.932c-.901 1.05-2.167 1.954-3.813 2.721-1.647.758-3.297 1.142-4.955 1.142-2.013 0-3.792-.502-5.332-1.494-1.54-.987-2.771-2.474-3.663-4.454-.903-1.982-1.358-4.307-1.358-6.98 0-2.744.46-5.085 1.37-7.035.91-1.95 2.099-3.408 3.552-4.374 1.454-.96 3.2-1.442 5.23-1.442 2.44 0 4.385.624 5.865 1.864 1.463 1.24 2.41 3.063 2.825 5.461l-4.077.936c-.308-1.277-.868-2.258-1.683-2.942-.82-.682-1.795-1.017-2.93-1.017-1.752 0-3.18.683-4.266 2.047-1.086 1.364-1.63 3.45-1.63 6.246 0 3.005.58 5.288 1.759 6.853 1.019 1.35 2.385 2.017 4.104 2.017.8 0 1.645-.185 2.503-.56.874-.376 1.65-.9 2.328-1.553v-3.15h-4.724zM676.864 219.16v-24.923h6.166l3.714 17.025 3.692-17.025h6.197v24.923h-3.841v-19.628l-4.07 19.628h-3.975l-4.053-19.628v19.628h-3.83zM765.11 210.018V205.8h8.898v9.932c-.894 1.05-2.17 1.954-3.81 2.721-1.639.758-3.293 1.142-4.954 1.142-2.015 0-3.794-.502-5.339-1.494-1.54-.987-2.753-2.474-3.653-4.454-.917-1.982-1.353-4.307-1.353-6.98 0-2.744.45-5.085 1.37-7.035.908-1.95 2.092-3.408 3.552-4.374 1.451-.96 3.194-1.442 5.22-1.442 2.442 0 4.394.624 5.863 1.864 1.472 1.24 2.42 3.063 2.834 5.461l-4.084.936c-.308-1.277-.87-2.258-1.683-2.942-.818-.682-1.793-1.017-2.93-1.017-1.754 0-3.178.683-4.266 2.047-1.084 1.364-1.634 3.45-1.634 6.246 0 3.005.593 5.288 1.768 6.853 1.014 1.35 2.378 2.017 4.101 2.017.807 0 1.65-.185 2.515-.56.865-.376 1.64-.9 2.316-1.553v-3.15h-4.73zM801.308 219.16v-24.923h8.685c2.216 0 3.807.23 4.757.678.958.453 1.743 1.222 2.354 2.323.61 1.112.923 2.436.923 3.97 0 1.948-.477 3.522-1.409 4.713-.932 1.19-2.27 1.935-3.99 2.238.878.637 1.618 1.335 2.198 2.086.58.754 1.355 2.105 2.363 4.058l2.479 4.857h-4.922l-2.983-5.42c-1.088-1.961-1.815-3.187-2.198-3.682-.388-.495-.798-.829-1.22-1.014-.437-.194-1.119-.288-2.075-.288h-.852v10.404h-4.11zm4.11-14.38h3.054c1.878 0 3.068-.08 3.576-.246.522-.165.923-.493 1.244-.994.312-.497.473-1.16.473-1.989 0-.784-.16-1.429-.473-1.91a2.48 2.48 0 0 0-1.293-.997c-.379-.12-1.507-.191-3.348-.191h-3.233v6.326zM863.824 219.16h-4.476l-1.788-5.642h-8.185l-1.69 5.642h-4.392l7.963-24.923h4.365l8.203 24.923zm-7.592-9.858l-2.823-9.244-2.773 9.244h5.596zM889.51 219.16v-24.923h4.008l8.377 16.646v-16.646h3.834v24.923h-4.142l-8.234-16.249v16.249h-3.843zM933.528 194.237h7.535c1.899 0 3.326.221 4.298.64.967.424 1.863 1.146 2.68 2.158.81 1.003 1.453 2.31 1.92 3.923.46 1.605.692 3.607.692 6.004 0 2.151-.245 4.019-.731 5.61-.49 1.6-1.097 2.856-1.846 3.79a7.135 7.135 0 0 1-2.715 2.096c-1.057.473-2.421.702-4.084.702h-7.75v-24.923zm4.12 4.216v16.496h3.094c1.32 0 2.287-.125 2.88-.379a3.441 3.441 0 0 0 1.462-1.123c.375-.504.696-1.302.941-2.39.25-1.093.375-2.524.375-4.298 0-1.846-.125-3.295-.388-4.36-.246-1.062-.642-1.904-1.182-2.51-.535-.614-1.186-1.024-1.966-1.209-.575-.147-1.694-.227-3.344-.227h-1.872z" fill="#FFFFFF"></path></g></svg>