<svg xmlns:xlink="http://www.w3.org/1999/xlink" xmlns="http://www.w3.org/2000/svg" x="0px" y="0px" width="288" height="288" viewBox="0 0 288 288" enable-background="new 0 0 288 288" style="max-height:63%;">
<g fill="#FFFFFF">
	<g fill="#FFFFFF">
		<path d="M26.805,165.068c-6.944,2.091-18.257,9.694-21.533,13.961
			c-3.52,4.597-1.685,9.018,3.987,8.774c-5.995,2.642-15.098,18.041-4.384,20.74c14.393,3.637,22.914-14.177,32.706-16.757
			c0.284,4.189-3.383,8.842-0.408,11.962c6.659-1.443,8.529-7.683,14.356-9.967c1.29,3.057-1.793,9.245,2.004,10.364
			c5.472-1.301,7.512-6.046,12.361-7.972c-1.764,16.655,16.05,1.642,21.141-0.784c-0.037,1.688-0.668,2.779-0.401,4.767
			c3.518,8.137,13.89,1.466,16.754-2.784c6.648,0.278,9.046-3.705,11.955-7.182c1.193,1.199,3.432,1.358,4.392,2.796
			c-1.268,2.705-4.614,5.364-3.597,8.784c1.659,5.513,9.944,0.336,12.762-1.613c5.488,5.972,13.342,1.148,22.337,0.403
			c13.336-1.09,28.247,4.881,32.701-1.994c-5.24-2.261-12.008,0.42-19.137,0c-4.04-0.233-8.24-1.444-12.364-1.193
			c-7.126,0.443-16.081,4.779-19.548,0.392c1.773-3.227,10.683-4.858,9.177-9.961c-1.256-4.314-9.893-0.887-12.365,2.386
			c-1.335,1.784-1.953,4.551-1.999,7.574c-2.313,1.273-3.591,3.586-7.575,3.199c-1.545-4.346,2.433-6.233,2.404-10.364
			c-3.211-1.205-3.926-4.87-7.979-5.183c-2.619,4.024-4.039,9.268-10.784,9.166c2.948-7.171-2.835-9.649-8.756-7.58
			c-7.791,2.739-15.763,12.558-23.542,13.961c-3.798-3.75-0.399-11.734,5.588-10.773c0.025,1.483-1.767,2.693,0,3.591
			c2.864-0.716,3.972-3.205,4.382-6.381c-10.368-3.37-16.507,8.983-24.718,11.568c-2.418-2.926,2.145-8.063-0.404-11.165
			c-6.278,0.279-9.378,7.063-15.552,8.773c-1.219-3.194,4.237-7.001,0.804-9.984c-9.612,2.778-17.902,13.109-25.928,16.354
			c-4.719,1.915-10.072,1.148-9.969-4.381c0.091-4.921,5.6-8.961,9.575-11.165c3.111-1.728,10.24-2.427,6.779-6.37
			c-2.578-0.518-11.3,6.676-12.768,1.187c-0.898-3.387,5.776-7.592,8.77-9.569c4.216-2.751,8.933-5.557,12.765-4.79
			c0.827,1.227-0.702,3.04,0.398,4.391c3.504,0.126,3.805-4.727,2.392-7.182C31.734,164.3,29.444,164.278,26.805,165.068
			 M138.481,188.991c-1.46,2.682-3.819,4.42-6.784,5.591C132.401,191.167,134.321,188.968,138.481,188.991 M101.786,190.599
			c0.09,1.818-0.671,2.778-1.194,3.983C96.915,193.888,98.285,186.593,101.786,190.599 M95.41,189.792
			c0.841,1.852,0.397,6.222,3.591,6.784c-1.352,2.256-3.773,5.392-6.788,4.386C87.357,199.344,91.548,190.32,95.41,189.792" fill="#FFFFFF"></path>
		<path fill-rule="evenodd" clip-rule="evenodd" d="M225.841,53.347c2.113,1.168,4.659,1.905,6.995,2.85
			c-24.926,12.387-49.093,26.062-69.437,43.269c-20.177,17.064-38.306,37.239-46.378,66.328c-10.104,0-20.209,0-30.314,0
			C115.538,110.767,161.138,72.504,225.841,53.347L225.841,53.347z" fill="#FFFFFF"></path>
		<path fill-rule="evenodd" clip-rule="evenodd" d="M281.028,57.752
			c-16.125,9.472-37.984,18.438-50.006,32.387c-2.178,2.528-5.266,6.585-4.664,11.141c0.667,5.043,7.298,7.54,13.214,9.846
			c16.267,6.339,38.382,11.386,45.86,26.169c7.813,15.447-3.855,30.425-12.954,40.418c-14.572,16.002-30.84,27.788-48.71,40.419
			c-6.03,4.263-12.972,9.03-19.95,13.473c-2.216,1.412-5.344,3.774-6.995,4.146c-3.474,0.78-8.199,0-12.177,0
			c-11.89,0-23.462,0-35.755,0c10.43-6.649,20.948-12.258,31.091-18.396c20.65-12.497,40.111-24.302,59.332-39.642
			c4.056-3.237,8.854-7.039,13.214-11.4c4.91-4.91,11.957-12.027,8.55-20.728c-3.92-10.008-17.823-13.825-29.019-18.136
			c-9.545-3.677-22.062-7.763-25.132-15.546c-1.826-4.631-0.965-11.809,1.036-16.064c4.978-10.586,16.118-18.59,26.169-24.873
			c11.395-7.125,22.361-11.999,33.942-17.1C271.507,52.353,277.187,57.357,281.028,57.752L281.028,57.752z" fill="#FFFFFF"></path>
	</g>
	<path fill-rule="evenodd" clip-rule="evenodd" d="M147.853,90.398c-3.772,3.569-7.921,6.762-12.177,9.846
		C118.04,87.392,98.232,76.715,77.38,67.08c1.984-0.615,4.774-2.981,6.737-2.85c5.693,0.38,12.223,2.738,17.877,4.664
		C118.124,74.386,135.132,82.761,147.853,90.398L147.853,90.398z" fill="#FFFFFF"></path>
	<path fill-rule="evenodd" clip-rule="evenodd" d="M220.399,165.794c-8.072,2.638-15.753,5.666-24.096,8.032
		c-8.412-26.826-25.983-44.49-44.564-61.147c3.724-3.876,8.078-8.504,12.177-11.141
		C187.217,118.486,206.261,139.686,220.399,165.794L220.399,165.794z" fill="#FFFFFF"></path>
	<path fill-rule="evenodd" clip-rule="evenodd" d="M214.182,233.158c0.104-1.562-1.67-2.52-3.11-1.036
		C210.461,235.61,214.058,234.991,214.182,233.158L214.182,233.158z M213.922,231.345c1.26,1.775,0.159,3.574-1.296,3.627
		C209.705,235.078,209.998,229.774,213.922,231.345L213.922,231.345z" fill="#FFFFFF"></path>
	<path fill-rule="evenodd" clip-rule="evenodd" d="M211.85,231.863c0.946-0.167,1.38,0.175,1.813,0.519
		c-0.456,0.547-0.584,0.766-0.259,1.554c-1.248-0.476-0.506-0.823-1.554,0C211.85,233.245,211.85,232.554,211.85,231.863
		L211.85,231.863z" fill="#FFFFFF"></path>
</g>
</svg>