<svg xmlns:xlink="http://www.w3.org/1999/xlink" xmlns:dc="http://purl.org/dc/elements/1.1/" xmlns:cc="http://creativecommons.org/ns#" xmlns:rdf="http://www.w3.org/1999/02/22-rdf-syntax-ns#" xmlns:svg="http://www.w3.org/2000/svg" xmlns="http://www.w3.org/2000/svg" xmlns:sodipodi="http://sodipodi.sourceforge.net/DTD/sodipodi-0.dtd" xmlns:inkscape="http://www.inkscape.org/namespaces/inkscape" version="1.1" id="svg2" xml:space="preserve" width="2466.6667" height="1200" viewBox="0 0 2466.6667 1200" sodipodi:docname="Elia-Logo_Horizontal.eps"><metadata id="metadata8" fill="#FFFFFF"><rdf:rdf fill="#FFFFFF"><cc:work rdf:about="" fill="#FFFFFF"><dc:format fill="#FFFFFF">image/svg+xml</dc:format><dc:type rdf:resource="http://purl.org/dc/dcmitype/StillImage" fill="#FFFFFF"></dc:type></cc:work></rdf:rdf></metadata><defs id="defs6"></defs><sodipodi:namedview pagecolor="#ffffff" bordercolor="#666666" borderopacity="1" objecttolerance="10" gridtolerance="10" guidetolerance="10" inkscape:pageopacity="0" inkscape:pageshadow="2" inkscape:window-width="640" inkscape:window-height="480" id="namedview4" fill="#FFFFFF"></sodipodi:namedview><g id="g10" inkscape:groupmode="layer" inkscape:label="ink_ext_XXXXXX" transform="matrix(1.3333333,0,0,-1.3333333,0,1200)" fill="#FFFFFF"><g id="g12" transform="scale(0.1)" fill="#FFFFFF"><path d="m 2042.55,1972.71 h -331.49 v -370.49 h 352.48 c 159,0 258,70.5 258,187.49 v 3 c 0,114 -96,180 -278.99,180 z m 220.49,295.49 c 0,103.49 -82.5,170.99 -232.49,170.99 H 1711.06 V 2077.7 h 310.49 c 142.49,0 241.49,64.5 241.49,187.49 z m -668.97,277.48 h 446.97 c 120,0 214.5,-34.5 274.5,-92.99 43.49,-45 67.49,-100.5 67.49,-168 v -3 c 0,-136.49 -83.99,-206.99 -166.49,-242.99 124.5,-37.5 224.99,-109.49 224.99,-253.49 v -3 c 0,-179.99 -151.49,-286.48 -380.98,-286.48 h -466.48 v 1049.95" style="fill-opacity: 1; fill-rule: nonzero; stroke: none;" id="path14" fill="#FFFFFF"></path><path d="m 3277.05,2545.68 h 758.97 V 2437.69 H 3395.54 V 2079.2 h 572.98 v -108 h -572.98 v -367.48 h 647.98 v -107.99 h -766.47 v 1049.95" style="fill-opacity: 1; fill-rule: nonzero; stroke: none;" id="path16" fill="#FFFFFF"></path><path d="m 5563.01,1879.71 -238.48,535.48 -240,-535.48 z m -292.48,673.47 h 110.99 L 5860,1495.73 h -127.5 l -122.99,277.49 h -571.46 l -124.51,-277.49 h -121.49 l 478.48,1057.45" style="fill-opacity: 1; fill-rule: nonzero; stroke: none;" id="path18" fill="#FFFFFF"></path><path d="m 6559.04,2017.7 v 3.01 c 0,296.98 222,542.97 531,542.97 190.49,0 304.47,-67.5 409.47,-166.49 l -80.99,-87 c -88.5,84 -187.5,144 -329.98,144 -232.5,0 -406.49,-189 -406.49,-430.49 v -2.99 c 0,-243 175.49,-433.49 406.49,-433.49 143.98,0 238.47,55.5 338.98,151.49 l 77.99,-76.49 c -109.49,-111 -229.49,-184.49 -419.98,-184.49 -302.99,0 -526.49,238.49 -526.49,539.97" style="fill-opacity: 1; fill-rule: nonzero; stroke: none;" id="path20" fill="#FFFFFF"></path><path d="m 8318.54,2545.68 h 118.49 V 2079.2 h 605.98 v 466.48 H 9161.5 V 1495.73 h -118.49 v 472.48 h -605.98 v -472.48 h -118.49 v 1049.95" style="fill-opacity: 1; fill-rule: nonzero; stroke: none;" id="path22" fill="#FFFFFF"></path><path d="m 11062,2017.7 v 3.01 c 0,296.98 222,542.97 531,542.97 190.5,0 304.5,-67.5 409.5,-166.49 l -81,-87 c -88.5,84 -187.5,144 -330,144 -232.5,0 -406.5,-189 -406.5,-430.49 v -2.99 c 0,-243 175.5,-433.49 406.5,-433.49 144,0 238.5,55.5 339,151.49 l 78,-76.49 c -109.5,-111 -229.5,-184.49 -420,-184.49 -303,0 -526.5,238.49 -526.5,539.97" style="fill-opacity: 1; fill-rule: nonzero; stroke: none;" id="path24" fill="#FFFFFF"></path><path d="m 12821.5,2545.68 h 118.5 v -940.46 h 591 v -109.49 h -709.5 v 1049.95" style="fill-opacity: 1; fill-rule: nonzero; stroke: none;" id="path26" fill="#FFFFFF"></path><path d="m 14303.5,1935.21 v 610.47 h 118.5 v -602.97 c 0,-226.49 120,-353.99 321,-353.99 193.5,0 316.5,117 316.5,346.49 v 610.47 h 118.4 v -601.47 c 0,-305.99 -175.4,-464.98 -437.9,-464.98 -259.5,0 -436.5,158.99 -436.5,455.98" style="fill-opacity: 1; fill-rule: nonzero; stroke: none;" id="path28" fill="#FFFFFF"></path><path d="m 16507,1972.71 h -331.5 v -370.49 h 352.4 c 159.1,0 258,70.5 258,187.49 v 3 c 0,114 -96,180 -278.9,180 z m 220.4,295.49 c 0,103.49 -82.5,170.99 -232.4,170.99 h -319.5 V 2077.7 h 310.5 c 142.4,0 241.4,64.5 241.4,187.49 z m -668.9,277.48 h 446.9 c 120,0 214.5,-34.5 274.5,-92.99 43.5,-45 67.5,-100.5 67.5,-168 v -3 c 0,-136.49 -84,-206.99 -166.5,-242.99 124.5,-37.5 225,-109.49 225,-253.49 v -3 c 0,-179.99 -151.5,-286.48 -381,-286.48 h -466.4 v 1049.95" style="fill-opacity: 1; fill-rule: nonzero; stroke: none;" id="path30" fill="#FFFFFF"></path><path d="m 4797.73,7458.29 c 21.58,60.38 117.29,76.56 176.91,54.71 69.71,-25.56 76,-101.95 54.43,-162.34 -73.8,-206.52 -452.79,-386.45 -502.5,-368.23 -14.95,5.48 -12.79,27.5 1.57,67.72 23.41,65.5 215.58,256.98 269.59,408.14" style="fill-opacity: 1; fill-rule: nonzero; stroke: none;" id="path32" fill="#FFFFFF"></path><path d="m 3429.12,3834.41 c -295.65,0 -492.79,108.9 -492.79,399.44 0,492.73 612.07,855.8 1348.64,1099.63 -295.65,93.3 -503.11,306.04 -503.11,622.4 0,394.27 632.78,861.07 1099.62,861.07 155.61,0 264.51,-88.23 264.51,-306.03 0,-67.47 -67.42,-368.34 -191.92,-368.34 -51.86,0 -93.35,41.54 -93.35,98.57 0,57.13 103.73,186.8 103.73,331.97 0,103.73 -36.32,145.26 -108.89,145.26 -331.98,0 -902.56,-451.3 -902.56,-741.73 0,-300.87 254.17,-570.53 767.67,-570.53 31.15,0 41.48,-10.44 41.48,-20.77 0,-36.37 -93.35,-103.73 -140.05,-103.73 -20.71,0 -62.25,31.09 -98.52,20.76 -778.04,-207.57 -1410.88,-560.2 -1410.88,-1063.36 0,-197.14 228.23,-269.77 560.2,-269.77 850.68,0 2463.82,767.66 2666.12,866.23 10.38,5.17 20.72,10.44 36.32,10.44 10.33,0 25.93,-5.27 25.93,-31.21 0,-10.33 -10.38,-31.09 -36.32,-41.43 -145.26,-72.63 -1971.08,-938.87 -2935.83,-938.87" style="fill-opacity: 1; fill-rule: nonzero; stroke: none;" id="path34" fill="#FFFFFF"></path><path d="m 8102.38,6453.88 c 57.09,119.24 83.02,207.47 83.02,259.34 0,25.93 -10.38,41.43 -31.15,41.43 -300.81,0 -990.69,-886.9 -1457.53,-1701.27 648.38,482.4 1208.58,990.74 1405.66,1400.5 z M 6235.09,3907.05 c 0,-108.9 77.79,-171.2 254.16,-171.2 456.67,0 1605.02,1172.07 2134.12,1436.57 10.38,5.17 57.1,2.96 72.7,2.96 10.39,0 25.93,-5.27 25.93,-31.2 0,-10.33 -5.79,-40.64 -31.72,-50.97 -674.31,-337.14 -1677.15,-1414.4 -2273.66,-1414.4 -233.4,0 -373.46,98.57 -373.46,342.3 0,674.37 1384.91,2821.77 2100.71,2821.77 67.47,0 108.95,-46.7 108.95,-129.66 0,-77.8 -25.94,-176.37 -88.18,-306.04 -223.02,-456.46 -855.85,-1016.66 -1566.49,-1525 -217.85,-404.6 -363.06,-767.67 -363.06,-975.13" style="fill-opacity: 1; fill-rule: nonzero; stroke: none;" id="path36" fill="#FFFFFF"></path><path d="m 9928.5,6816.95 c 114.9,0 160.9,-107.3 160.9,-199.33 0,-168.51 -92,-329.38 -214.56,-329.38 -22.96,0 -153.24,99.52 -153.24,298.85 0,130.19 91.96,229.86 206.9,229.86 z M 9568.36,4119.68 c -283.51,0 -459.8,92.03 -459.8,329.53 0,229.86 268.18,605.33 268.18,743.3 0,61.21 -30.61,99.52 -107.23,99.52 -214.59,0 -452.09,-145.61 -597.69,-206.82 -15.35,-7.63 -30.68,-15.41 -53.66,-15.41 -15.33,0 -38.3,7.78 -38.3,46.09 0,15.27 15.34,45.95 53.65,61.21 160.94,68.99 421.41,206.96 658.98,206.96 283.51,0 375.47,-99.66 375.47,-245.27 0,-214.45 -268.17,-567.02 -268.17,-781.47 0,-122.71 61.27,-176.28 160.86,-176.28 1157.05,0 2524.25,647.2 2600.95,685.51 15.3,7.63 33.1,5.85 56.1,5.85 15.3,0 35.8,1.78 35.8,-36.53 0,-15.26 -15.3,-45.94 -53.6,-61.2 -69,-30.68 -1612.4,-654.99 -2631.54,-654.99" style="fill-opacity: 1; fill-rule: nonzero; stroke: none;" id="path38" fill="#FFFFFF"></path><path d="m 13597.7,4124.85 c -347.5,0 -596.5,109 -596.5,529.1 0,20.76 -5.1,51.87 -36.2,51.87 -197.2,0 -861.1,-342.3 -1001.2,-342.3 -140,0 -243.7,72.63 -243.7,150.43 0,311.2 710.6,451.2 1089.2,451.2 57.1,0 145.3,-36.27 145.3,-57.03 0,-10.34 -15.6,-15.61 -57.1,-15.61 -700.2,0 -918.1,-233.4 -918.1,-337.13 0,-25.93 20.8,-46.7 57.1,-46.7 191.9,0 824.7,295.7 944,295.7 20.7,0 249,-134.83 249,-223.07 0,-321.53 114.1,-414.93 337.2,-414.93 643.1,0 1685.7,565.37 1934.7,669.1 10.4,5.17 20.7,10.44 36.3,10.44 10.4,0 26,-5.27 26,-31.21 0,-10.33 -10.5,-31.09 -36.4,-41.43 -233.4,-114.17 -1255.2,-648.43 -1929.6,-648.43" style="fill-opacity: 1; fill-rule: nonzero; stroke: none;" id="path40" fill="#FFFFFF"></path></g></g></svg>