<svg xmlns:xlink="http://www.w3.org/1999/xlink" xmlns="http://www.w3.org/2000/svg" viewBox="0 0 942 251.4380798" width="942"  height="251.4380798" ><path d="M572.62 12.009l-44.29 121.73-50.258-98.944c-1.287-2.406-4.454-5.199-8.474-5.222-4.027.023-7.184 2.816-8.484 5.222l-50.258 98.944-44.282-121.73h-11.452l47.874 131.962h14.165l52.437-103.01 52.436 103.01H536.2l47.875-131.962H572.62zM170.852 133.704h139.626v10.247H170.852zM170.852 72.856h139.626v10.247H170.852zM170.852 12.007h139.626V22.25H170.852zM80.409 143.878c16.878 0 28.414-3.304 35.263-10.333 8.524-8.743 8.656-22.49 8.587-35.254V12h-10.773l-.012 86.676c0 24.757-5.595 35.058-32.585 35.058L14 133.749v10.181l66.409-.052zM628.711 133.704h139.637v10.247H628.711zM628.711 72.856h139.637v10.247H628.711zM628.711 12.007h139.637V22.25H628.711zM195.32 217.904c0-4.572-.595-5.348-4.39-5.348v-1.325h10.836v1.325c-3.84 0-4.39.776-4.39 5.348v21.533h-1.141l-18.927-22.584v15.132c0 4.573.593 5.349 4.387 5.349v1.327h-10.787v-1.327c3.792 0 4.343-.776 4.343-5.349v-14.08c0-4.573-.551-5.35-4.343-5.35v-1.324h9.142l15.27 18.195v-11.522zM243.929 238.66v-1.324c3.794 0 4.343-.779 4.343-5.349v-14.083c0-4.572-.549-5.349-4.343-5.349v-1.325h14.447v1.325c-3.794 0-4.39.777-4.39 5.349v14.083c0 4.57.596 5.349 4.39 5.349v1.325h-14.447zM318.915 228.648v-1.325h13.486v1.325c-3.794 0-4.343.732-4.343 5.303v3.11c-5.395 0-7.315 2.377-11.886 2.377-7.727 0-14.037-6.539-14.037-14.493 0-7.955 6.31-14.494 14.037-14.494 3.2 0 6.171 1.418 8.504 3.887.593-.456.915-1.462 1.188-2.606h1.28v10.06h-1.326c-1.235-5.944-4.936-9.145-9.463-9.145-6.263 0-8.047 6.63-8.047 12.298s1.784 12.297 8.047 12.297c3.565 0 6.857-1.462 6.857-5.668 0-1.967-1.142-2.926-4.297-2.926M387.183 231.986c0 4.57.595 5.348 4.39 5.348v1.326h-14.448v-1.326c3.795 0 4.344-.778 4.344-5.348v-14.081c0-4.572-.55-5.349-4.344-5.349v-1.327h14.447v1.327c-3.794 0-4.389.777-4.389 5.349v5.165h14.035v-5.165c0-4.572-.55-5.349-4.387-5.349v-1.327h14.49v1.327c-3.794 0-4.389.777-4.389 5.349v14.081c0 4.57.595 5.348 4.39 5.348v1.326H396.83v-1.326c3.838 0 4.387-.778 4.387-5.348v-6.859h-14.035v6.859zM483.61 217.675h-1.325l-.231-.914c-.593-2.421-1.096-3.475-5.302-3.475h-4.566v18.7c0 4.57.593 5.348 4.383 5.348v1.327h-14.441v-1.327c3.794 0 4.343-.778 4.343-5.348v-18.7H461.9c-4.16 0-4.663 1.054-5.258 3.475l-.227.914h-1.372l.41-6.446h27.792l.366 6.446zM551.318 238.157c-.276-1.098-.593-2.193-1.19-2.606-2.329 2.423-5.303 3.887-8.504 3.887-7.725 0-14.033-6.539-14.033-14.493 0-7.954 6.308-14.493 14.033-14.493 3.201 0 6.175 1.417 8.503 3.886.598-.456.915-1.461 1.19-2.606h1.282v10.058h-1.325c-1.237-5.942-4.939-9.143-9.467-9.143-6.261 0-8.045 6.63-8.045 12.298s1.784 12.297 8.045 12.297c4.528 0 8.23-3.291 9.467-9.142h1.325v10.057h-1.281zM598.327 212.556v-1.325h14.447v1.325c-3.794 0-4.39.776-4.39 5.348v13.35c0 4.572.596 5.348 4.39 5.348h5.256c4.207 0 4.71-1.05 5.304-3.473l.23-.915h1.325l-.366 6.447h-26.196v-1.325c3.794 0 4.343-.778 4.343-5.35v-14.082c0-4.572-.549-5.348-4.343-5.348M688.58 212.556v-1.325h11.201v1.325c-3.794 0-4.343.776-4.343 5.348v10.56c0 7.179-4.984 10.973-11.018 10.973-6.08 0-10.973-3.794-10.973-10.973v-10.56c0-4.572-.595-5.348-4.39-5.348v-1.325h14.494v1.325c-3.84 0-4.39.776-4.39 5.348v10.058c0 5.897 3.155 8.64 7.086 8.64 3.933 0 6.722-2.743 6.722-8.64v-10.058c0-4.572-.549-5.348-4.39-5.348M763.431 230.887c0-3.109-1.874-5.714-5.807-5.714h-4.067v6.356c0 4.343.595 5.075 4.389 5.075h-.322c3.933 0 5.807-2.562 5.807-5.717m-9.874-7.771h2.56c3.43 0 5.028-2.194 5.028-4.892 0-2.65-1.598-4.937-5.029-4.937h-2.56v9.829zm16 7.864c0 4.25-3.566 7.68-9.234 7.68h-16.824v-1.325c3.794 0 4.343-.778 4.343-5.348v-14.083c0-4.573-.549-5.349-4.343-5.349v-1.325h15.543c5.03 0 8.23 3.063 8.23 6.857 0 2.376-1.235 4.435-3.382 5.67 3.565 1.096 5.668 3.931 5.668 7.223M858.686 143.878c-16.88 0-28.414-3.304-35.262-10.333-8.524-8.743-8.657-22.49-8.588-35.254V12h10.773l.013 86.676c0 24.757 5.596 35.058 32.585 35.058l69.793.015v10.181l-69.314-.052z" fill="#FFFFFF"></path></svg>