<svg xmlns:xlink="http://www.w3.org/1999/xlink" xmlns="http://www.w3.org/2000/svg" width="702.731" height="130.866" viewBox="0 0 702.731 130.866">
  <g fill="#FFFFFF">
    <g fill="#FFFFFF">
      <path d="M120.2,110.13h2.113v19.205h-1.729l-12.4-15.748v15.748H106.07V110.13H108.1l12.1,15.392Z" fill="#FFFFFF"></path>
      <path d="M171.243,110.13v19.205h-2.167V110.13Z" fill="#FFFFFF"></path>
      <path d="M226.92,129.664c-6.036,0-9.768-4.389-9.768-9.9a9.645,9.645,0,0,1,9.63-9.959,10.117,10.117,0,0,1,7.161,2.552l-1.4,1.646A8.168,8.168,0,0,0,226.7,111.8c-4.253,0-7.3,3.594-7.3,7.9,0,4.61,2.936,8.011,7.6,8.011a9.037,9.037,0,0,0,5.542-1.92v-4.773H226.7v-1.948h7.929v7.654A11.632,11.632,0,0,1,226.92,129.664Z" fill="#FFFFFF"></path>
      <path d="M282.82,120.693v8.642h-2.168V110.13h2.168v8.533H293.9V110.13h2.167v19.205H293.9v-8.642Z" fill="#FFFFFF"></path>
      <path d="M349.913,129.335h-2.194v-17.2h-6.447v-2H356.36v2h-6.447Z" fill="#FFFFFF"></path>
      <path d="M409.019,129.664A9.935,9.935,0,0,1,409.1,109.8a9.99,9.99,0,0,1,7.489,3.046l-1.482,1.591a8.347,8.347,0,0,0-6.036-2.634c-4.252,0-7.434,3.43-7.434,7.9s3.21,7.956,7.434,7.956a8.336,8.336,0,0,0,6.2-2.77l1.427,1.4A10,10,0,0,1,409.019,129.664Z" fill="#FFFFFF"></path>
      <path d="M461.625,110.13h2.168v17.2H474.6v2H461.625Z" fill="#FFFFFF"></path>
      <path d="M534.89,121.132c0,5.6-3.21,8.5-8.011,8.5-4.747,0-7.984-2.908-7.984-8.34V110.13h2.168v11.03c0,4.142,2.194,6.474,5.871,6.474,3.539,0,5.789-2.14,5.789-6.337V110.13h2.167Z" fill="#FFFFFF"></path>
      <path d="M595.591,114.932a4.648,4.648,0,0,1-3.046,4.472c2.277.685,4.115,2,4.115,4.664,0,3.319-2.77,5.267-6.969,5.267h-8.532V110.13h8.176C593.121,110.13,595.591,112,595.591,114.932Zm-2.2.3c0-1.921-1.509-3.156-4.252-3.156H583.3v6.613h5.679C591.585,118.691,593.4,117.511,593.4,115.234Zm1.07,8.7c0-2.113-1.756-3.32-5.1-3.32H583.3v6.776h6.447C592.655,127.387,594.466,126.1,594.466,123.931Z" fill="#FFFFFF"></path>
    </g>
    <g fill="#FFFFFF">
      <path d="M29.466,1.2l7.016.241c6.278.873,12.924,3.124,18.9,4.823A174.726,174.726,0,0,1,85.321,18.049a22.348,22.348,0,0,0,6.073,1.537l13.243-1.471,12.015-.237c1.751,0,3.11.753,5.24,1.025v.887c-1.968,1.744-4.163,3.46-6.486,5.682a1.391,1.391,0,0,0-.244-.488c-4.865,2.614-12.7,5.759-18.654,8.976-12.8,6.921-26.659,11.065-38.834,17.894,0,0-.127.352.511.352h4.492c.622,0,3.229.5,6.662.763l32.13,4.9c3.426.23,7.35.359,10.781.716,1.009.094,2.835,1.009,3.459,1.009h4.834c.613,0,1.608,1.026,2.056,1.7h8.246c2.338,0,6.3,1.457,6.3,3.918,0,.632-.549.939-1,1.35.448.41.945.41,1.459.99-.272.326-.837.376-4.754.376-1.448.232-3.846,1.692-4.459,1.692h-3.856c-.607,0-.661.361-.692.725h-4.71a51.469,51.469,0,0,0-6.385,1l-26.76-.24a19.955,19.955,0,0,0-3.211-.762H78.916c-.6,0-7.049-.965-7.655-.965H66.906c-.617,0-5.691-.734-11.068-1.22l-21.325-.232-23.784,4.63H7.573c-.2.225-.42.378-.441.737H3.3a1.237,1.237,0,0,0-1.5-.761C3.787,66.19,13.634,61.579,18.943,58.93c-.484-.629-.962-1.6-1.477-2.12V54.478C33.95,42.256,50.051,31.611,69.013,27.957c.228-.223.228-.479.432-.617-6.008-1.638-11.37-2.441-17.07-4.013C51.764,23.184,13.3,15.864,13.3,7.2c0,0,2.617-1.674,2.934-2.34C17.69,1.972,26.408,1.2,29.466,1.2Z" fill="#FFFFFF"></path>
      <path d="M547.409,9.8c1.037,0,1.375.734,2.576.734.606,0,.977-.734,1.605-.734,2.127,0,4.643,3.21,4.643,4.524,0,.617-1,1.232-1,1.838,0,.624.209.3.479.572v.906h-1.291c-.614,0-.272-.478-.884-.478-3.119,0-14.576,16.9-16.451,18.553a2,2,0,0,0,.413.835l8.8.226c2.962.256,8.233,1.211,8.854,1.211h5.083c1.2,0,12.591,2.2,14.515,2.459l6.867.249c1.246.23,3.093.741,3.719.741h6.3c3.407,0,18.851,3.675,18.929,3.675h7.8c.622,0,1.251.742,2.084.77v1.16c-.337.025-.582.53-.978.481.333,1.638,3.844,1.365,5.318,1.518,4.869.512,7.627.376,12.266.779,6.432.563,23,4.365,23.554,4.365H665.7c.615,0,3.333,1.22,3.962,1.22.6,0,3.431-1.957,4.031-1.957,1.3,0,15.719,4.856,18.824,6.2,2.889,1.265,5.658,3.367,8.408,5.226-.673.112-1.966-.272-2.511,1.3-1.079-.221-2.257-.376-7.418.035-3.616.256-6.569.718-9.819.718L658.37,64.968c-.5,0-.884-.723-1.5-.723h-4.853c-.61,0-.274.479-.882.479-2.978,0-6.247-2.439-9.467-2.439h-3.137c-.613,0-2.148-.76-2.763-.76h-3.355c-.615,0-.434-.476-1.064-.476h-5.076c-.6,0-.53-.5-.769-.5l-13.49-.237c-2.424-.417-11.933-1.727-12.616-1.727a2.587,2.587,0,0,0-1.558.5h-5.89c-.624,0-.448-.5-1.042-.5h-3.384c-.606,0-.751-.486-1-.486l-8.111-.23c-6.179-1.417-11.241-2.023-17.122-3.785-8.3-2.434-17.22-4.466-25.328-6.954-2.4-.727-8.181-3.987-9.028-3.987-.979,0-3.563,4-4.126,4.3-1.565.939-4.958,1.453-5.522,3.222a70.8,70.8,0,0,0-2.032,10.044v3.75c-4.724-.922-3.56,5.722-5.015,8.336-.354-1.4.08-3.518-1-4.637-4.165,2.035-4.386,4.168-7.7,4.168-5.334,0-7.845-13.668-7.845-14.836-.1-4.4-.261-4.68-.261-5.29a8.008,8.008,0,0,1,.625-1.826V39.327c.237-.469,6.486-18.462,6.486-22.423,0-1.138,7.174-4.893,7.74-4.893a28.337,28.337,0,0,1,4.224.554c2.757,2.8,5.7,15.81,5.7,17.347,0,.605-.49,1.957-.49,2.563s.49.992.577,1.462V38c4.018-4.018,7.174-10.115,11.292-15.17C530.46,21.755,543.513,9.8,547.409,9.8Z" fill="#FFFFFF"></path>
      <path d="M680.376,11.312h7.031v1.645h-2.345V19.8h-2.5V13.041a11.039,11.039,0,0,0-2.187.035V11.312Z" fill="#FFFFFF"></path>
      <path d="M688.946,11.312h3.093c.779,1.729,1.793,3.466,2.384,5.078a28.3,28.3,0,0,1,1.906-5.078h3.089V19.8h-2.35V14.2c-.563,1.647-1.046,3.6-1.84,5.63h-2.107c-.519-1.777-1.258-3.741-1.9-5.63-.129.232-.1.607.08,5.6h-2.352V11.312Z" fill="#FFFFFF"></path>
      <path d="M445.482,14.714h.814c.291.268.324.113.324.723,0,1.082-4.628,6.975-6.636,9.4-1.408,11.781-15.283,17.451-17.425,27.326-4.565,2.837-29,13.548-36.924,13.548h-6.794c-.624,0-1.007-.5-1.5-.5l-8.845-.248c-13.168-2.683-30.47-7.585-39.52-19.021-2.03-2.614-4.212-5.16-6.376-8.507-3.7-5.723-3.553-12.865-7.193-17.751,2.34-.718,3.492-2.785,6.022-2.785.606,0,2.568.734,3.192.734.6,0,.845-.478,1.46-.478.638,0,5.751,5.834,6.115,6.219a26.2,26.2,0,0,1,2.98,3.961C340,38.7,353.984,45.893,364.841,47.064l8.11.258a10.659,10.659,0,0,0,3.647.484c21.21,0,51.563-24.24,68.884-33.092Z" fill="#FFFFFF"></path>
      <path d="M200.8,26.6c4.625-.129,6.935.12,7.545.12,12.6,0,35.271,12.532,39.918,23.859.91,2.211,3.64,6.081,3.607,6.715v1.26c-1.3.035-3,.035-3.961,1.009h-6.391c-10.2.035-33.4-11.839-36.062-22.379-.031-.2-2.115-3.511-2.115-4.707,0-.094-2.684-4.417-2.541-5.271V26.6ZM178.855,12.529l26.845.207c.976.249,1.985.185,5.142.486,24.028,2.452,46.315,21.576,56.4,36.184,1.544,3.291,6.488,11.021,6.441,12.037v1.312c-.687-.742-3.337-4.168-4.135-4.168-.607,0-.781.73-1.234.941v4.578c0,.6-.962,1.641-.979,2.239v3.213c-.511.544-1.459,1.561-1.459,2.2V75.12c0,3.457-4.835,6.916-6.2,8.964h-1.361c-1.251-6.915-.242-14.817-4.6-21.566H252.8c-1.8,3.015-15.932,7.354-21.132,7.354-.61,0-3-.136-6.635-.488-15.228-1.5-30.336-14.453-33.058-29.5-3.478-4.8-1.709-10.8-5.238-16.554-3,.129-7.672-3.168-10.251-4.825-1.107-.7-.533-2.948-1.814-3.361v-1.38c1.075-.361,3.844.453,4.184-1.232Z" fill="#FFFFFF" fill-rule="evenodd"></path>
    </g>
  </g>
</svg>
