<svg xmlns:xlink="http://www.w3.org/1999/xlink" xmlns="http://www.w3.org/2000/svg" x="0px" y="0px" width="288" height="288" viewBox="0 0 288 288" enable-background="new 0 0 288 288" style="max-height:85%;">
<g fill="#FFFFFF">
	<g fill="#FFFFFF">
		<defs>
			<rect id="SVGID_1_" x="0" y="103.009" width="288" height="81.891"></rect>
		<rect id="SVGID_1_" x="0" y="103.009" width="288" height="81.891"></rect><rect id="SVGID_3_" x="0" y="103.009" width="288" height="81.891"></rect></defs>
		<clipPath id="SVGID_2_" fill="#FFFFFF">
			<use xlink:href="#SVGID_1_" overflow="visible" fill="#FFFFFF"></use>
		</clipPath>
		<path clip-path="url(#SVGID_2_)" d="M22.184,159.756c-0.025,2.529-3.196,2.736-4.002,2.736c-0.803,0-10.018,0.002-10.018,0.002
			v-5.704h10.12C19.053,156.79,22.184,157.227,22.184,159.756 M23.686,171.873c0.009,2.732-1.443,3.96-4.599,3.96H8.164v-7.382
			c0,0,9.3-0.009,11.147,0.005C21.677,168.473,23.68,169.619,23.686,171.873 M30.328,159.036c0.03-3.15-1.338-5.96-3.749-7.713
			c-2.136-1.576-4.95-2.378-8.363-2.384H4.048c-0.682,0.007-1.705,0.112-2.724,0.96c-1.017,0.869-1.351,2.134-1.322,2.981v27.167
			c-0.004,0.507,0.097,1.804,1.132,2.824c1.013,1.017,2.269,1.122,2.759,1.122h14.282h0.005c4.156-0.011,7.027-0.719,9.306-2.282
			c2.735-1.858,4.215-5.029,4.172-8.92c-0.006-3.881-1.82-6.431-3.409-7.921C29.593,163.151,30.291,161.196,30.328,159.036" fill="#FFFFFF"></path>
		<path clip-path="url(#SVGID_2_)" d="M280.103,164.165c-0.02,2.107-2.663,2.279-3.334,2.279c-0.671,0-8.348,0.002-8.348,0.002
			v-4.754h8.432C277.493,161.692,280.103,162.056,280.103,164.165 M281.354,174.261c0.01,2.276-1.202,3.299-3.832,3.299h-9.102
			v-6.15c0,0,7.749-0.009,9.288,0.003C279.679,171.427,281.35,172.383,281.354,174.261 M286.891,163.563
			c0.024-2.624-1.116-4.968-3.126-6.427c-1.779-1.314-4.124-1.982-6.971-1.987H264.99c-0.568,0.006-1.421,0.094-2.272,0.8
			c-0.848,0.724-1.124,1.779-1.101,2.486v22.639c-0.003,0.423,0.081,1.504,0.943,2.355c0.846,0.847,1.889,0.934,2.301,0.934h11.901
			h0.004c3.464-0.009,5.856-0.6,7.755-1.902c2.279-1.548,3.513-4.192,3.478-7.435c-0.005-3.233-1.517-5.358-2.841-6.601
			C286.279,166.993,286.86,165.363,286.891,163.563" fill="#FFFFFF"></path>
	</g>
	<path d="M80.299,171.463h-7.366l3.56-7.646L80.299,171.463L80.299,171.463z M90.347,178.846L80.223,156.5
		c-0.153-0.339-0.344-0.765-0.73-1.206c-0.547-0.692-1.558-1.176-2.457-1.176c-0.013,0-0.042,0-0.069,0.002l-0.084-0.002
		c-0.88,0-1.875,0.461-2.382,1.086c-0.401,0.442-0.601,0.829-0.769,1.161l-10.905,22.095c-0.008,0.016-0.014,0.031-0.022,0.047
		l-0.003-0.003c-0.17,0.27-0.52,0.834-0.62,1.978c-0.04,1.052,0.53,2.186,1.356,2.741c0.621,0.444,1.296,0.654,2.142,0.663
		c1.152,0,2.151-0.69,2.558-1.282c0.245-0.317,0.382-0.579,0.492-0.795l2.524-4.526l10.667-0.054l2.097,4.102l0.057,0.12
		c0.101,0.214,0.268,0.575,0.535,0.936c0.456,0.69,1.479,1.5,2.821,1.5l0.049,0.005h0.041c0.785,0,1.947-0.347,2.635-1.305
		c0.57-0.771,0.645-1.508,0.651-1.995c0.002-0.037,0-0.073-0.005-0.109C90.729,179.673,90.524,179.182,90.347,178.846" fill="#FFFFFF"></path>
	<path d="M116.271,173.004c-0.051-0.009-0.119,0.005-0.178,0.014c-1.352,0.215-1.89,0.702-2.324,1.183
		c-0.089,0.095-0.122,0.131-0.188,0.181c-0.043,0.029-0.084,0.064-0.121,0.103l-0.151,0.142c-1.205,1.177-2.857,2.787-6.285,2.809
		c-4.616-0.017-8.11-3.599-8.125-8.323c0.008-4.604,3.776-8.355,8.395-8.363c2.094,0.008,3.356,0.673,4.312,1.322
		c0.432,0.296,0.819,0.62,1.165,0.912l0.238,0.193c0.029,0.027,0.063,0.052,0.096,0.076c0.069,0.041,0.126,0.094,0.193,0.152
		c0.387,0.324,0.969,0.815,2.281,0.946c0.036,0.003,0.072,0.003,0.108,0.003c0.393,0,1.589,0,2.568-1.135
		c0.022-0.027,0.044-0.052,0.062-0.078c0.629-0.886,0.643-1.609,0.652-1.966l0.003-0.155c0.002-0.046,0.001-0.093-0.002-0.141
		c-0.074-0.87-0.312-1.28-0.553-1.633c-0.021-0.031-0.041-0.062-0.072-0.112c-0.021-0.038-0.043-0.07-0.068-0.105
		c-1.284-1.732-5.228-5.026-10.981-5.099c-7.306,0.013-15.2,5.82-15.217,15.183c0.017,8.478,6.576,15.13,14.939,15.146h0.002
		c3.796,0,6.761-1.462,8.584-2.689c0.985-0.666,1.864-1.422,2.593-2.243c0.078-0.106,0.158-0.201,0.24-0.3
		c0.464-0.562,0.991-1.203,1.119-2.557c0.001-0.023,0.003-0.054,0.004-0.077c0.021-0.92-0.346-1.837-0.973-2.443
		C117.969,173.333,117.168,173.006,116.271,173.004" fill="#FFFFFF"></path>
	<path d="M147.84,156.567c-0.298-1.072-1.577-2.232-3.012-2.232c-0.038,0-0.074,0.003-0.108,0.005
		c-1.286-0.044-2.733,0.946-3.106,2.103c-0.299,0.764-0.31,1.365-0.316,1.87l-0.003,7.197h-10.897l-0.002-7.284
		c-0.008-0.44-0.018-1.036-0.305-1.76c-0.343-1.04-1.61-2.128-3.009-2.128c-0.029,0-0.058,0-0.086,0.002
		c-1.313-0.052-2.801,0.998-3.134,2.195c-0.252,0.706-0.257,1.251-0.263,1.665l-0.001,21.74l0.001,0.104
		c0.005,0.402,0.011,0.947,0.254,1.626c0.329,1.195,1.717,2.228,3.015,2.228c0.029,0,0.06,0,0.088-0.003
		c1.422,0.069,2.78-1.042,3.126-2.1c0.296-0.755,0.306-1.365,0.316-1.874v-7.611h10.9l0.002,7.667
		c0.004,0.448,0.014,1.054,0.306,1.791c0.339,1.04,1.604,2.131,3.01,2.131h0.079h0.132c1.435,0,2.711-1.144,3.005-2.197
		c0.245-0.696,0.254-1.234,0.259-1.646l0.002-21.765l-0.002-0.128C148.086,157.763,148.078,157.227,147.84,156.567" fill="#FFFFFF"></path>
	<path d="M197.627,170.781c-0.076-0.011-0.145,0.005-0.214,0.019c-1.635,0.258-2.284,0.847-2.811,1.427
		c-0.108,0.123-0.144,0.159-0.224,0.219c-0.053,0.034-0.102,0.078-0.149,0.125l-0.173,0.169c-1.456,1.422-3.45,3.368-7.596,3.395
		c-5.574-0.022-9.793-4.347-9.814-10.054c0.013-5.559,4.562-10.086,10.135-10.095c2.529,0.009,4.053,0.812,5.208,1.589
		c0.548,0.376,1.007,0.767,1.464,1.15l0.237,0.194c0.038,0.031,0.083,0.066,0.124,0.094c0.08,0.05,0.149,0.113,0.231,0.183
		c0.466,0.39,1.169,0.981,2.743,1.137c0.045,0.003,0.095,0.003,0.14,0.005c0.47-0.002,1.908-0.013,3.09-1.37
		c0.028-0.03,0.055-0.06,0.079-0.098c0.764-1.065,0.774-1.948,0.782-2.392l0.004-0.164c0.001-0.056,0-0.112-0.004-0.169
		c-0.086-1.064-0.373-1.558-0.668-1.989c-0.025-0.033-0.046-0.067-0.08-0.126c-0.025-0.043-0.054-0.084-0.081-0.123
		c-1.552-2.093-6.316-6.075-13.268-6.159c-8.823,0.014-18.354,7.027-18.372,18.333c0.021,10.242,7.944,18.275,18.04,18.292h0.004
		c4.586-0.011,8.165-1.771,10.36-3.248c1.177-0.792,2.24-1.706,3.075-2.637c0.021-0.026,0.043-0.049,0.062-0.07
		c0.092-0.123,0.181-0.234,0.287-0.366c0.563-0.68,1.199-1.451,1.355-3.085c0.002-0.03,0.003-0.058,0.003-0.09
		c0.03-1.104-0.413-2.213-1.175-2.957C199.674,171.179,198.707,170.782,197.627,170.781" fill="#FFFFFF"></path>
	<path d="M227.884,177.753c-0.623-0.187-1.105-0.191-1.405-0.194l-13.842-0.002v-18.506l-0.004-0.291
		c-0.004-0.465-0.011-1.044-0.303-1.784c-0.518-1.462-2.174-2.079-3.102-2.017c-0.942-0.068-2.653,0.585-3.09,2.017
		c-0.289,0.766-0.295,1.316-0.3,1.804l-0.003,22.273c-0.011,0.422,0.065,1.504,0.943,2.378c0.85,0.842,1.846,0.898,2.339,0.93
		l17.19,0.005h0.021l0.265-0.008c0.017,0,0.039,0,0.059-0.003c0.356-0.005,0.783-0.041,1.307-0.212
		c1.298-0.323,2.389-1.853,2.29-3.188C230.329,179.434,229.069,178.007,227.884,177.753" fill="#FFFFFF"></path>
	<path d="M257.207,158.859c-0.008-0.395-0.018-0.935-0.256-1.598c-0.325-1.194-1.703-2.223-3.002-2.223
		c-0.036,0-0.076,0-0.111,0.003c-1.442-0.071-2.762,1.043-3.108,2.097c-0.299,0.765-0.308,1.369-0.315,1.868v15.332
		c0.001,0.876-0.063,1.954-0.581,2.532c-0.324,0.372-1.455,1.232-5.012,1.235c-3.431-0.002-4.625-0.779-5.037-1.249
		c-0.265-0.298-0.57-0.852-0.566-2.517v-15.365l-0.001-0.069c-0.01-0.436-0.023-1.028-0.309-1.748
		c-0.34-1.034-1.602-2.118-2.993-2.118c-0.033,0-0.063,0-0.092,0.003c-1.426-0.071-2.826,1.101-3.132,2.184
		c-0.25,0.695-0.254,1.239-0.26,1.651l-0.001,16.476c-0.046,3.302,1.482,6.101,4.186,7.674c2.02,1.205,4.58,1.818,7.817,1.866
		c0.04,0.005,0.081,0.008,0.123,0.008h0.003h0.266c3.419-0.013,6.099-0.623,8.182-1.867c2.674-1.557,4.243-4.426,4.202-7.663
		v-16.396L257.207,158.859L257.207,158.859z" fill="#FFFFFF"></path>
	<g fill="#FFFFFF">
		<defs>
			<rect id="SVGID_3_" x="0" y="103.009" width="288" height="81.891"></rect>
		</defs>
		<clipPath id="SVGID_4_" fill="#FFFFFF">
			<use xlink:href="#SVGID_3_" overflow="visible" fill="#FFFFFF"></use>
		</clipPath>
		<path clip-path="url(#SVGID_4_)" d="M57.939,177.728c-0.87-0.647-1.751-0.745-2.509-0.753H42.618v-5.858h12.029
			c2.223,0,3.659-0.647,3.659-2.579c0-1.936-1.436-2.59-3.659-2.59H42.618v-4.588h12.014c1.021,0,1.856-0.264,2.548-0.814
			c0.951-0.744,1.266-1.841,1.251-2.584c0.03-0.829-0.37-2.003-1.327-2.677c-0.88-0.64-1.778-0.73-2.472-0.733H39.057
			c-0.41,0-1.459,0.091-2.299,0.931c-0.88,0.872-0.956,1.954-0.945,2.353v22.638c-0.011,0.424,0.065,1.507,0.945,2.381
			c0.819,0.81,1.815,0.933,2.337,0.933h16.333h0.009c0.377-0.005,1.522-0.013,2.535-0.808c0.897-0.696,1.274-1.791,1.258-2.59
			C59.262,179.565,58.874,178.401,57.939,177.728" fill="#FFFFFF"></path>
		<path clip-path="url(#SVGID_4_)" d="M182.171,128.936c2.891-2.183,4.892-1.642,4.063-0.636c-0.832,1.007-5.747,4.33-5.747,4.33
			C180.368,131.103,180.904,129.894,182.171,128.936L182.171,128.936z M151.983,131.656c-0.978-0.464-2.678-1.734-1.567-4.649
			c0.828-0.017,1.654,0.153,2.218,0.727C153.493,128.609,152.886,130.191,151.983,131.656L151.983,131.656z M144.593,137.246
			c-3.409-1.265-2.181-6.697,1.007-8.638c1.117-0.68,1.559-0.914,2.552-1.151c-1.758,4.561,2.485,6.116,2.485,6.116
			C149.351,136.088,146.16,137.828,144.593,137.246L144.593,137.246z M85.454,130.898c-3.876,2.707-6.613,4.528-9.062,5.899
			c-4.053,2.27-8.656,2.214-9.715-0.337c-0.768-1.851-1.392-4.679,2.382-8.447c4.813-4.807,10.529-6.206,11.609-6.561
			c1.077-0.353,1.353-1.353,0.934-2.369c-0.417-1.017-1.122-1.673-1.566-1.495c-0.445,0.18-1.848,1.27-4.456,2.154
			c-1.551,0.525-4.994,1.528-5.813-0.204c-0.744-1.579,0.439-3.85,2.6-5.439c8.704-6.405,13.633-7.879,14.739-8.3
			c1.228-0.469,2.386,0.591,2.331,1.514c-0.073,1.23-0.38,1.82-0.172,2.549c0.215,0.755,2.378-0.22,2.378-0.22
			c0.887-1.615,1.242-3.037,0.638-4.941c-0.679-2.141-4.168-1.879-6.257-1.214c-1.717,0.547-10.803,4.475-17.578,10.138
			c-3.278,2.74-5.375,5.792-4.1,8.002c1.22,2.113,3.398,1.804,5.277,2.05c0,0-11.266,7.791-8.73,14.569
			c2.211,5.898,8.549,4.778,11.934,3.725c4.38-1.362,8.933-4.843,14.105-8.739c1.76-1.326,5.54-4.382,7.01-5.17
			c1.465-0.788,0.999,1.348,0.539,3.02c-0.137,0.5-0.831,2.876-1.111,4.06c-0.283,1.185-0.397,2.46,1.023,3.682
			c1.097,0.946,3.779-1.533,4.473-2.114c0.695-0.579,6.678-5.721,7.801-6.38c1.119-0.656,1.518,1.006,1.137,2.579
			c-0.208,0.861-0.472,2.061-0.538,2.81c-0.113,1.272,0.113,2.64,1.201,3.345c1.091,0.704,2.208,0.221,3.501-0.52
			c1.293-0.733,7.123-5.469,7.806-5.876c0.745-0.439,1.161,0.072,0.595,1.276c-1.118,2.375,0.444,5.085,2.145,5.582
			c2.147,0.625,4.388-0.005,7.814-1.803c4.559-2.397,7.826-5.079,8.533-5.441c0.68-0.347,0.94,0.204,0.596,1.274
			c-0.722,2.234,0.303,5.561,2.908,6.448c3.875,1.322,8.957-1.441,11.329-5.522c6.192,0.404,9.14-2.749,11.123-5.768
			c0.23-0.349,0.42-0.815,0.803-0.474c0.648,0.572,2.462,1.449,3.397,1.867c0.595,0.267,0.263,0.506-0.186,1.175
			c-0.449,0.669-1.489,2.641-1.917,3.3c-1.109,1.702-1.791,4.282,0.9,5.909c1.739,1.052,4.743-0.141,6.29-1.058
			c1.568-0.932,1.704-1.303,3.021-1.94c0.452-0.22,0.81-0.148,1.285,0.29c2.018,1.869,3.568,2.858,7.414,2.569
			c0.649-0.048,5.692-0.887,5.692-0.887c0.948-0.141,4.714-1.711,11.448-0.975c2.79,0.061,4.319,0.377,6.953,0.588
			c2.187,0.312,10.115,0.656,10.283,0.66c2.615,0.063,5.377,0.565,7.135-1.82c0.376-0.521-0.039-1.22-0.515-1.385
			c-2.21-0.791-6.529-0.381-7.675-0.212c-10.668,0.6-6.533,0.414-16.513-0.85c-3.558-0.449-9.738,0.665-10.973,0.942
			c0,0-2.5,0.242-5.205,0.676c-3.195,0.514-5.177-1.158-5.173-1.896c0.978-0.56,1.373-1.049,4.722-3.303
			c3.346-2.25,4.701-4.463,2.993-6.473c-1.37-1.612-5.055-0.601-7.186,0.566c-6.18,3.386-5.134,8.904-5.134,8.904
			c-1.587,1.258-2.241,1.828-4.142,2.777c-2.038,1.015-4.925,0.661-1.863-5.126c1.605-3.035,1.758-3.878,0.746-4.463
			c-1.258-0.726-3.242-2.303-4.388-3.781c-0.634-0.819-2.491-1.062-3.102,0.553c-2.345,6.193-6.904,7.3-9.072,7.026
			c2.182-4.434,0.154-6.47-1.669-7.289c-1.943-0.874-4.559-0.264-7.045,0.764c-3.271,1.357-8.438,5.009-9.785,5.969
			c-3.388,2.408-9.11,5.678-10.512,5.482c-1.292-0.182-2.104-1.875-1.743-3.965c0.279-1.609,0.872-2.886,2.188-3.987
			c2.893-2.421,5.117-1.689,4.307-0.683c-0.841,1.045-0.784,1.909-0.138,2.25c0.717,0.381,1.627,0.441,2.332-0.764
			c0.708-1.211,0.543-0.779,1.513-2.395c0.984-1.638,0.524-2.472-0.435-3.1c-1.202-0.789-3.52-0.534-5.726,0.661
			c-3.112,1.689-4.719,2.884-7.707,4.813c-1.845,1.191-4.945,3.637-7.011,4.78c-2.037,1.126-1.993-0.827-1.669-2.443
			c0.297-1.479,0.756-3.279,0.925-3.883c0.554-2.03-0.434-3.499-1.369-3.608c-1.018-0.111-3.005,1.127-3.784,1.791
			c-0.782,0.663-6.48,4.364-8.125,5.691c-1.65,1.326-1.988-0.402-1.677-1.141c0.437-1.045,1.428-3.121,1.972-4.555
			c0.544-1.435-0.459-2.394-1.299-2.837c-0.841-0.446-2.885,0.689-3.47,1.116C94.13,125.119,88.638,128.675,85.454,130.898
			L85.454,130.898z" fill="#FFFFFF"></path>
	</g>
	<polygon points="192.916,125.789 192.299,125.789 192.299,125.57 193.772,125.57 193.772,125.789 193.155,125.789 193.155,127.251
		192.916,127.251 192.916,125.789 	" fill="#FFFFFF"></polygon>
	<polygon points="194.03,125.57 194.24,125.57 194.844,126.276 195.45,125.57 195.659,125.57 195.659,127.251 195.425,127.251
		195.425,125.94 194.844,126.616 194.264,125.94 194.264,127.251 194.03,127.251 194.03,125.57 	" fill="#FFFFFF"></polygon>
</g>
</svg>