<svg xmlns:xlink="http://www.w3.org/1999/xlink" xmlns="http://www.w3.org/2000/svg" viewBox="0 0 606.6660156 172.4547882" width="606.6660156"  height="172.4547882" ><path d="M17.092 23.503l27.592 46.998 27.592-47v56.28h7.326V9.015h-7.115l-27.803 48.15L16.88 9.014H9.766v70.766h7.326V23.503zM119.48 55.037h35.284L166.95 79.78h8.18L140.599 9.015H133.648L99.113 79.781h8.182l12.186-24.744zm17.64-37.269l13.915 29.943h-27.919l14.004-29.943zM198.9 50.014h29.632l17.489 29.767h8.51l-17.628-29.847c4.508-.524 18.74-3.55 18.74-20.792 0-6.961-4.362-20.127-20.871-20.127h-43.197v70.766h7.325V50.014zm0-33.674h35.872c2.261 0 13.545.617 13.545 12.802 0 12.5-9.873 13.546-19.127 13.546H198.9V16.34zM396.324 81.27c20.179 0 31.291-9.659 31.291-27.197V9.015h-7.326v45.057c0 13.186-8.063 19.872-23.965 19.872s-23.965-6.686-23.965-19.872V9.015h-7.324v45.057c0 17.538 11.112 27.197 31.29 27.197zM597 16.34V9.015h-59.902v70.766H597v-7.326h-52.576V46.944H597v-7.325h-52.576V16.34H597zm-84.238 56.115h-52.574V46.944h52.574v-7.325h-52.574V16.34h52.574V9.015h-59.9v70.766h59.9v-7.326zM9.666 93.835v7.143h587.18v-7.143H9.666zM348.061 38.059c-.715-4.73-2.225-9.18-4.71-13.276-4.659-7.668-11.373-12.704-19.872-15.411-5.08-1.615-10.301-2.11-15.61-1.771-3.523.228-6.976.866-10.324 2.003-7.719 2.624-13.95 7.22-18.45 14.062-3.427 5.223-5.241 11-5.722 17.21-.325 4.21-.054 8.375.932 12.482 1.67 6.935 5.051 12.892 10.328 17.715 5.808 5.305 12.717 8.23 20.469 9.267.756.103 1.52.183 2.297.273.665 1.943 1.324 3.87 1.992 5.793.668 1.924 1.29 3.861 1.994 5.772l.13-.009c1.255-3.867 2.508-7.734 3.78-11.638.162-.034.273-.059.389-.074 2.68-.279 5.316-.82 7.883-1.636 13.948-4.413 23.518-16.05 24.802-31.271a40.365 40.365 0 0 0-.308-9.491zm-9.905 19.271c-3.524 7.049-9.158 11.735-16.558 14.348a29.75 29.75 0 0 1-6.293 1.463c-1.354-4.289-2.69-8.525-4.026-12.769h-.13c-1.276 4.272-2.55 8.545-3.842 12.883-.732-.105-1.432-.184-2.13-.306-5.06-.858-9.665-2.777-13.702-5.96-5.569-4.393-9.032-10.096-10.377-17.056-1.143-5.925-.655-11.73 1.699-17.302 3.312-7.835 9.111-13.095 17.074-15.982 4.379-1.587 8.922-2.1 13.563-1.754 4.789.353 9.315 1.62 13.455 4.061 7.497 4.416 12.136 10.911 13.775 19.458 1.263 6.561.497 12.918-2.508 18.916z" fill="#FFFFFF"></path><g fill="#FFFFFF"><path d="M75.249 163.853L47.004 128.59v35.263H41.9v-43.325h5.104l28.245 35.728v-35.728h5.162v43.325H75.25zM109.47 163.853V120.47h5.104v43.383h-5.104zM172.34 163.853c-2.609.754-5.277 1.102-8.003 1.102-13.281 0-24.011-8.99-24.011-22.677 0-13.572 10.904-22.62 24.01-22.62 7.715 0 13.05 2.726 18.445 8.062l-3.48 3.654c-4.582-4.234-8.642-6.612-15.08-6.612-10.208 0-18.85 7.018-18.85 17.574 0 10.73 8.7 17.515 18.966 17.515 1.74 0 3.538-.174 5.278-.521 3.77-.813 8.932-3.19 8.932-7.773v-6.09h-14.964v-5.103h20.068v11.542c0 6.321-5.858 10.323-11.31 11.947zM240.78 163.853v-20.067h-27.84v20.067h-5.16v-43.325h5.16v18.153h27.84v-18.153h5.162v43.325h-5.162zM291.067 125.633v38.22h-5.104v-38.22h-15.834v-5.105h36.83v5.105h-15.892zM351.967 164.955c-13.34 0-24.128-8.99-24.128-22.736 0-13.397 10.265-22.793 23.432-22.793 8.003 0 15.311 2.958 20.937 8.642l-3.654 3.538c-4.988-4.408-10.556-7.134-17.574-7.134-9.859 0-18.037 7.656-18.037 17.632 0 10.961 8.873 17.747 19.314 17.747 6.96 0 12.295-2.435 17.11-7.424l3.479 3.886c-6.09 6.032-12.064 8.642-20.88 8.642zM397.031 163.853v-43.325h5.105v38.222h27.317v5.103h-32.422zM486.988 157.416c-3.48 5.683-10.845 7.539-17.11 7.539-5.045 0-10.033-.986-14.035-4.291-4.698-3.945-5.104-8.237-5.104-14.094v-26.042h5.104v25.926c0 4.64.232 6.901 2.03 9.048 2.842 3.363 7.83 4.292 12.006 4.292 4.407 0 9.86-.813 12.47-4.756 1.044-1.567 1.681-3.132 1.681-8.584v-25.926h5.104v25.926c0 3.712-.115 7.714-2.146 10.962zM554.035 160.838c-3.015 2.668-5.626 3.015-11.6 3.015h-24.243v-43.325h24.244c7.597 0 13.687 3.712 13.687 11.89 0 3.828-1.334 6.322-4.233 8.816 3.885 2.378 6.206 6.031 6.206 10.672 0 3.48-1.45 6.611-4.06 8.932zm-7.134-34.684c-.754-.29-2.088-.521-4.175-.521h-19.372v13.513h19.082c4.64 0 8.525-1.856 8.525-7.018 0-2.552-1.392-4.871-4.06-5.974zm-4.465 18.096h-19.082v14.5h19.082c5.335 0 6.67-.523 8.177-1.74 1.624-1.277 2.378-3.132 2.378-5.163 0-6.147-5.393-7.597-10.555-7.597z" fill="#FFFFFF"></path></g></svg>