<svg xmlns:xlink="http://www.w3.org/1999/xlink" xmlns="http://www.w3.org/2000/svg" viewBox="0 0 729.6660156 185.3878174" width="729.6660156"  height="185.3878174" ><path d="M18.16 28.882l33.417 56.92L84.995 28.88v68.16h8.872V11.336H85.25L51.576 69.65c-1.018-1.76-33.674-58.315-33.674-58.315H9.287V97.04h8.873V28.882zm124.005 38.19h42.733l14.759 29.969h9.907L167.74 11.335h-8.418L117.499 97.04h9.909l14.758-29.968zm21.365-45.136L180.383 58.2h-33.814l16.96-36.265zM238.35 60.99h35.888l21.18 36.05h10.308l-21.35-36.147c5.46-.635 22.697-4.3 22.697-25.182 0-8.431-5.283-24.376-25.279-24.376H229.48V97.04h8.872V60.99zm0-40.783h43.444c2.74 0 16.406.747 16.406 15.504 0 15.138-11.957 16.406-23.165 16.406H238.35v-31.91zm239.106 78.636c24.439 0 37.897-11.698 37.897-32.939v-54.57H506.481v54.57c0 15.97-9.766 24.068-29.024 24.068-19.26 0-29.025-8.098-29.025-24.068v-54.57h-8.87v54.57c0 21.241 13.457 32.94 37.895 32.94zM720.5 20.207v-8.872H647.951V97.04H720.5v-8.872h-63.676V57.271H720.5V48.4h-63.676V20.207H720.5zM618.477 88.169h-63.674V57.271h63.674V48.4h-63.674V20.207h63.674v-8.872H545.931V97.04h72.546v-8.872zM9.166 114.063v8.65h711.147v-8.65H9.166zM419.005 46.51c-.867-5.727-2.696-11.118-5.706-16.079-5.641-9.286-13.774-15.386-24.067-18.664-6.153-1.955-12.476-2.554-18.905-2.145-4.267.277-8.45 1.049-12.504 2.427-9.348 3.177-16.894 8.744-22.344 17.03-4.152 6.325-6.35 13.322-6.931 20.843-.394 5.099-.065 10.144 1.128 15.118 2.023 8.4 6.118 15.614 12.509 21.455 7.035 6.425 15.401 9.967 24.79 11.223.917.125 1.84.222 2.783.33.804 2.354 1.602 4.688 2.411 7.017.81 2.33 1.564 4.676 2.416 6.99.054-.003.106-.008.157-.01 1.52-4.684 3.038-9.367 4.58-14.096.195-.04.33-.07.47-.088a47.867 47.867 0 0 0 9.547-1.983c16.892-5.345 28.483-19.437 30.038-37.873.33-3.842.203-7.674-.372-11.495zm-11.997 23.34c-4.268 8.537-11.091 14.213-20.054 17.378-2.438.86-4.952 1.44-7.622 1.771-1.639-5.194-3.257-10.325-4.875-15.464h-.159c-1.544 5.173-3.086 10.35-4.652 15.603-.886-.128-1.734-.224-2.579-.372-6.129-1.038-11.707-3.362-16.596-7.217-6.744-5.32-10.938-12.228-12.568-20.657-1.384-7.176-.792-14.206 2.058-20.955 4.012-9.49 11.035-15.86 20.68-19.357 5.303-1.92 10.805-2.542 16.425-2.123 5.8.427 11.282 1.96 16.296 4.918 9.08 5.348 14.699 13.214 16.684 23.566 1.529 7.946.601 15.645-3.038 22.91z" fill="#FFFFFF"></path><g fill="#FFFFFF"><path d="M187.361 174.843h-20.787v-41.08h20.238c15.012 0 19.027 14.683 19.027 20.678 0 10.173-7.754 20.402-18.478 20.402zm-.55-36.24h-15.397v31.4h15.947c8.084 0 13.639-8.248 13.639-15.727 0-8.745-5.995-15.673-14.188-15.673zM259.575 174.843l-6.71-14.133h-19.797l-6.489 14.133h-5.389l19.577-41.08h4.95l19.247 41.08h-5.39zm-16.388-35.195l-7.7 16.277h15.234l-7.534-16.277zM300.386 155.925v18.918h-4.84v-18.918l-17.432-22.161h6.27l13.693 17.377 13.693-17.377h6.27l-17.654 22.16zM358.19 175.888c-12.648 0-22.878-8.524-22.878-21.558 0-12.703 9.734-21.611 22.218-21.611 7.589 0 14.518 2.805 19.852 8.193l-3.465 3.355c-4.729-4.18-10.008-6.764-16.662-6.764-9.349 0-17.103 7.259-17.103 16.718 0 10.393 8.414 16.827 18.313 16.827 6.599 0 11.658-2.31 16.222-7.04l3.3 3.685c-5.774 5.72-11.438 8.195-19.798 8.195zM400.927 174.843v-41.08h4.839v36.24h25.901v4.84h-30.74zM486.226 168.738c-3.3 5.39-10.284 7.15-16.223 7.15-4.784 0-9.514-.935-13.309-4.07-4.454-3.739-4.839-7.81-4.839-13.363v-24.691h4.84v24.58c0 4.4.22 6.545 1.924 8.58 2.695 3.19 7.424 4.07 11.384 4.07 4.18 0 9.349-.77 11.823-4.51.99-1.485 1.595-2.97 1.595-8.14v-24.58h4.84v24.58c0 3.52-.11 7.315-2.035 10.394zM549.806 171.984c-2.86 2.529-5.334 2.859-11 2.859H515.82v-41.08h22.987c7.204 0 12.978 3.52 12.978 11.274 0 3.63-1.264 5.994-4.014 8.359 3.684 2.255 5.884 5.72 5.884 10.119 0 3.299-1.375 6.268-3.85 8.469zm-6.764-32.886c-.716-.276-1.98-.495-3.96-.495h-18.367v12.813h18.092c4.4 0 8.084-1.76 8.084-6.654 0-2.42-1.32-4.62-3.849-5.664zm-4.235 17.157h-18.092v13.748h18.092c5.06 0 6.324-.494 7.755-1.65 1.539-1.21 2.253-2.97 2.253-4.894 0-5.829-5.114-7.204-10.008-7.204z" fill="#FFFFFF"></path></g></svg>