<svg xmlns:xlink="http://www.w3.org/1999/xlink" xmlns="http://www.w3.org/2000/svg" viewBox="0 0 440.0638428 167.1429443" width="440.0638428"  height="167.1429443" ><path d="M304.784 101.447l-75.819-78.444-12.428-.002 3.154 3.262a14.547 14.547 0 0 1 4.09 10.114v72.967h68.054l-3.085-3.19h-61.715V35.777l71.15 73.566h9.917V23.029h-3.318v78.418zM335.75 109.345V23.03H322.71s4.447 3.408 4.447 11.865v74.45h8.595zM111.876 58.992c0-29.314-23.845-53.159-53.153-53.159-29.315 0-53.16 23.845-53.16 53.16s23.845 53.158 53.16 53.158c29.308 0 53.153-23.844 53.153-53.159zm-71.081 48.869c-20.666-7.522-32.75-36.379-23.1-62.89 9.649-26.51 38.655-42.177 59.318-34.656 20.666 7.522 31.591 37.85 21.941 64.361-9.65 26.511-37.495 40.706-58.159 33.185zM121.576 36.287v73.057l79.179-.135.003-3.056h-75.774V35.661l39.922 39.6.05-.056 40.353-45.29.01 79.287 4.6-.006V23.002h-5.504l-36.732 41.42.002-.003-39.97-41.415-13.253-.002 2.992 3.095a14.653 14.653 0 0 1 4.122 10.19zM348.195 109.345h70.409l-1.775-3.538h-63.088l34-67.736 34.598 68.454h-.044l1.414 2.82H434.5l-43.474-86.411h-10.903l2.65 5.254c1.537 3.069 2.92 6.685 1.376 9.752l-35.954 71.405zM63.775 157.266l-8.668-10.608H53.66v14.446h2.064v-10.608l8.668 10.608h1.446v-14.446h-2.064zM74.504 146.658h2.064v14.446h-2.064zM91.014 154.295h4.128v3.714c-.765.764-2.024 1.342-3.55 1.342-3.077 0-5.43-2.21-5.43-5.47 0-3.117 2.291-5.47 5.244-5.47 1.548 0 3.055.702 3.9 1.632l1.383-1.365c-1.258-1.383-3.22-2.228-5.283-2.228-4.168 0-7.307 3.26-7.307 7.431 0 4.27 3.18 7.429 7.493 7.429 2.229 0 4.376-1.113 5.613-2.683v-6.294h-6.19v1.962zM115.468 152.333h-8.05v-5.675h-2.063v14.446h2.064v-6.81h8.05v6.81h2.063v-14.446h-2.064zM124.65 148.616h3.922v12.488h2.064v-12.488h3.922v-1.958h-9.908zM147.413 159.351c-3.074 0-5.43-2.21-5.43-5.47 0-3.117 2.294-5.47 5.244-5.47 1.548 0 3.055.702 3.9 1.632l1.383-1.365c-1.258-1.383-3.22-2.228-5.283-2.228-4.168 0-7.307 3.26-7.307 7.431 0 4.27 3.18 7.429 7.493 7.429 2.229 0 4.376-1.095 5.613-2.683l-1.464-1.32c-.804.969-2.21 2.044-4.149 2.044zM162.313 146.658h-2.063v14.446h8.46v-1.961h-6.397zM185.015 155.22c0 1.365-.333 2.21-.908 2.85-.724.806-1.796 1.281-3.015 1.281-1.218 0-2.29-.475-3.011-1.28-.579-.64-.911-1.486-.911-2.85v-8.563h-2.064v8.46c0 1.94.578 3.282 1.508 4.292 1.094 1.179 2.704 1.9 4.478 1.9 1.775 0 3.385-.721 4.479-1.9.93-1.01 1.507-2.352 1.507-4.292v-8.46h-2.063v8.563zM203.48 152.992c.68-.64 1.137-1.588 1.137-2.58a3.727 3.727 0 0 0-1.2-2.744c-.68-.618-1.566-1.01-2.97-1.01h-4.911v14.446h5.572c1.464 0 2.415-.35 3.158-.97a4.302 4.302 0 0 0 1.588-3.343c0-1.63-1.01-3.118-2.374-3.799zm-5.88-4.376h2.476c1.154 0 1.65.227 1.98.6.311.33.495.764.495 1.259 0 .494-.184.93-.495 1.259-.33.372-.826.6-1.98.6H197.6v-3.718zm5.51 9.784c-.454.454-1.075.743-2.375.743H197.6v-4.848h3.136c1.3 0 1.921.288 2.375.742a2.4 2.4 0 0 1 .68 1.672c0 .66-.267 1.26-.68 1.691zM246.2 146.658h-2.063v14.446h8.46v-1.961H246.2zM265.082 146.658l-5.986 14.446h2.147l1.508-3.714h6.088l1.527 3.714h2.147l-5.986-14.446h-1.445zm-1.508 8.77l2.229-5.367 2.232 5.368h-4.46zM286.152 153.819c-1.859-1.24-4.933-1.632-4.933-3.468 0-1.26 1.197-1.94 2.393-1.94.908 0 1.797.33 2.58.991l1.218-1.507c-.764-.64-2.042-1.445-3.879-1.445-2.52 0-4.376 1.734-4.376 3.838 0 1.508.805 2.5 1.837 3.18 1.918 1.259 4.973 1.507 4.973 3.714 0 1.302-1.175 2.17-2.517 2.17-1.486 0-2.683-.827-3.531-1.86l-1.424 1.403c1.28 1.55 3.077 2.415 5.057 2.415 2.518 0 4.479-1.651 4.479-4.19 0-1.65-.908-2.661-1.877-3.301zM310.314 157.555l-4.252-10.897h-2.148l5.679 14.446h1.442l5.678-14.446h-2.147zM325.792 154.295h4.746v-1.962h-4.746v-3.717h6.191v-1.958h-8.255v14.446h8.46v-1.961h-6.396zM345.193 154.295h4.127v3.714c-.764.764-2.023 1.342-3.55 1.342-3.073 0-5.43-2.21-5.43-5.47 0-3.117 2.295-5.47 5.244-5.47 1.548 0 3.055.702 3.9 1.632l1.384-1.365c-1.259-1.383-3.22-2.228-5.284-2.228-4.168 0-7.307 3.26-7.307 7.431 0 4.27 3.18 7.429 7.494 7.429 2.228 0 4.376-1.113 5.613-2.683v-6.294h-6.191v1.962zM363.452 146.658l-5.986 14.446h2.148l1.508-3.714h6.088l1.526 3.714h2.148l-5.986-14.446h-1.446zm-1.507 8.77l2.229-5.367 2.231 5.368h-4.46zM384.525 153.819c-1.858-1.24-4.932-1.632-4.932-3.468 0-1.26 1.196-1.94 2.393-1.94.907 0 1.797.33 2.58.991l1.218-1.507c-.764-.64-2.042-1.445-3.879-1.445-2.52 0-4.376 1.734-4.376 3.838 0 1.508.805 2.5 1.837 3.18 1.918 1.259 4.973 1.507 4.973 3.714 0 1.302-1.175 2.17-2.518 2.17-1.485 0-2.682-.827-3.53-1.86l-1.424 1.403c1.28 1.55 3.077 2.415 5.057 2.415 2.517 0 4.479-1.651 4.479-4.19 0-1.65-.908-2.661-1.878-3.301z" fill="#FFFFFF"></path><circle cx="224.634" cy="154.996" r="2.064" fill="#FFFFFF"></circle></svg>