<svg xmlns:xlink="http://www.w3.org/1999/xlink" xmlns="http://www.w3.org/2000/svg" viewBox="0 0 293.269989 153.6589661" width="293.269989"  height="153.6589661" ><path d="M78.952 146.659v-16.51h13.934c2.412 0 3.62 1.074 3.62 3.229v1.908c0 1.663-.962 2.61-2.88 2.842 2.007.208 3.01 1.273 3.01 3.194v2.103c0 2.156-1.597 3.234-4.79 3.234H78.952zm14.425-11.18v-1.544c0-.902-.583-1.355-1.746-1.355h-9.55v4.215h9.55c.647 0 1.1-.084 1.358-.251.258-.166.388-.524.388-1.065zm-11.296 3.75v4.995h9.561c.7 0 1.185-.133 1.458-.406.27-.27.407-.756.407-1.452v-1.277c0-1.24-.621-1.86-1.865-1.86h-9.561zM107.45 146.659v-16.51h16.622v2.43h-13.495v4.303h8.122v2.431h-8.122v4.911h13.65v2.435H107.45zM131.266 146.659l9.541-16.51h2.842l9.773 16.51h-3.387l-2.142-3.868h-11.41l-2.102 3.868h-3.115zm6.541-6.259h8.756l-4.399-7.835-4.357 7.835zM176.512 132.58h-11.516v11.6h11.516v-3.931l3.129.584v1.948c0 1.498-.287 2.522-.857 3.063-.573.542-1.637.815-3.198.815h-9.7c-1.589 0-2.653-.269-3.2-.8-.544-.531-.815-1.563-.815-3.096v-8.683c0-1.53.276-2.57.834-3.114.561-.546 1.62-.818 3.18-.818h9.701c1.56 0 2.625.272 3.198.809.57.54.857 1.576.857 3.101v1.56l-3.129.504v-3.542zM190.133 146.659v-16.47h3.131v6.65h13.162v-6.65h3.131v16.47h-3.13v-7.346h-13.163v7.346h-3.13z" fill="#FFFFFF"></path><g fill="#FFFFFF"><path d="M57.63 27.45s-12.661.86-22.163 1.57c-9.427.693-26.928 2.314-27.132-3.823-.228-6.901 18.681-7.636 18.681-7.636s29.455-2.046 44.452-.959c15 1.097 29.59 4.094 36.137 9.824.952.817.494 1.628-.684 1.364-33.002-2.226-43.19-.64-43.19-.64.411 1.23 7.603 29.685 5.01 56.542-2.972 32.986-21.134 22.23-21.134 22.23s-1.067-.518.544-.956c.938-.257 4.581-3.11 6.544-8.452 1.909-5.193 3.411-21.006 3.547-40.503.136-19.494-.612-28.562-.612-28.562" fill="#FFFFFF"></path><path d="M132.01 59.013c-.332 0-.959-.05-.959-.05s8.856-34.817 9.022-34.973c.171-.177.3.3 1.073 2.436 0 0 8.512 23.168 15.327 33.94-1.793-.15-22.144-1.49-24.462-1.353m55.636 6.547c-3.002-.822-17.863-3.702-17.863-3.702s-1.041-1.641-1.366-2.16C166.62 56.76 155.6 39.241 150.827 29.97c-4.772-9.274-12.136-25.5-13.362-22.636 0 0-9.543 26.867-15.685 46.449-.336 1.072-1.646 5.242-1.945 5.242-2.18 0-14.552.397-20.82-.83-6.275-1.227-14.59-5.179-12.275 3.407 2.317 8.59 30.137 8.181 30.137 8.181s1.089-1.089-3.412 10.639c-4.498 11.728-12.679 32.455-12.679 32.455s-3.134 5.562 1.36 1.913c5.286-4.3 16.841-19.134 25.127-41.832.879-2.64 1.244-3.7 1.265-3.7 1.521.13 31.784-.45 31.784-.45s3.725 7.223 6.047 14.34c1.928 5.885 1.958 11.429 5.778 9.522 3.816-1.911 6.498-7.75 1.455-23.701-.11-.258-.19-.474-.19-.474s9.418.935 13.143.064c1.332-.312 4.09-2.182 1.092-2.999M284.864 64.47c.824-15.412-5.409-28.32-14.774-36.871-10.521-9.9-27.062-15.663-47.332-8.73-.76.314-.683.768.108.685 19.87-1.855 29.619 3.189 39.843 12.052 8.18 8.181 13.616 20.657 12.545 33.338-1.09 15.273-10.14 28.56-28.431 32.247-25.77 3.274-39.432-12.997-40.989-29.942-1.17-12.766 3.834-26.08 13.444-32.23 8.177-5.598 3.806-9.34 3.806-9.34s-4.185-3.65-14.304 6.2c-9.557 8.506-13.905 22.938-12.358 36.906 2.371 21.445 19.744 41.37 52.447 37.412 25.768-4.5 35.127-23.357 35.995-41.727" fill="#FFFFFF"></path></g><g fill="#FFFFFF"><path d="M275.255 99.934c.184-.417.434-.779.75-1.086a3.494 3.494 0 0 1 2.445-.984 3.45 3.45 0 0 1 2.43.984c.313.307.562.67.745 1.086.185.418.277.87.277 1.354 0 .497-.092.955-.277 1.376-.183.42-.432.785-.746 1.095-.312.31-.677.55-1.094.722a3.475 3.475 0 0 1-1.335.258c-.473 0-.92-.086-1.34-.258a3.384 3.384 0 0 1-1.105-.722 3.446 3.446 0 0 1-.75-1.095 3.385 3.385 0 0 1-.276-1.376c0-.485.092-.936.276-1.354zm.565 2.53a2.78 2.78 0 0 0 2.63 1.783c.398 0 .77-.074 1.115-.226a2.803 2.803 0 0 0 1.496-1.557c.144-.36.217-.75.217-1.174 0-.412-.073-.797-.217-1.153a2.812 2.812 0 0 0-1.496-1.543 2.76 2.76 0 0 0-1.115-.226 2.811 2.811 0 0 0-2.032.844c-.256.26-.455.57-.598.925-.145.356-.217.74-.217 1.153 0 .424.072.814.217 1.174zm2.838-3.172c.478 0 .833.095 1.063.285.23.19.345.478.345.864 0 .362-.1.627-.303.796a1.367 1.367 0 0 1-.752.299l1.151 1.78h-.673l-1.098-1.733h-.664v1.732h-.624v-4.023h1.555zm-.276 1.787c.14 0 .275-.004.4-.014.127-.009.239-.035.337-.078a.534.534 0 0 0 .236-.198.686.686 0 0 0 .087-.374.598.598 0 0 0-.077-.324.535.535 0 0 0-.204-.184.87.87 0 0 0-.286-.088 2.223 2.223 0 0 0-.318-.023h-.83v1.283h.655z" fill="#FFFFFF"></path></g></svg>