<svg version="1.1" id="edcweek_2019" xmlns="http://www.w3.org/2000/svg" xmlns:xlink="http://www.w3.org/1999/xlink" x="0px" y="0px" viewBox="0 0 225.53 162.25" style="visibility: visible;" xml:space="preserve" width="225.53"  height="162.25" >
<style type="text/css">
	.st0{fill:url(#SVGID_1_111);}
</style>
<linearGradient id="SVGID_1_111" gradientUnits="userSpaceOnUse" x1="112.7673" y1="162.2457" x2="112.7673" y2="0">
	<stop offset="0" style="stop-color:#FFFFFF"></stop>
	<stop offset="1" style="stop-color:#FFFFFF"></stop>
</linearGradient>
<path class="st0" d="M64.31,133.35h7.43l-7.91,28.89h-5.8L53.35,148l-4.67,14.24h-5.76l-7.95-28.89h7.43l3.77,15.26l4.67-15.26h5.03
	l4.67,15.26L64.31,133.35z M88.06,162.25h19.64v-6.33H95.16v-5.07h10.71v-6.33H95.16v-4.83h12.54v-6.33H88.06V162.25z
	 M127.12,162.25h19.64v-6.33h-12.54v-5.07h10.71v-6.33h-10.71v-4.83h12.54v-6.33h-19.64V162.25z M190.24,133.35h-8.68l-8.36,10.23
	v-10.23h-7.02v28.89h7.02v-9.05l2.44-2.8l6.65,11.85h8.28l-10.19-17.21L190.24,133.35z M200.88,87.23h24.66
	c-5.37,19.08-22.88,33.07-43.67,33.07c-14.41,0-27.25-6.73-35.56-17.2c-2.37,3-5.12,5.7-8.18,8.02
	c-16.77,12.7-40.84,11.98-56.84-1.68c-8.62-7.37-13.86-17.6-15.35-28.35l-36.8,9.63c4.12,4.24,9.87,6.87,16.24,6.87
	c4.89,0,9.41-1.55,13.11-4.19l13.97,17.93c-7.56,5.64-16.93,8.98-27.08,8.98C20.32,120.29,0,99.98,0,74.92
	c0-25.06,20.32-45.38,45.38-45.38c12.86,0,24.46,5.36,32.71,13.95c14.14-14.49,37.2-18.33,55.29-7.9l0.09-23.76L156.13,0
	c0,2.33-0.01,20.49-0.02,37.56c7.32-5.06,16.19-8.02,25.76-8.02c20.79,0,38.31,13.99,43.67,33.07h-24.66
	c-4.04-6.23-11.04-10.35-19.02-10.35c-12.51,0-22.66,10.14-22.66,22.66s10.14,22.66,22.66,22.66
	C189.84,97.57,196.84,93.45,200.88,87.23z M61.81,59.33c-4.13-4.35-9.96-7.07-16.43-7.07c-10.6,0-19.5,7.28-21.97,17.12L61.81,59.33
	z M96.41,57.43c-16.05,13.18-6.43,40.1,14.34,40.1c10.72,0,20.23-7.85,22.22-18.4C136.8,58.84,112.41,44.3,96.41,57.43z" fill="#FFFFFF"></path>
</svg>
